<ttFont>
    <TTGlyph name="A" xMin="-48" yMin="-36" xMax="1681" yMax="1512">
      <contour>
        <pt x="-48" y="0" on="1"/>
        <pt x="14" y="229" on="0"/>
        <pt x="164" y="701" on="0"/>
        <pt x="387" y="1358" on="0"/>
        <pt x="428" y="1484" on="1"/>
        <pt x="440" y="1504" on="0"/>
        <pt x="444" y="1508" on="1"/>
        <pt x="612" y="1508" on="1"/>
        <pt x="671" y="1508" on="0"/>
        <pt x="901" y="1512" on="0"/>
        <pt x="960" y="1512" on="1"/>
        <pt x="1128" y="1512" on="1"/>
        <pt x="1143" y="1512" on="0"/>
        <pt x="1163" y="1511" on="0"/>
        <pt x="1191" y="1507" on="0"/>
        <pt x="1208" y="1499" on="0"/>
        <pt x="1220" y="1483" on="0"/>
        <pt x="1220" y="1472" on="1"/>
        <pt x="1681" y="11" on="1"/>
        <pt x="1681" y="-9" on="0"/>
        <pt x="1652" y="-24" on="0"/>
        <pt x="1612" y="-24" on="1"/>
        <pt x="1520" y="-24" on="1"/>
        <pt x="1480" y="-24" on="0"/>
        <pt x="1322" y="-26" on="0"/>
        <pt x="1282" y="-26" on="1"/>
        <pt x="1270" y="-26" on="0"/>
        <pt x="1197" y="-29" on="0"/>
        <pt x="1147" y="-28" on="0"/>
        <pt x="1086" y="-23" on="0"/>
        <pt x="1049" y="-6" on="0"/>
        <pt x="1044" y="8" on="1"/>
        <pt x="1044" y="74" on="1"/>
        <pt x="1034" y="124" on="0"/>
        <pt x="984" y="208" on="0"/>
        <pt x="956" y="208" on="1"/>
        <pt x="612" y="208" on="1"/>
        <pt x="560" y="-4" on="1"/>
        <pt x="549" y="-28" on="0"/>
        <pt x="448" y="-28" on="1"/>
        <pt x="368" y="-28" on="1"/>
        <pt x="325" y="-28" on="0"/>
        <pt x="155" y="-34" on="0"/>
        <pt x="112" y="-34" on="1"/>
        <pt x="84" y="-34" on="1"/>
        <pt x="68" y="-34" on="0"/>
        <pt x="-1" y="-36" on="0"/>
        <pt x="-20" y="-36" on="1"/>
        <pt x="-28" y="-28" on="0"/>
      </contour>
      <contour>
        <pt x="646" y="607" on="1"/>
        <pt x="674" y="560" on="1"/>
        <pt x="740" y="560" on="1"/>
        <pt x="820" y="560" on="0"/>
        <pt x="953" y="579" on="0"/>
        <pt x="953" y="600" on="1"/>
        <pt x="824" y="1176" on="1"/>
        <pt x="806" y="1176" on="0"/>
        <pt x="745" y="1040" on="0"/>
        <pt x="726" y="954" on="1"/>
      </contour>
    </TTGlyph>
    <TTGlyph name="AE" xMin="-48" yMin="-36" xMax="2313" yMax="1516">
      <contour>
        <pt x="1956" y="-12" on="1"/>
        <pt x="1878" y="-12" on="0"/>
        <pt x="1626" y="-24" on="0"/>
        <pt x="1554" y="-24" on="1"/>
        <pt x="1156" y="-24" on="1"/>
        <pt x="1151" y="-24" on="0"/>
        <pt x="1120" y="-25" on="0"/>
        <pt x="1104" y="-25" on="0"/>
        <pt x="1077" y="-21" on="0"/>
        <pt x="1062" y="-15" on="0"/>
        <pt x="1047" y="-2" on="0"/>
        <pt x="1044" y="8" on="1"/>
        <pt x="1044" y="74" on="1"/>
        <pt x="1034" y="124" on="0"/>
        <pt x="984" y="208" on="0"/>
        <pt x="956" y="208" on="1"/>
        <pt x="612" y="208" on="1"/>
        <pt x="560" y="-4" on="1"/>
        <pt x="545" y="-28" on="0"/>
        <pt x="448" y="-28" on="1"/>
        <pt x="368" y="-28" on="1"/>
        <pt x="325" y="-28" on="0"/>
        <pt x="155" y="-34" on="0"/>
        <pt x="112" y="-34" on="1"/>
        <pt x="84" y="-34" on="1"/>
        <pt x="68" y="-34" on="0"/>
        <pt x="-1" y="-36" on="0"/>
        <pt x="-20" y="-36" on="1"/>
        <pt x="-28" y="-28" on="0"/>
        <pt x="-48" y="0" on="1"/>
        <pt x="-4" y="164" on="0"/>
        <pt x="64" y="374" on="1"/>
        <pt x="103" y="493" on="0"/>
        <pt x="234" y="973" on="0"/>
        <pt x="361" y="1357" on="0"/>
        <pt x="436" y="1508" on="1"/>
        <pt x="612" y="1508" on="1"/>
        <pt x="671" y="1508" on="0"/>
        <pt x="901" y="1512" on="0"/>
        <pt x="960" y="1512" on="1"/>
        <pt x="1128" y="1512" on="1"/>
        <pt x="1144" y="1512" on="0"/>
        <pt x="1168" y="1508" on="1"/>
        <pt x="1467" y="1516" on="0"/>
        <pt x="1838" y="1516" on="1"/>
        <pt x="1864" y="1513" on="0"/>
        <pt x="1870" y="1492" on="1"/>
        <pt x="1969" y="1135" on="0"/>
        <pt x="1976" y="1110" on="1"/>
        <pt x="1976" y="1097" on="0"/>
        <pt x="1946" y="1084" on="0"/>
        <pt x="1926" y="1084" on="1"/>
        <pt x="1900" y="1084" on="1"/>
        <pt x="1637" y="1084" on="0"/>
        <pt x="1424" y="1092" on="1"/>
        <pt x="1451" y="944" on="0"/>
        <pt x="1454" y="934" on="1"/>
        <pt x="1926" y="934" on="1"/>
        <pt x="1979" y="934" on="0"/>
        <pt x="1988" y="900" on="1"/>
        <pt x="1988" y="868" on="1"/>
        <pt x="2000" y="820" on="0"/>
        <pt x="2070" y="632" on="0"/>
        <pt x="2082" y="584" on="1"/>
        <pt x="2082" y="574" on="1"/>
        <pt x="2082" y="564" on="0"/>
        <pt x="2072" y="564" on="1"/>
        <pt x="2060" y="568" on="1"/>
        <pt x="1752" y="552" on="0"/>
        <pt x="1596" y="552" on="1"/>
        <pt x="1570" y="552" on="1"/>
        <pt x="1612" y="408" on="1"/>
        <pt x="1700" y="408" on="0"/>
        <pt x="2031" y="424" on="0"/>
        <pt x="2116" y="424" on="1"/>
        <pt x="2186" y="424" on="0"/>
        <pt x="2200" y="396" on="1"/>
        <pt x="2313" y="19" on="1"/>
        <pt x="2313" y="-13" on="0"/>
        <pt x="2284" y="-14" on="1"/>
        <pt x="2283" y="-14" on="0"/>
        <pt x="2282" y="-14" on="1"/>
        <pt x="2230" y="-14" on="0"/>
        <pt x="2011" y="-12" on="0"/>
      </contour>
      <contour>
        <pt x="646" y="607" on="1"/>
        <pt x="674" y="560" on="1"/>
        <pt x="740" y="560" on="1"/>
        <pt x="820" y="560" on="0"/>
        <pt x="953" y="579" on="0"/>
        <pt x="953" y="600" on="1"/>
        <pt x="824" y="1176" on="1"/>
        <pt x="806" y="1176" on="0"/>
        <pt x="745" y="1040" on="0"/>
        <pt x="726" y="954" on="1"/>
      </contour>
    </TTGlyph>
    <TTGlyph name="Aacute" xMin="-48" yMin="-36" xMax="1681" yMax="2021">
      <component glyphName="acute" x="432" y="252" flags="0x4"/>
      <component glyphName="A" x="0" y="0" flags="0x4"/>
    </TTGlyph>
    <TTGlyph name="Abreve" xMin="-48" yMin="-36" xMax="1681" yMax="2070">
      <component glyphName="breve" x="479" y="318" flags="0x4"/>
      <component glyphName="A" x="0" y="0" flags="0x4"/>
    </TTGlyph>
    <TTGlyph name="Acircumflex" xMin="-48" yMin="-36" xMax="1681" yMax="2040">
      <component glyphName="circumflex" x="459" y="286" flags="0x4"/>
      <component glyphName="A" x="0" y="0" flags="0x4"/>
    </TTGlyph>
    <TTGlyph name="Adieresis" xMin="-48" yMin="-36" xMax="1681" yMax="2012">
      <component glyphName="dieresis" x="498" y="228" flags="0x4"/>
      <component glyphName="A" x="0" y="0" flags="0x4"/>
    </TTGlyph>
    <TTGlyph name="Agrave" xMin="-48" yMin="-36" xMax="1681" yMax="2016">
      <component glyphName="grave" x="586" y="228" flags="0x4"/>
      <component glyphName="A" x="0" y="0" flags="0x4"/>
    </TTGlyph>
    <TTGlyph name="Aogonek" xMin="-48" yMin="-549" xMax="1681" yMax="1512">
      <component glyphName="ogonek" x="408" y="-61" flags="0x4"/>
      <component glyphName="A" x="0" y="0" flags="0x4"/>
    </TTGlyph>
    <TTGlyph name="Aring" xMin="-48" yMin="-36" xMax="1681" yMax="2196">
      <component glyphName="ring" x="524" y="256" flags="0x4"/>
      <component glyphName="A" x="0" y="0" flags="0x4"/>
    </TTGlyph>
    <TTGlyph name="Atilde" xMin="-48" yMin="-36" xMax="1681" yMax="2022">
      <component glyphName="tilde" x="484" y="274" flags="0x4"/>
      <component glyphName="A" x="0" y="0" flags="0x4"/>
    </TTGlyph>
    <TTGlyph name="B" xMin="92" yMin="-32" xMax="1528" yMax="1512">
      <contour>
        <pt x="92" y="136" on="1"/>
        <pt x="92" y="1482" on="1"/>
        <pt x="956" y="1512" on="1"/>
        <pt x="1036" y="1512" on="0"/>
        <pt x="1176" y="1492" on="0"/>
        <pt x="1319" y="1437" on="0"/>
        <pt x="1420" y="1350" on="0"/>
        <pt x="1484" y="1206" on="0"/>
        <pt x="1484" y="1112" on="1"/>
        <pt x="1484" y="987" on="0"/>
        <pt x="1374" y="832" on="0"/>
        <pt x="1264" y="772" on="1"/>
        <pt x="1393" y="736" on="0"/>
        <pt x="1528" y="559" on="0"/>
        <pt x="1528" y="424" on="1"/>
        <pt x="1528" y="324" on="0"/>
        <pt x="1452" y="165" on="0"/>
        <pt x="1332" y="65" on="0"/>
        <pt x="1170" y="-1" on="0"/>
        <pt x="1011" y="-28" on="0"/>
        <pt x="928" y="-28" on="1"/>
        <pt x="880" y="-28" on="0"/>
        <pt x="687" y="-24" on="0"/>
        <pt x="638" y="-24" on="1"/>
        <pt x="360" y="-24" on="0"/>
        <pt x="128" y="-32" on="1"/>
        <pt x="95" y="21" on="0"/>
      </contour>
      <contour>
        <pt x="666" y="1148" on="1"/>
        <pt x="666" y="1103" on="0"/>
        <pt x="672" y="925" on="0"/>
        <pt x="672" y="880" on="1"/>
        <pt x="672" y="861" on="0"/>
        <pt x="696" y="858" on="1"/>
        <pt x="710" y="860" on="0"/>
        <pt x="779" y="869" on="0"/>
        <pt x="819" y="875" on="0"/>
        <pt x="876" y="898" on="0"/>
        <pt x="908" y="930" on="0"/>
        <pt x="932" y="991" on="0"/>
        <pt x="932" y="1032" on="1"/>
        <pt x="932" y="1184" on="0"/>
        <pt x="722" y="1184" on="1"/>
        <pt x="680" y="1177" on="0"/>
        <pt x="673" y="1170" on="1"/>
        <pt x="666" y="1162" on="0"/>
      </contour>
      <contour>
        <pt x="684" y="386" on="1"/>
        <pt x="684" y="312" on="0"/>
        <pt x="692" y="312" on="1"/>
        <pt x="724" y="312" on="1"/>
        <pt x="763" y="312" on="0"/>
        <pt x="820" y="317" on="0"/>
        <pt x="886" y="337" on="0"/>
        <pt x="926" y="372" on="0"/>
        <pt x="954" y="436" on="0"/>
        <pt x="954" y="480" on="1"/>
        <pt x="954" y="505" on="0"/>
        <pt x="944" y="547" on="0"/>
        <pt x="922" y="577" on="0"/>
        <pt x="901" y="599" on="0"/>
        <pt x="862" y="614" on="0"/>
        <pt x="837" y="623" on="0"/>
        <pt x="787" y="629" on="0"/>
        <pt x="765" y="631" on="0"/>
        <pt x="711" y="634" on="0"/>
        <pt x="704" y="634" on="1"/>
        <pt x="704" y="596" on="1"/>
        <pt x="703" y="585" on="0"/>
        <pt x="684" y="459" on="0"/>
        <pt x="684" y="422" on="1"/>
      </contour>
    </TTGlyph>
    <TTGlyph name="C" xMin="40" yMin="-64" xMax="1528" yMax="1538">
      <contour>
        <pt x="1528" y="536" on="1"/>
        <pt x="1511" y="386" on="0"/>
        <pt x="1387" y="155" on="0"/>
        <pt x="1193" y="10" on="0"/>
        <pt x="946" y="-64" on="0"/>
        <pt x="800" y="-64" on="1"/>
        <pt x="664" y="-64" on="0"/>
        <pt x="440" y="-5" on="0"/>
        <pt x="286" y="93" on="0"/>
        <pt x="168" y="234" on="0"/>
        <pt x="98" y="383" on="0"/>
        <pt x="55" y="560" on="0"/>
        <pt x="40" y="713" on="0"/>
        <pt x="40" y="796" on="1"/>
        <pt x="40" y="884" on="1"/>
        <pt x="50" y="1030" on="0"/>
        <pt x="166" y="1263" on="0"/>
        <pt x="332" y="1406" on="0"/>
        <pt x="546" y="1501" on="0"/>
        <pt x="748" y="1538" on="0"/>
        <pt x="848" y="1538" on="1"/>
        <pt x="1009" y="1538" on="0"/>
        <pt x="1256" y="1461" on="0"/>
        <pt x="1412" y="1321" on="0"/>
        <pt x="1500" y="1140" on="0"/>
        <pt x="1512" y="1028" on="1"/>
        <pt x="1512" y="932" on="1"/>
        <pt x="1512" y="900" on="0"/>
        <pt x="1292" y="900" on="1"/>
        <pt x="1240" y="900" on="0"/>
        <pt x="1055" y="904" on="0"/>
        <pt x="1026" y="904" on="1"/>
        <pt x="1021" y="904" on="0"/>
        <pt x="1001" y="902" on="0"/>
        <pt x="996" y="902" on="1"/>
        <pt x="970" y="902" on="0"/>
        <pt x="943" y="945" on="0"/>
        <pt x="934" y="1007" on="0"/>
        <pt x="921" y="1069" on="0"/>
        <pt x="880" y="1112" on="0"/>
        <pt x="808" y="1112" on="0"/>
        <pt x="754" y="1088" on="0"/>
        <pt x="722" y="1037" on="0"/>
        <pt x="701" y="985" on="0"/>
        <pt x="692" y="902" on="0"/>
        <pt x="689" y="845" on="0"/>
        <pt x="687" y="750" on="0"/>
        <pt x="686" y="728" on="1"/>
        <pt x="686" y="716" on="0"/>
        <pt x="682" y="652" on="0"/>
        <pt x="682" y="632" on="1"/>
        <pt x="682" y="383" on="0"/>
        <pt x="814" y="376" on="1"/>
        <pt x="850" y="376" on="0"/>
        <pt x="896" y="428" on="0"/>
        <pt x="913" y="492" on="0"/>
        <pt x="935" y="563" on="0"/>
        <pt x="948" y="576" on="1"/>
        <pt x="1492" y="576" on="1"/>
        <pt x="1525" y="573" on="0"/>
      </contour>
    </TTGlyph>
    <TTGlyph name="Cacute" xMin="40" yMin="-64" xMax="1528" yMax="2067">
      <component glyphName="acute" x="396" y="298" flags="0x4"/>
      <component glyphName="C" x="0" y="0" flags="0x4"/>
    </TTGlyph>
    <TTGlyph name="Ccaron" xMin="40" yMin="-64" xMax="1528" yMax="2064">
      <component glyphName="caron" x="429" y="312" flags="0x4"/>
      <component glyphName="C" x="0" y="0" flags="0x4"/>
    </TTGlyph>
    <TTGlyph name="Ccedilla" xMin="40" yMin="-516" xMax="1528" yMax="1538">
      <component glyphName="cedilla" x="476" y="0" flags="0x4"/>
      <component glyphName="C" x="0" y="0" flags="0x4"/>
    </TTGlyph>
    <TTGlyph name="Ccircumflex" xMin="40" yMin="-64" xMax="1528" yMax="2062">
      <component glyphName="circumflex" x="423" y="308" flags="0x4"/>
      <component glyphName="C" x="0" y="0" flags="0x4"/>
    </TTGlyph>
    <TTGlyph name="Cdotaccent" xMin="40" yMin="-64" xMax="1528" yMax="2052">
      <component glyphName="dotaccent" x="458" y="560" flags="0x4"/>
      <component glyphName="C" x="0" y="0" flags="0x4"/>
    </TTGlyph>
    <TTGlyph name="D" xMin="106" yMin="-32" xMax="1612" yMax="1516">
      <contour>
        <pt x="106" y="1468" on="1"/>
        <pt x="106" y="1479" on="0"/>
        <pt x="131" y="1496" on="0"/>
        <pt x="179" y="1505" on="0"/>
        <pt x="227" y="1511" on="0"/>
        <pt x="294" y="1513" on="0"/>
        <pt x="338" y="1513" on="0"/>
        <pt x="395" y="1512" on="0"/>
        <pt x="400" y="1512" on="1"/>
        <pt x="512" y="1512" on="1"/>
        <pt x="545" y="1512" on="0"/>
        <pt x="664" y="1516" on="0"/>
        <pt x="692" y="1516" on="1"/>
        <pt x="1169" y="1516" on="0"/>
        <pt x="1374" y="1352" on="1"/>
        <pt x="1410" y="1320" on="1"/>
        <pt x="1427" y="1304" on="0"/>
        <pt x="1469" y="1253" on="0"/>
        <pt x="1530" y="1150" on="0"/>
        <pt x="1578" y="1030" on="0"/>
        <pt x="1612" y="854" on="0"/>
        <pt x="1612" y="760" on="1"/>
        <pt x="1612" y="614" on="0"/>
        <pt x="1532" y="360" on="0"/>
        <pt x="1393" y="174" on="0"/>
        <pt x="1206" y="39" on="0"/>
        <pt x="988" y="-28" on="0"/>
        <pt x="872" y="-28" on="1"/>
        <pt x="840" y="-28" on="1"/>
        <pt x="797" y="-28" on="0"/>
        <pt x="627" y="-24" on="0"/>
        <pt x="584" y="-24" on="1"/>
        <pt x="333" y="-24" on="0"/>
        <pt x="130" y="-32" on="1"/>
        <pt x="106" y="16" on="0"/>
        <pt x="106" y="56" on="1"/>
      </contour>
      <contour>
        <pt x="694" y="320" on="1"/>
        <pt x="754" y="320" on="0"/>
        <pt x="850" y="347" on="0"/>
        <pt x="916" y="391" on="0"/>
        <pt x="966" y="459" on="0"/>
        <pt x="995" y="531" on="0"/>
        <pt x="1012" y="624" on="0"/>
        <pt x="1018" y="707" on="0"/>
        <pt x="1018" y="758" on="1"/>
        <pt x="1018" y="820" on="1"/>
        <pt x="1018" y="1004" on="0"/>
        <pt x="872" y="1179" on="0"/>
        <pt x="690" y="1184" on="1"/>
        <pt x="685" y="1173" on="0"/>
        <pt x="663" y="1135" on="0"/>
        <pt x="658" y="1124" on="1"/>
        <pt x="658" y="1076" on="1"/>
        <pt x="658" y="1061" on="0"/>
        <pt x="657" y="998" on="1"/>
        <pt x="644" y="328" on="0"/>
      </contour>
    </TTGlyph>
    <TTGlyph name="Dcaron" xMin="106" yMin="-32" xMax="1612" yMax="2064">
      <component glyphName="caron" x="503" y="312" flags="0x4"/>
      <component glyphName="D" x="0" y="0" flags="0x4"/>
    </TTGlyph>
    <TTGlyph name="Dcroat" xMin="-60" yMin="-28" xMax="1610" yMax="1516">
      <component glyphName="Eth" x="0" y="0" flags="0x204"/>
    </TTGlyph>
    <TTGlyph name="E" xMin="92" yMin="-32" xMax="1288" yMax="1498">
      <contour>
        <pt x="92" y="36" on="1"/>
        <pt x="92" y="74" on="1"/>
        <pt x="92" y="245" on="0"/>
        <pt x="100" y="913" on="0"/>
        <pt x="100" y="1084" on="1"/>
        <pt x="100" y="1498" on="1"/>
        <pt x="1264" y="1498" on="1"/>
        <pt x="1264" y="1170" on="1"/>
        <pt x="1264" y="1167" on="0"/>
        <pt x="1264" y="1143" on="0"/>
        <pt x="1264" y="1135" on="0"/>
        <pt x="1262" y="1114" on="0"/>
        <pt x="1257" y="1106" on="0"/>
        <pt x="1248" y="1091" on="0"/>
        <pt x="1236" y="1085" on="0"/>
        <pt x="1216" y="1080" on="0"/>
        <pt x="1204" y="1080" on="1"/>
        <pt x="1176" y="1080" on="1"/>
        <pt x="917" y="1080" on="0"/>
        <pt x="704" y="1088" on="1"/>
        <pt x="702" y="1072" on="0"/>
        <pt x="693" y="1005" on="0"/>
        <pt x="688" y="954" on="0"/>
        <pt x="688" y="930" on="1"/>
        <pt x="1164" y="930" on="1"/>
        <pt x="1194" y="930" on="0"/>
        <pt x="1214" y="914" on="0"/>
        <pt x="1214" y="896" on="1"/>
        <pt x="1214" y="891" on="0"/>
        <pt x="1212" y="869" on="0"/>
        <pt x="1212" y="864" on="1"/>
        <pt x="1212" y="816" on="0"/>
        <pt x="1218" y="628" on="0"/>
        <pt x="1218" y="580" on="1"/>
        <pt x="1215" y="560" on="0"/>
        <pt x="1202" y="560" on="1"/>
        <pt x="1196" y="560" on="0"/>
        <pt x="1192" y="564" on="1"/>
        <pt x="876" y="548" on="0"/>
        <pt x="724" y="548" on="1"/>
        <pt x="698" y="548" on="1"/>
        <pt x="698" y="404" on="1"/>
        <pt x="787" y="404" on="0"/>
        <pt x="1124" y="420" on="0"/>
        <pt x="1208" y="420" on="1"/>
        <pt x="1274" y="420" on="0"/>
        <pt x="1284" y="392" on="1"/>
        <pt x="1284" y="316" on="1"/>
        <pt x="1284" y="268" on="0"/>
        <pt x="1288" y="80" on="0"/>
        <pt x="1288" y="32" on="1"/>
        <pt x="1288" y="-18" on="0"/>
        <pt x="1248" y="-18" on="1"/>
        <pt x="1196" y="-18" on="0"/>
        <pt x="980" y="-16" on="0"/>
        <pt x="924" y="-16" on="1"/>
        <pt x="780" y="-16" on="0"/>
        <pt x="244" y="-31" on="0"/>
        <pt x="124" y="-32" on="1"/>
        <pt x="96" y="0" on="1"/>
        <pt x="92" y="28" on="0"/>
      </contour>
    </TTGlyph>
    <TTGlyph name="Eacute" xMin="92" yMin="-32" xMax="1288" yMax="2233">
      <component glyphName="acute" x="272" y="464" flags="0x4"/>
      <component glyphName="E" x="0" y="0" flags="0x4"/>
    </TTGlyph>
    <TTGlyph name="Ecaron" xMin="92" yMin="-32" xMax="1288" yMax="2064">
      <component glyphName="caron" x="335" y="312" flags="0x4"/>
      <component glyphName="E" x="0" y="0" flags="0x4"/>
    </TTGlyph>
    <TTGlyph name="Ecircumflex" xMin="92" yMin="-32" xMax="1288" yMax="2028">
      <component glyphName="circumflex" x="321" y="274" flags="0x4"/>
      <component glyphName="E" x="0" y="0" flags="0x4"/>
    </TTGlyph>
    <TTGlyph name="Edieresis" xMin="92" yMin="-32" xMax="1288" yMax="2014">
      <component glyphName="dieresis" x="334" y="230" flags="0x4"/>
      <component glyphName="E" x="0" y="0" flags="0x4"/>
    </TTGlyph>
    <TTGlyph name="Egrave" xMin="92" yMin="-32" xMax="1288" yMax="2044">
      <component glyphName="grave" x="376" y="256" flags="0x4"/>
      <component glyphName="E" x="0" y="0" flags="0x4"/>
    </TTGlyph>
    <TTGlyph name="Eogonek" xMin="92" yMin="-545" xMax="1288" yMax="1498">
      <component glyphName="ogonek" x="280" y="-57" flags="0x4"/>
      <component glyphName="E" x="0" y="0" flags="0x4"/>
    </TTGlyph>
    <TTGlyph name="Eth" xMin="-60" yMin="-28" xMax="1610" yMax="1516">
      <contour>
        <pt x="100" y="1472" on="1"/>
        <pt x="100" y="1482" on="0"/>
        <pt x="126" y="1497" on="0"/>
        <pt x="175" y="1505" on="0"/>
        <pt x="223" y="1511" on="0"/>
        <pt x="293" y="1512" on="0"/>
        <pt x="334" y="1513" on="0"/>
        <pt x="394" y="1512" on="0"/>
        <pt x="396" y="1512" on="1"/>
        <pt x="508" y="1512" on="1"/>
        <pt x="540" y="1512" on="0"/>
        <pt x="659" y="1516" on="0"/>
        <pt x="690" y="1516" on="1"/>
        <pt x="1152" y="1516" on="0"/>
        <pt x="1372" y="1352" on="1"/>
        <pt x="1408" y="1320" on="1"/>
        <pt x="1424" y="1305" on="0"/>
        <pt x="1467" y="1253" on="0"/>
        <pt x="1527" y="1149" on="0"/>
        <pt x="1575" y="1028" on="0"/>
        <pt x="1610" y="853" on="0"/>
        <pt x="1610" y="760" on="1"/>
        <pt x="1610" y="614" on="0"/>
        <pt x="1530" y="359" on="0"/>
        <pt x="1390" y="173" on="0"/>
        <pt x="1203" y="39" on="0"/>
        <pt x="985" y="-28" on="0"/>
        <pt x="868" y="-28" on="1"/>
        <pt x="838" y="-28" on="1"/>
        <pt x="795" y="-28" on="0"/>
        <pt x="624" y="-24" on="0"/>
        <pt x="580" y="-24" on="1"/>
        <pt x="426" y="-24" on="0"/>
        <pt x="352" y="-26" on="1"/>
        <pt x="128" y="-26" on="1"/>
        <pt x="113" y="3" on="0"/>
        <pt x="98" y="83" on="0"/>
        <pt x="97" y="138" on="0"/>
        <pt x="100" y="242" on="0"/>
        <pt x="100" y="258" on="1"/>
        <pt x="100" y="306" on="0"/>
        <pt x="104" y="496" on="0"/>
        <pt x="104" y="544" on="1"/>
        <pt x="104" y="618" on="1"/>
        <pt x="82" y="616" on="0"/>
        <pt x="42" y="616" on="1"/>
        <pt x="-20" y="616" on="1"/>
        <pt x="-20" y="628" on="1"/>
        <pt x="-57" y="637" on="0"/>
        <pt x="-60" y="640" on="1"/>
        <pt x="-60" y="810" on="1"/>
        <pt x="-60" y="837" on="0"/>
        <pt x="-42" y="876" on="0"/>
        <pt x="-24" y="876" on="1"/>
        <pt x="100" y="876" on="1"/>
      </contour>
      <contour>
        <pt x="692" y="320" on="1"/>
        <pt x="761" y="320" on="0"/>
        <pt x="868" y="354" on="0"/>
        <pt x="937" y="420" on="0"/>
        <pt x="983" y="498" on="0"/>
        <pt x="1007" y="603" on="0"/>
        <pt x="1016" y="699" on="0"/>
        <pt x="1016" y="758" on="1"/>
        <pt x="1016" y="820" on="1"/>
        <pt x="1016" y="877" on="0"/>
        <pt x="1005" y="969" on="0"/>
        <pt x="971" y="1071" on="0"/>
        <pt x="913" y="1139" on="0"/>
        <pt x="812" y="1184" on="0"/>
        <pt x="744" y="1184" on="1"/>
        <pt x="688" y="1184" on="1"/>
        <pt x="683" y="1173" on="0"/>
        <pt x="661" y="1135" on="0"/>
        <pt x="656" y="1124" on="1"/>
        <pt x="656" y="876" on="1"/>
        <pt x="792" y="876" on="1"/>
        <pt x="824" y="876" on="0"/>
        <pt x="824" y="750" on="1"/>
        <pt x="824" y="678" on="1"/>
        <pt x="824" y="630" on="0"/>
        <pt x="792" y="630" on="1"/>
        <pt x="772" y="630" on="0"/>
        <pt x="686" y="628" on="0"/>
        <pt x="662" y="628" on="1"/>
        <pt x="668" y="340" on="1"/>
        <pt x="671" y="323" on="0"/>
      </contour>
    </TTGlyph>
    <TTGlyph name="Euro" xMin="-4" yMin="-68" xMax="1460" yMax="1500">
      <contour>
        <pt x="1460" y="380" on="1"/>
        <pt x="1451" y="284" on="0"/>
        <pt x="1362" y="132" on="0"/>
        <pt x="1235" y="35" on="0"/>
        <pt x="1066" y="-32" on="0"/>
        <pt x="902" y="-63" on="0"/>
        <pt x="812" y="-68" on="1"/>
        <pt x="753" y="-68" on="0"/>
        <pt x="606" y="-43" on="0"/>
        <pt x="560" y="-26" on="1"/>
        <pt x="532" y="-26" on="1"/>
        <pt x="524" y="-23" on="0"/>
        <pt x="503" y="-6" on="0"/>
        <pt x="500" y="-4" on="1"/>
        <pt x="440" y="32" on="1"/>
        <pt x="379" y="62" on="0"/>
        <pt x="282" y="157" on="0"/>
        <pt x="214" y="278" on="0"/>
        <pt x="171" y="386" on="0"/>
        <pt x="150" y="456" on="1"/>
        <pt x="18" y="456" on="1"/>
        <pt x="-4" y="464" on="0"/>
        <pt x="-4" y="486" on="1"/>
        <pt x="-1" y="497" on="0"/>
        <pt x="15" y="556" on="0"/>
        <pt x="29" y="603" on="0"/>
        <pt x="46" y="656" on="0"/>
        <pt x="64" y="689" on="0"/>
        <pt x="72" y="692" on="1"/>
        <pt x="120" y="692" on="1"/>
        <pt x="120" y="703" on="0"/>
        <pt x="122" y="745" on="0"/>
        <pt x="122" y="756" on="1"/>
        <pt x="68" y="756" on="1"/>
        <pt x="0" y="756" on="0"/>
        <pt x="0" y="784" on="1"/>
        <pt x="60" y="995" on="1"/>
        <pt x="156" y="992" on="1"/>
        <pt x="229" y="1286" on="0"/>
        <pt x="446" y="1412" on="1"/>
        <pt x="508" y="1444" on="1"/>
        <pt x="530" y="1451" on="0"/>
        <pt x="610" y="1480" on="1"/>
        <pt x="695" y="1500" on="0"/>
        <pt x="844" y="1500" on="1"/>
        <pt x="945" y="1500" on="0"/>
        <pt x="1141" y="1461" on="0"/>
        <pt x="1309" y="1386" on="0"/>
        <pt x="1424" y="1263" on="0"/>
        <pt x="1438" y="1186" on="1"/>
        <pt x="1438" y="1126" on="1"/>
        <pt x="1438" y="1123" on="0"/>
        <pt x="1437" y="1114" on="0"/>
        <pt x="1436" y="1111" on="0"/>
        <pt x="1434" y="1107" on="0"/>
        <pt x="1431" y="1105" on="0"/>
        <pt x="1428" y="1104" on="1"/>
        <pt x="968" y="1104" on="1"/>
        <pt x="968" y="1168" on="0"/>
        <pt x="891" y="1266" on="0"/>
        <pt x="822" y="1266" on="1"/>
        <pt x="789" y="1266" on="0"/>
        <pt x="737" y="1210" on="0"/>
        <pt x="711" y="1131" on="0"/>
        <pt x="694" y="1052" on="0"/>
        <pt x="692" y="1024" on="1"/>
        <pt x="690" y="996" on="1"/>
        <pt x="1040" y="996" on="1"/>
        <pt x="1068" y="993" on="0"/>
        <pt x="1068" y="960" on="1"/>
        <pt x="1040" y="868" on="1"/>
        <pt x="1016" y="772" on="1"/>
        <pt x="1006" y="756" on="0"/>
        <pt x="992" y="756" on="1"/>
        <pt x="896" y="756" on="1"/>
        <pt x="806" y="750" on="0"/>
        <pt x="804" y="750" on="1"/>
        <pt x="785" y="750" on="0"/>
        <pt x="707" y="752" on="0"/>
        <pt x="688" y="752" on="1"/>
        <pt x="688" y="696" on="1"/>
        <pt x="764" y="700" on="0"/>
        <pt x="804" y="700" on="1"/>
        <pt x="815" y="700" on="0"/>
        <pt x="858" y="698" on="0"/>
        <pt x="870" y="698" on="1"/>
        <pt x="883" y="698" on="0"/>
        <pt x="939" y="700" on="0"/>
        <pt x="952" y="700" on="1"/>
        <pt x="969" y="698" on="0"/>
        <pt x="987" y="682" on="0"/>
        <pt x="987" y="669" on="1"/>
        <pt x="932" y="502" on="1"/>
        <pt x="903" y="504" on="0"/>
        <pt x="821" y="504" on="0"/>
        <pt x="724" y="502" on="0"/>
        <pt x="704" y="502" on="1"/>
        <pt x="704" y="500" on="0"/>
        <pt x="713" y="430" on="0"/>
        <pt x="721" y="391" on="0"/>
        <pt x="737" y="316" on="0"/>
        <pt x="759" y="269" on="0"/>
        <pt x="790" y="217" on="0"/>
        <pt x="834" y="192" on="0"/>
        <pt x="860" y="192" on="1"/>
        <pt x="902" y="192" on="0"/>
        <pt x="964" y="231" on="0"/>
        <pt x="995" y="295" on="0"/>
        <pt x="1008" y="356" on="0"/>
        <pt x="1008" y="388" on="1"/>
        <pt x="1424" y="414" on="1"/>
        <pt x="1440" y="413" on="0"/>
        <pt x="1455" y="398" on="0"/>
      </contour>
    </TTGlyph>
    <TTGlyph name="F" xMin="99" yMin="-32" xMax="1264" yMax="1514">
      <contour>
        <pt x="100" y="140" on="1"/>
        <pt x="100" y="1476" on="1"/>
        <pt x="100" y="1510" on="0"/>
        <pt x="256" y="1510" on="1"/>
        <pt x="273" y="1510" on="0"/>
        <pt x="336" y="1508" on="0"/>
        <pt x="348" y="1508" on="1"/>
        <pt x="427" y="1508" on="0"/>
        <pt x="740" y="1514" on="0"/>
        <pt x="820" y="1514" on="1"/>
        <pt x="875" y="1514" on="0"/>
        <pt x="1092" y="1510" on="0"/>
        <pt x="1152" y="1510" on="1"/>
        <pt x="1160" y="1510" on="0"/>
        <pt x="1192" y="1512" on="0"/>
        <pt x="1200" y="1512" on="1"/>
        <pt x="1236" y="1512" on="0"/>
        <pt x="1264" y="1485" on="0"/>
        <pt x="1264" y="1446" on="1"/>
        <pt x="1264" y="1096" on="1"/>
        <pt x="1206" y="1091" on="0"/>
        <pt x="1080" y="1088" on="0"/>
        <pt x="886" y="1086" on="0"/>
        <pt x="862" y="1086" on="1"/>
        <pt x="724" y="1086" on="1"/>
        <pt x="724" y="1067" on="0"/>
        <pt x="722" y="995" on="0"/>
        <pt x="722" y="976" on="1"/>
        <pt x="722" y="962" on="1"/>
        <pt x="724" y="958" on="0"/>
        <pt x="724" y="948" on="1"/>
        <pt x="951" y="964" on="0"/>
        <pt x="1108" y="964" on="1"/>
        <pt x="1155" y="964" on="0"/>
        <pt x="1228" y="950" on="0"/>
        <pt x="1228" y="936" on="1"/>
        <pt x="1228" y="602" on="1"/>
        <pt x="1228" y="558" on="0"/>
        <pt x="1194" y="528" on="0"/>
        <pt x="1158" y="528" on="1"/>
        <pt x="1150" y="528" on="0"/>
        <pt x="1108" y="532" on="0"/>
        <pt x="1096" y="532" on="1"/>
        <pt x="893" y="519" on="0"/>
        <pt x="726" y="516" on="1"/>
        <pt x="726" y="455" on="0"/>
        <pt x="732" y="209" on="0"/>
        <pt x="732" y="148" on="1"/>
        <pt x="732" y="24" on="1"/>
        <pt x="732" y="-5" on="0"/>
        <pt x="720" y="-24" on="0"/>
        <pt x="696" y="-28" on="1"/>
        <pt x="600" y="-28" on="0"/>
        <pt x="224" y="-32" on="0"/>
        <pt x="128" y="-32" on="1"/>
        <pt x="120" y="-20" on="0"/>
        <pt x="109" y="8" on="0"/>
        <pt x="103" y="30" on="0"/>
        <pt x="100" y="69" on="0"/>
        <pt x="99" y="86" on="0"/>
        <pt x="100" y="134" on="0"/>
      </contour>
    </TTGlyph>
    <TTGlyph name="G" xMin="42" yMin="-60" xMax="1612" yMax="1540">
      <contour>
        <pt x="42" y="748" on="1"/>
        <pt x="42" y="886" on="0"/>
        <pt x="104" y="1116" on="0"/>
        <pt x="207" y="1276" on="0"/>
        <pt x="352" y="1400" on="0"/>
        <pt x="506" y="1475" on="0"/>
        <pt x="683" y="1523" on="0"/>
        <pt x="837" y="1540" on="0"/>
        <pt x="916" y="1540" on="1"/>
        <pt x="974" y="1540" on="0"/>
        <pt x="1085" y="1530" on="0"/>
        <pt x="1224" y="1505" on="0"/>
        <pt x="1345" y="1453" on="0"/>
        <pt x="1456" y="1378" on="0"/>
        <pt x="1538" y="1259" on="0"/>
        <pt x="1556" y="1184" on="1"/>
        <pt x="1561" y="1155" on="0"/>
        <pt x="1576" y="1020" on="1"/>
        <pt x="1572" y="990" on="0"/>
        <pt x="1512" y="990" on="1"/>
        <pt x="1426" y="990" on="0"/>
        <pt x="1098" y="998" on="0"/>
        <pt x="1016" y="998" on="1"/>
        <pt x="1004" y="1002" on="0"/>
        <pt x="990" y="1026" on="0"/>
        <pt x="985" y="1054" on="0"/>
        <pt x="974" y="1086" on="0"/>
        <pt x="957" y="1111" on="0"/>
        <pt x="914" y="1128" on="0"/>
        <pt x="882" y="1128" on="1"/>
        <pt x="840" y="1128" on="0"/>
        <pt x="774" y="1099" on="0"/>
        <pt x="732" y="1057" on="0"/>
        <pt x="702" y="985" on="0"/>
        <pt x="687" y="926" on="0"/>
        <pt x="679" y="835" on="0"/>
        <pt x="678" y="783" on="0"/>
        <pt x="678" y="740" on="1"/>
        <pt x="678" y="727" on="0"/>
        <pt x="680" y="689" on="0"/>
        <pt x="680" y="682" on="1"/>
        <pt x="680" y="652" on="1"/>
        <pt x="680" y="620" on="0"/>
        <pt x="682" y="578" on="0"/>
        <pt x="691" y="512" on="0"/>
        <pt x="707" y="467" on="0"/>
        <pt x="738" y="416" on="0"/>
        <pt x="783" y="385" on="0"/>
        <pt x="851" y="364" on="0"/>
        <pt x="894" y="364" on="1"/>
        <pt x="1005" y="364" on="0"/>
        <pt x="1076" y="386" on="1"/>
        <pt x="1076" y="508" on="1"/>
        <pt x="1032" y="508" on="1"/>
        <pt x="1032" y="506" on="1"/>
        <pt x="960" y="506" on="1"/>
        <pt x="952" y="506" on="0"/>
        <pt x="911" y="504" on="0"/>
        <pt x="898" y="504" on="1"/>
        <pt x="862" y="544" on="1"/>
        <pt x="862" y="820" on="1"/>
        <pt x="862" y="846" on="0"/>
        <pt x="898" y="876" on="1"/>
        <pt x="970" y="876" on="1"/>
        <pt x="1045" y="876" on="0"/>
        <pt x="1259" y="872" on="0"/>
        <pt x="1316" y="872" on="1"/>
        <pt x="1396" y="872" on="1"/>
        <pt x="1454" y="872" on="0"/>
        <pt x="1519" y="870" on="0"/>
        <pt x="1599" y="853" on="0"/>
        <pt x="1612" y="836" on="1"/>
        <pt x="1612" y="705" on="0"/>
        <pt x="1600" y="203" on="0"/>
        <pt x="1600" y="90" on="1"/>
        <pt x="1600" y="87" on="0"/>
        <pt x="1602" y="74" on="0"/>
        <pt x="1602" y="70" on="1"/>
        <pt x="1602" y="48" on="1"/>
        <pt x="1568" y="8" on="0"/>
        <pt x="1192" y="-52" on="0"/>
        <pt x="1064" y="-52" on="1"/>
        <pt x="1038" y="-52" on="1"/>
        <pt x="1010" y="-52" on="0"/>
        <pt x="900" y="-60" on="0"/>
        <pt x="872" y="-60" on="1"/>
        <pt x="469" y="-60" on="0"/>
        <pt x="42" y="371" on="0"/>
      </contour>
    </TTGlyph>
    <TTGlyph name="Gbreve" xMin="42" yMin="-60" xMax="1612" yMax="2070">
      <component glyphName="breve" x="488" y="318" flags="0x4"/>
      <component glyphName="G" x="0" y="0" flags="0x4"/>
    </TTGlyph>
    <TTGlyph name="Gcircumflex" xMin="42" yMin="-60" xMax="1612" yMax="2062">
      <component glyphName="circumflex" x="466" y="308" flags="0x4"/>
      <component glyphName="G" x="0" y="0" flags="0x4"/>
    </TTGlyph>
    <TTGlyph name="Gdotaccent" xMin="42" yMin="-60" xMax="1612" yMax="2052">
      <component glyphName="dotaccent" x="501" y="560" flags="0x4"/>
      <component glyphName="G" x="0" y="0" flags="0x4"/>
    </TTGlyph>
    <TTGlyph name="H" xMin="90" yMin="-32" xMax="1556" yMax="1520">
      <contour>
        <pt x="360" y="-26" on="1"/>
        <pt x="332" y="-26" on="0"/>
        <pt x="258" y="-29" on="0"/>
        <pt x="218" y="-31" on="0"/>
        <pt x="167" y="-28" on="0"/>
        <pt x="141" y="-17" on="0"/>
        <pt x="112" y="5" on="0"/>
        <pt x="99" y="43" on="0"/>
        <pt x="90" y="99" on="0"/>
        <pt x="90" y="138" on="1"/>
        <pt x="90" y="354" on="0"/>
        <pt x="106" y="1101" on="0"/>
        <pt x="106" y="1276" on="1"/>
        <pt x="106" y="1492" on="0"/>
        <pt x="128" y="1504" on="1"/>
        <pt x="500" y="1504" on="1"/>
        <pt x="599" y="1504" on="0"/>
        <pt x="696" y="1481" on="0"/>
        <pt x="728" y="1435" on="0"/>
        <pt x="728" y="1388" on="1"/>
        <pt x="728" y="1374" on="0"/>
        <pt x="724" y="1293" on="0"/>
        <pt x="724" y="1266" on="1"/>
        <pt x="724" y="1220" on="1"/>
        <pt x="724" y="1188" on="0"/>
        <pt x="718" y="1060" on="0"/>
        <pt x="718" y="1028" on="1"/>
        <pt x="718" y="1008" on="1"/>
        <pt x="720" y="1002" on="0"/>
        <pt x="720" y="992" on="1"/>
        <pt x="760" y="992" on="1"/>
        <pt x="777" y="992" on="0"/>
        <pt x="847" y="990" on="0"/>
        <pt x="864" y="990" on="1"/>
        <pt x="910" y="990" on="0"/>
        <pt x="932" y="996" on="1"/>
        <pt x="932" y="1412" on="1"/>
        <pt x="932" y="1462" on="0"/>
        <pt x="942" y="1505" on="0"/>
        <pt x="960" y="1516" on="0"/>
        <pt x="984" y="1516" on="1"/>
        <pt x="997" y="1516" on="0"/>
        <pt x="1055" y="1514" on="0"/>
        <pt x="1068" y="1514" on="1"/>
        <pt x="1142" y="1517" on="1"/>
        <pt x="1217" y="1520" on="0"/>
        <pt x="1276" y="1520" on="1"/>
        <pt x="1548" y="1520" on="0"/>
        <pt x="1548" y="1460" on="1"/>
        <pt x="1548" y="1444" on="0"/>
        <pt x="1550" y="1384" on="0"/>
        <pt x="1550" y="1368" on="1"/>
        <pt x="1550" y="1333" on="0"/>
        <pt x="1548" y="1199" on="0"/>
        <pt x="1548" y="1164" on="1"/>
        <pt x="1548" y="1060" on="0"/>
        <pt x="1554" y="648" on="0"/>
        <pt x="1554" y="544" on="1"/>
        <pt x="1554" y="535" on="0"/>
        <pt x="1552" y="508" on="0"/>
        <pt x="1552" y="504" on="1"/>
        <pt x="1552" y="456" on="1"/>
        <pt x="1552" y="392" on="0"/>
        <pt x="1554" y="360" on="1"/>
        <pt x="1554" y="338" on="1"/>
        <pt x="1552" y="334" on="0"/>
        <pt x="1552" y="326" on="1"/>
        <pt x="1552" y="273" on="0"/>
        <pt x="1556" y="57" on="0"/>
        <pt x="1556" y="4" on="1"/>
        <pt x="1549" y="-32" on="0"/>
        <pt x="1364" y="-32" on="1"/>
        <pt x="948" y="-32" on="1"/>
        <pt x="918" y="10" on="1"/>
        <pt x="918" y="76" on="1"/>
        <pt x="918" y="143" on="0"/>
        <pt x="920" y="405" on="0"/>
        <pt x="920" y="472" on="1"/>
        <pt x="920" y="495" on="0"/>
        <pt x="909" y="512" on="0"/>
        <pt x="892" y="512" on="1"/>
        <pt x="856" y="512" on="1"/>
        <pt x="788" y="512" on="0"/>
        <pt x="732" y="504" on="1"/>
        <pt x="732" y="421" on="0"/>
        <pt x="728" y="88" on="0"/>
        <pt x="728" y="4" on="1"/>
        <pt x="716" y="-26" on="0"/>
        <pt x="478" y="-26" on="1"/>
      </contour>
    </TTGlyph>
    <TTGlyph name="I" xMin="82" yMin="-26" xMax="728" yMax="1512">
      <contour>
        <pt x="82" y="-26" on="1"/>
        <pt x="86" y="265" on="0"/>
        <pt x="96" y="400" on="1"/>
        <pt x="96" y="820" on="0"/>
        <pt x="108" y="1252" on="1"/>
        <pt x="104" y="1336" on="0"/>
        <pt x="104" y="1376" on="1"/>
        <pt x="104" y="1406" on="1"/>
        <pt x="100" y="1450" on="0"/>
        <pt x="100" y="1478" on="1"/>
        <pt x="100" y="1497" on="0"/>
        <pt x="118" y="1512" on="1"/>
        <pt x="282" y="1500" on="0"/>
        <pt x="618" y="1500" on="1"/>
        <pt x="698" y="1500" on="0"/>
        <pt x="728" y="1504" on="1"/>
        <pt x="728" y="-26" on="1"/>
      </contour>
    </TTGlyph>
    <TTGlyph name="Iacute" xMin="82" yMin="-26" xMax="887" yMax="2029">
      <component glyphName="acute" x="132" y="260" flags="0x4"/>
      <component glyphName="I" x="0" y="0" flags="0x4"/>
    </TTGlyph>
    <TTGlyph name="Icircumflex" xMin="-19" yMin="-26" xMax="979" yMax="2030">
      <component glyphName="circumflex" x="119" y="276" flags="0x4"/>
      <component glyphName="I" x="-1" y="0" flags="0x4"/>
    </TTGlyph>
    <TTGlyph name="Idieresis" xMin="-4" yMin="-26" xMax="932" yMax="2020">
      <component glyphName="dieresis" x="112" y="236" flags="0x4"/>
      <component glyphName="I" x="-7" y="0" flags="0x4"/>
    </TTGlyph>
    <TTGlyph name="Idotaccent" xMin="82" yMin="-26" xMax="728" yMax="2052">
      <component glyphName="dotaccent" x="87" y="560" flags="0x4"/>
      <component glyphName="I" x="0" y="0" flags="0x4"/>
    </TTGlyph>
    <TTGlyph name="Igrave" xMin="40" yMin="-26" xMax="764" yMax="2040">
      <component glyphName="grave" x="168" y="252" flags="0x4"/>
      <component glyphName="I" x="-3" y="0" flags="0x4"/>
    </TTGlyph>
    <TTGlyph name="J" xMin="-24" yMin="-56" xMax="1294" yMax="1510">
      <contour>
        <pt x="624" y="-56" on="1"/>
        <pt x="513" y="-56" on="0"/>
        <pt x="330" y="-27" on="0"/>
        <pt x="161" y="46" on="0"/>
        <pt x="45" y="162" on="0"/>
        <pt x="-24" y="348" on="0"/>
        <pt x="-24" y="470" on="1"/>
        <pt x="-24" y="524" on="0"/>
        <pt x="8" y="524" on="1"/>
        <pt x="464" y="524" on="1"/>
        <pt x="495" y="524" on="0"/>
        <pt x="525" y="494" on="0"/>
        <pt x="531" y="450" on="0"/>
        <pt x="536" y="406" on="0"/>
        <pt x="561" y="376" on="0"/>
        <pt x="588" y="376" on="1"/>
        <pt x="613" y="376" on="0"/>
        <pt x="644" y="403" on="0"/>
        <pt x="657" y="457" on="0"/>
        <pt x="660" y="497" on="0"/>
        <pt x="660" y="528" on="1"/>
        <pt x="660" y="536" on="1"/>
        <pt x="659" y="608" on="0"/>
        <pt x="650" y="1020" on="0"/>
        <pt x="650" y="1136" on="1"/>
        <pt x="650" y="1476" on="1"/>
        <pt x="650" y="1505" on="0"/>
        <pt x="692" y="1510" on="1"/>
        <pt x="724" y="1510" on="0"/>
        <pt x="852" y="1508" on="0"/>
        <pt x="884" y="1508" on="1"/>
        <pt x="932" y="1508" on="0"/>
        <pt x="1120" y="1510" on="0"/>
        <pt x="1168" y="1510" on="1"/>
        <pt x="1262" y="1510" on="1"/>
        <pt x="1285" y="1510" on="0"/>
        <pt x="1294" y="1482" on="1"/>
        <pt x="1292" y="1464" on="0"/>
        <pt x="1293" y="1402" on="0"/>
        <pt x="1292" y="1384" on="1"/>
        <pt x="1292" y="1334" on="1"/>
        <pt x="1282" y="1027" on="0"/>
        <pt x="1282" y="786" on="1"/>
        <pt x="1282" y="472" on="1"/>
        <pt x="1282" y="384" on="0"/>
        <pt x="1234" y="234" on="0"/>
        <pt x="1154" y="128" on="0"/>
        <pt x="1043" y="43" on="0"/>
        <pt x="925" y="-9" on="0"/>
        <pt x="794" y="-43" on="0"/>
        <pt x="679" y="-56" on="0"/>
      </contour>
    </TTGlyph>
    <TTGlyph name="Jcircumflex" xMin="-24" yMin="-56" xMax="1418" yMax="2062">
      <component glyphName="circumflex" x="558" y="308" flags="0x4"/>
      <component glyphName="J" x="0" y="0" flags="0x4"/>
    </TTGlyph>
    <TTGlyph name="K" xMin="100" yMin="-32" xMax="1685" yMax="1516">
      <contour>
        <pt x="160" y="-32" on="1"/>
        <pt x="138" y="-32" on="0"/>
        <pt x="115" y="-23" on="0"/>
        <pt x="108" y="-11" on="0"/>
        <pt x="100" y="6" on="1"/>
        <pt x="100" y="1428" on="1"/>
        <pt x="100" y="1450" on="0"/>
        <pt x="101" y="1470" on="0"/>
        <pt x="107" y="1497" on="0"/>
        <pt x="120" y="1508" on="0"/>
        <pt x="144" y="1516" on="0"/>
        <pt x="162" y="1516" on="1"/>
        <pt x="572" y="1516" on="1"/>
        <pt x="716" y="1516" on="0"/>
        <pt x="716" y="1480" on="1"/>
        <pt x="716" y="1478" on="1"/>
        <pt x="712" y="1106" on="0"/>
        <pt x="712" y="924" on="1"/>
        <pt x="993" y="1509" on="1"/>
        <pt x="1200" y="1508" on="1"/>
        <pt x="1624" y="1508" on="0"/>
        <pt x="1624" y="1488" on="1"/>
        <pt x="1624" y="1484" on="0"/>
        <pt x="1620" y="1484" on="1"/>
        <pt x="1426" y="1134" on="0"/>
        <pt x="1226" y="788" on="1"/>
        <pt x="1226" y="760" on="1"/>
        <pt x="1267" y="734" on="1"/>
        <pt x="1685" y="15" on="1"/>
        <pt x="1685" y="-1" on="0"/>
        <pt x="1662" y="-20" on="1"/>
        <pt x="1020" y="-20" on="1"/>
        <pt x="734" y="538" on="1"/>
        <pt x="728" y="483" on="0"/>
        <pt x="722" y="273" on="0"/>
        <pt x="720" y="240" on="1"/>
        <pt x="720" y="4" on="1"/>
        <pt x="713" y="-32" on="0"/>
        <pt x="600" y="-32" on="1"/>
      </contour>
    </TTGlyph>
    <TTGlyph name="L" xMin="102" yMin="-28" xMax="1266" yMax="1520">
      <contour>
        <pt x="102" y="1336" on="1"/>
        <pt x="102" y="1499" on="0"/>
        <pt x="136" y="1518" on="1"/>
        <pt x="146" y="1516" on="0"/>
        <pt x="164" y="1516" on="1"/>
        <pt x="196" y="1516" on="1"/>
        <pt x="227" y="1516" on="0"/>
        <pt x="369" y="1520" on="0"/>
        <pt x="406" y="1520" on="1"/>
        <pt x="548" y="1520" on="0"/>
        <pt x="723" y="1497" on="0"/>
        <pt x="734" y="1466" on="1"/>
        <pt x="722" y="434" on="1"/>
        <pt x="744" y="434" on="1"/>
        <pt x="824" y="438" on="0"/>
        <pt x="888" y="437" on="0"/>
        <pt x="1059" y="430" on="0"/>
        <pt x="1138" y="430" on="1"/>
        <pt x="1203" y="430" on="0"/>
        <pt x="1266" y="415" on="0"/>
        <pt x="1266" y="392" on="1"/>
        <pt x="1266" y="8" on="1"/>
        <pt x="1253" y="-28" on="0"/>
        <pt x="820" y="-28" on="1"/>
        <pt x="128" y="-28" on="1"/>
        <pt x="104" y="7" on="0"/>
        <pt x="104" y="84" on="1"/>
        <pt x="104" y="368" on="1"/>
        <pt x="104" y="493" on="0"/>
        <pt x="108" y="983" on="0"/>
        <pt x="108" y="1108" on="1"/>
        <pt x="108" y="1131" on="0"/>
        <pt x="102" y="1289" on="0"/>
      </contour>
    </TTGlyph>
    <TTGlyph name="Lacute" xMin="102" yMin="-28" xMax="1266" yMax="2067">
      <component glyphName="acute" x="296" y="298" flags="0x4"/>
      <component glyphName="L" x="0" y="0" flags="0x4"/>
    </TTGlyph>
    <TTGlyph name="Lcaron" xMin="102" yMin="-28" xMax="2096" yMax="1548">
      <component glyphName="comma" x="1426" y="1104" flags="0x4"/>
      <component glyphName="L" x="0" y="0" flags="0x4"/>
    </TTGlyph>
    <TTGlyph name="Lslash" xMin="-78" yMin="-28" xMax="1264" yMax="1520">
      <contour>
        <pt x="-64" y="826" on="1"/>
        <pt x="20" y="856" on="1"/>
        <pt x="20" y="856" on="0"/>
        <pt x="104" y="884" on="1"/>
        <pt x="104" y="928" on="1"/>
        <pt x="104" y="956" on="0"/>
        <pt x="106" y="1076" on="0"/>
        <pt x="106" y="1108" on="1"/>
        <pt x="106" y="1131" on="0"/>
        <pt x="100" y="1289" on="0"/>
        <pt x="100" y="1336" on="1"/>
        <pt x="100" y="1500" on="0"/>
        <pt x="136" y="1518" on="1"/>
        <pt x="146" y="1516" on="0"/>
        <pt x="164" y="1516" on="1"/>
        <pt x="196" y="1516" on="1"/>
        <pt x="228" y="1516" on="0"/>
        <pt x="365" y="1520" on="0"/>
        <pt x="404" y="1520" on="1"/>
        <pt x="720" y="1520" on="0"/>
        <pt x="732" y="1466" on="1"/>
        <pt x="732" y="1438" on="0"/>
        <pt x="732" y="1375" on="0"/>
        <pt x="731" y="1318" on="0"/>
        <pt x="731" y="1254" on="0"/>
        <pt x="731" y="1198" on="0"/>
        <pt x="731" y="1134" on="0"/>
        <pt x="731" y="1106" on="1"/>
        <pt x="913" y="1175" on="1"/>
        <pt x="922" y="1175" on="0"/>
        <pt x="938" y="1157" on="0"/>
        <pt x="952" y="1125" on="0"/>
        <pt x="963" y="1095" on="0"/>
        <pt x="975" y="1060" on="0"/>
        <pt x="978" y="1052" on="1"/>
        <pt x="1024" y="933" on="1"/>
        <pt x="1024" y="923" on="0"/>
        <pt x="1011" y="903" on="0"/>
        <pt x="998" y="900" on="1"/>
        <pt x="717" y="799" on="1"/>
        <pt x="720" y="434" on="1"/>
        <pt x="742" y="434" on="1"/>
        <pt x="824" y="438" on="0"/>
        <pt x="888" y="437" on="0"/>
        <pt x="1057" y="430" on="0"/>
        <pt x="1136" y="430" on="1"/>
        <pt x="1202" y="430" on="0"/>
        <pt x="1264" y="415" on="0"/>
        <pt x="1264" y="392" on="1"/>
        <pt x="1264" y="8" on="1"/>
        <pt x="1251" y="-28" on="0"/>
        <pt x="820" y="-28" on="1"/>
        <pt x="128" y="-28" on="1"/>
        <pt x="104" y="7" on="0"/>
        <pt x="104" y="84" on="1"/>
        <pt x="104" y="572" on="1"/>
        <pt x="38" y="548" on="1"/>
        <pt x="31" y="551" on="0"/>
        <pt x="1" y="559" on="0"/>
        <pt x="-6" y="562" on="1"/>
        <pt x="-36" y="648" on="1"/>
        <pt x="-38" y="656" on="0"/>
        <pt x="-78" y="772" on="0"/>
        <pt x="-78" y="820" on="0"/>
      </contour>
    </TTGlyph>
    <TTGlyph name="M" xMin="122" yMin="-28" xMax="2115" yMax="1515">
      <contour>
        <pt x="2108" y="374" on="1"/>
        <pt x="2108" y="356" on="0"/>
        <pt x="2112" y="281" on="0"/>
        <pt x="2114" y="213" on="0"/>
        <pt x="2115" y="130" on="0"/>
        <pt x="2108" y="63" on="0"/>
        <pt x="2094" y="4" on="0"/>
        <pt x="2065" y="-28" on="0"/>
        <pt x="2044" y="-28" on="1"/>
        <pt x="1588" y="-28" on="1"/>
        <pt x="1540" y="9" on="0"/>
        <pt x="1540" y="248" on="1"/>
        <pt x="1540" y="335" on="0"/>
        <pt x="1542" y="580" on="0"/>
        <pt x="1542" y="632" on="1"/>
        <pt x="1542" y="702" on="1"/>
        <pt x="1542" y="711" on="0"/>
        <pt x="1539" y="762" on="0"/>
        <pt x="1540" y="776" on="1"/>
        <pt x="1500" y="631" on="0"/>
        <pt x="1384" y="91" on="0"/>
        <pt x="1362" y="0" on="1"/>
        <pt x="1352" y="-28" on="0"/>
        <pt x="1270" y="-28" on="1"/>
        <pt x="916" y="-28" on="1"/>
        <pt x="851" y="-28" on="0"/>
        <pt x="840" y="6" on="1"/>
        <pt x="744" y="424" on="1"/>
        <pt x="731" y="488" on="0"/>
        <pt x="700" y="626" on="0"/>
        <pt x="658" y="802" on="0"/>
        <pt x="648" y="844" on="1"/>
        <pt x="636" y="524" on="0"/>
        <pt x="636" y="356" on="1"/>
        <pt x="636" y="180" on="1"/>
        <pt x="636" y="62" on="0"/>
        <pt x="638" y="2" on="1"/>
        <pt x="632" y="-20" on="0"/>
        <pt x="616" y="-20" on="1"/>
        <pt x="522" y="-20" on="1"/>
        <pt x="463" y="-20" on="0"/>
        <pt x="235" y="-22" on="0"/>
        <pt x="176" y="-22" on="1"/>
        <pt x="122" y="-22" on="0"/>
        <pt x="122" y="-4" on="1"/>
        <pt x="122" y="1480" on="1"/>
        <pt x="122" y="1489" on="0"/>
        <pt x="131" y="1502" on="0"/>
        <pt x="150" y="1509" on="0"/>
        <pt x="168" y="1513" on="0"/>
        <pt x="196" y="1514" on="0"/>
        <pt x="214" y="1515" on="0"/>
        <pt x="242" y="1514" on="0"/>
        <pt x="246" y="1514" on="1"/>
        <pt x="364" y="1514" on="1"/>
        <pt x="649" y="1514" on="0"/>
        <pt x="882" y="1498" on="0"/>
        <pt x="944" y="1498" on="1"/>
        <pt x="968" y="1364" on="0"/>
        <pt x="1020" y="1100" on="1"/>
        <pt x="1096" y="702" on="1"/>
        <pt x="1256" y="1510" on="1"/>
        <pt x="1256" y="1510" on="0"/>
        <pt x="1272" y="1506" on="0"/>
        <pt x="1276" y="1506" on="1"/>
        <pt x="1383" y="1506" on="0"/>
        <pt x="1801" y="1512" on="0"/>
        <pt x="1908" y="1512" on="1"/>
        <pt x="2056" y="1512" on="1"/>
        <pt x="2084" y="1509" on="0"/>
        <pt x="2084" y="1456" on="1"/>
        <pt x="2106" y="487" on="0"/>
      </contour>
    </TTGlyph>
    <TTGlyph name="N" xMin="78" yMin="-28" xMax="1614" yMax="1508">
      <contour>
        <pt x="80" y="-4" on="1"/>
        <pt x="80" y="448" on="1"/>
        <pt x="78" y="696" on="0"/>
        <pt x="96" y="1394" on="1"/>
        <pt x="96" y="1476" on="1"/>
        <pt x="96" y="1498" on="0"/>
        <pt x="104" y="1502" on="1"/>
        <pt x="792" y="1502" on="1"/>
        <pt x="802" y="1502" on="0"/>
        <pt x="863" y="1350" on="0"/>
        <pt x="950" y="1111" on="0"/>
        <pt x="968" y="1066" on="1"/>
        <pt x="1108" y="700" on="1"/>
        <pt x="1108" y="1088" on="1"/>
        <pt x="1108" y="1138" on="0"/>
        <pt x="1113" y="1405" on="0"/>
        <pt x="1112" y="1480" on="1"/>
        <pt x="1112" y="1508" on="0"/>
        <pt x="1272" y="1508" on="1"/>
        <pt x="1322" y="1508" on="0"/>
        <pt x="1496" y="1504" on="0"/>
        <pt x="1516" y="1504" on="1"/>
        <pt x="1592" y="1504" on="1"/>
        <pt x="1608" y="1504" on="0"/>
        <pt x="1608" y="1498" on="1"/>
        <pt x="1614" y="1220" on="0"/>
        <pt x="1614" y="702" on="1"/>
        <pt x="1614" y="8" on="1"/>
        <pt x="1607" y="-18" on="0"/>
        <pt x="1550" y="-18" on="1"/>
        <pt x="1524" y="-18" on="1"/>
        <pt x="1472" y="-18" on="0"/>
        <pt x="1270" y="-22" on="0"/>
        <pt x="1218" y="-22" on="1"/>
        <pt x="924" y="-22" on="1"/>
        <pt x="910" y="-17" on="0"/>
        <pt x="866" y="104" on="1"/>
        <pt x="819" y="235" on="0"/>
        <pt x="633" y="731" on="0"/>
        <pt x="622" y="760" on="1"/>
        <pt x="622" y="701" on="0"/>
        <pt x="620" y="467" on="0"/>
        <pt x="620" y="408" on="1"/>
        <pt x="620" y="364" on="0"/>
        <pt x="624" y="188" on="0"/>
        <pt x="624" y="144" on="1"/>
        <pt x="624" y="18" on="1"/>
        <pt x="624" y="-28" on="0"/>
        <pt x="584" y="-28" on="1"/>
        <pt x="124" y="-28" on="1"/>
      </contour>
      <contour>
        <pt x="1608" y="1500" on="1"/>
        <pt x="1608" y="1496" on="1"/>
      </contour>
    </TTGlyph>
    <TTGlyph name="Nacute" xMin="78" yMin="-28" xMax="1614" yMax="2067">
      <component glyphName="acute" x="460" y="298" flags="0x4"/>
      <component glyphName="N" x="0" y="0" flags="0x4"/>
    </TTGlyph>
    <TTGlyph name="Ncaron" xMin="78" yMin="-28" xMax="1614" yMax="2064">
      <component glyphName="caron" x="493" y="312" flags="0x4"/>
      <component glyphName="N" x="0" y="0" flags="0x4"/>
    </TTGlyph>
    <TTGlyph name="Ntilde" xMin="78" yMin="-28" xMax="1614" yMax="2212">
      <component glyphName="tilde" x="526" y="464" flags="0x4"/>
      <component glyphName="N" x="0" y="0" flags="0x4"/>
    </TTGlyph>
    <TTGlyph name="O" xMin="24" yMin="-56" xMax="1599" yMax="1550">
      <contour>
        <pt x="24" y="752" on="1"/>
        <pt x="24" y="862" on="1"/>
        <pt x="34" y="1002" on="0"/>
        <pt x="136" y="1233" on="0"/>
        <pt x="293" y="1391" on="0"/>
        <pt x="499" y="1500" on="0"/>
        <pt x="724" y="1550" on="0"/>
        <pt x="844" y="1550" on="1"/>
        <pt x="910" y="1550" on="0"/>
        <pt x="1053" y="1528" on="0"/>
        <pt x="1213" y="1480" on="0"/>
        <pt x="1360" y="1387" on="0"/>
        <pt x="1408" y="1324" on="1"/>
        <pt x="1507" y="1203" on="0"/>
        <pt x="1596" y="938" on="0"/>
        <pt x="1596" y="776" on="1"/>
        <pt x="1599" y="438" on="0"/>
        <pt x="1448" y="232" on="1"/>
        <pt x="1404" y="172" on="1"/>
        <pt x="1346" y="92" on="0"/>
        <pt x="1130" y="-15" on="0"/>
        <pt x="914" y="-56" on="0"/>
        <pt x="804" y="-56" on="1"/>
        <pt x="675" y="-56" on="0"/>
        <pt x="457" y="-4" on="0"/>
        <pt x="299" y="84" on="0"/>
        <pt x="175" y="210" on="0"/>
        <pt x="96" y="350" on="0"/>
        <pt x="45" y="514" on="0"/>
        <pt x="24" y="670" on="0"/>
      </contour>
      <contour>
        <pt x="820" y="1148" on="1"/>
        <pt x="779" y="1148" on="0"/>
        <pt x="714" y="1110" on="0"/>
        <pt x="673" y="1056" on="0"/>
        <pt x="643" y="965" on="0"/>
        <pt x="629" y="892" on="0"/>
        <pt x="621" y="781" on="0"/>
        <pt x="620" y="720" on="0"/>
        <pt x="620" y="672" on="1"/>
        <pt x="620" y="626" on="0"/>
        <pt x="627" y="543" on="0"/>
        <pt x="650" y="450" on="0"/>
        <pt x="687" y="381" on="0"/>
        <pt x="752" y="334" on="0"/>
        <pt x="794" y="332" on="1"/>
        <pt x="838" y="332" on="0"/>
        <pt x="906" y="361" on="0"/>
        <pt x="952" y="406" on="0"/>
        <pt x="984" y="482" on="0"/>
        <pt x="1001" y="552" on="0"/>
        <pt x="1010" y="656" on="0"/>
        <pt x="1012" y="731" on="0"/>
        <pt x="1012" y="788" on="1"/>
        <pt x="1012" y="830" on="0"/>
        <pt x="1007" y="902" on="0"/>
        <pt x="995" y="990" on="0"/>
        <pt x="967" y="1057" on="0"/>
        <pt x="927" y="1116" on="0"/>
        <pt x="862" y="1148" on="0"/>
      </contour>
    </TTGlyph>
    <TTGlyph name="OE" xMin="32" yMin="-8" xMax="1960" yMax="1494">
      <contour>
        <pt x="824" y="-8" on="1"/>
        <pt x="460" y="-8" on="0"/>
        <pt x="32" y="382" on="0"/>
        <pt x="32" y="716" on="1"/>
        <pt x="32" y="788" on="0"/>
        <pt x="50" y="938" on="0"/>
        <pt x="94" y="1102" on="0"/>
        <pt x="161" y="1241" on="0"/>
        <pt x="266" y="1358" on="0"/>
        <pt x="332" y="1388" on="1"/>
        <pt x="428" y="1444" on="1"/>
        <pt x="493" y="1466" on="0"/>
        <pt x="659" y="1490" on="0"/>
        <pt x="775" y="1494" on="0"/>
        <pt x="864" y="1494" on="1"/>
        <pt x="1960" y="1494" on="1"/>
        <pt x="1960" y="1094" on="1"/>
        <pt x="1928" y="1056" on="1"/>
        <pt x="1867" y="1059" on="0"/>
        <pt x="1726" y="1061" on="0"/>
        <pt x="1554" y="1061" on="0"/>
        <pt x="1508" y="1062" on="1"/>
        <pt x="1508" y="960" on="1"/>
        <pt x="1598" y="960" on="1"/>
        <pt x="1650" y="960" on="0"/>
        <pt x="1821" y="966" on="0"/>
        <pt x="1842" y="966" on="1"/>
        <pt x="1887" y="966" on="0"/>
        <pt x="1910" y="940" on="0"/>
        <pt x="1910" y="892" on="1"/>
        <pt x="1910" y="835" on="0"/>
        <pt x="1908" y="604" on="0"/>
        <pt x="1908" y="552" on="1"/>
        <pt x="1905" y="528" on="0"/>
        <pt x="1880" y="522" on="1"/>
        <pt x="1756" y="522" on="0"/>
        <pt x="1500" y="526" on="1"/>
        <pt x="1500" y="408" on="1"/>
        <pt x="1932" y="408" on="1"/>
        <pt x="1952" y="405" on="0"/>
        <pt x="1958" y="384" on="1"/>
        <pt x="1958" y="-8" on="1"/>
      </contour>
      <contour>
        <pt x="606" y="740" on="1"/>
        <pt x="609" y="722" on="0"/>
        <pt x="610" y="631" on="0"/>
        <pt x="611" y="543" on="0"/>
        <pt x="631" y="439" on="0"/>
        <pt x="669" y="362" on="0"/>
        <pt x="752" y="310" on="0"/>
        <pt x="812" y="310" on="1"/>
        <pt x="873" y="310" on="0"/>
        <pt x="932" y="338" on="1"/>
        <pt x="932" y="368" on="1"/>
        <pt x="927" y="449" on="0"/>
        <pt x="936" y="840" on="0"/>
        <pt x="934" y="926" on="1"/>
        <pt x="934" y="1124" on="1"/>
        <pt x="934" y="1128" on="0"/>
        <pt x="899" y="1140" on="0"/>
        <pt x="846" y="1152" on="0"/>
        <pt x="836" y="1156" on="1"/>
        <pt x="808" y="1156" on="1"/>
        <pt x="762" y="1156" on="0"/>
        <pt x="691" y="1116" on="0"/>
        <pt x="649" y="1042" on="0"/>
        <pt x="621" y="964" on="0"/>
        <pt x="610" y="858" on="0"/>
        <pt x="606" y="786" on="0"/>
      </contour>
      <contour>
        <pt x="862" y="380" on="1"/>
        <pt x="863" y="380" on="0"/>
        <pt x="861" y="384" on="0"/>
        <pt x="862" y="384" on="1"/>
      </contour>
    </TTGlyph>
    <TTGlyph name="Oacute" xMin="24" yMin="-56" xMax="1599" yMax="2041">
      <component glyphName="acute" x="418" y="272" flags="0x4"/>
      <component glyphName="O" x="0" y="0" flags="0x4"/>
    </TTGlyph>
    <TTGlyph name="Ocircumflex" xMin="24" yMin="-56" xMax="1599" yMax="2038">
      <component glyphName="circumflex" x="471" y="284" flags="0x4"/>
      <component glyphName="O" x="0" y="0" flags="0x4"/>
    </TTGlyph>
    <TTGlyph name="Odieresis" xMin="24" yMin="-56" xMax="1599" yMax="2248">
      <component glyphName="dieresis" x="498" y="464" flags="0x4"/>
      <component glyphName="O" x="0" y="0" flags="0x4"/>
    </TTGlyph>
    <TTGlyph name="Ograve" xMin="24" yMin="-56" xMax="1599" yMax="2056">
      <component glyphName="grave" x="512" y="268" flags="0x4"/>
      <component glyphName="O" x="0" y="0" flags="0x4"/>
    </TTGlyph>
    <TTGlyph name="Ohungarumlaut" xMin="24" yMin="-56" xMax="1599" yMax="2067">
      <component glyphName="hungarumlaut" x="420" y="300" flags="0x4"/>
      <component glyphName="O" x="0" y="0" flags="0x4"/>
    </TTGlyph>
    <TTGlyph name="Omega" xMin="52" yMin="-29" xMax="1780" yMax="1548">
      <contour>
        <pt x="1300" y="-28" on="1"/>
        <pt x="1294" y="-28" on="0"/>
        <pt x="1237" y="-29" on="0"/>
        <pt x="1184" y="-29" on="0"/>
        <pt x="1111" y="-28" on="0"/>
        <pt x="1052" y="-24" on="0"/>
        <pt x="998" y="-17" on="0"/>
        <pt x="968" y="-5" on="0"/>
        <pt x="968" y="4" on="1"/>
        <pt x="968" y="264" on="1"/>
        <pt x="1112" y="365" on="0"/>
        <pt x="1248" y="592" on="0"/>
        <pt x="1248" y="762" on="1"/>
        <pt x="1248" y="819" on="0"/>
        <pt x="1227" y="930" on="0"/>
        <pt x="1178" y="1035" on="0"/>
        <pt x="1108" y="1114" on="0"/>
        <pt x="1001" y="1162" on="0"/>
        <pt x="936" y="1162" on="1"/>
        <pt x="785" y="1162" on="0"/>
        <pt x="600" y="949" on="0"/>
        <pt x="600" y="776" on="1"/>
        <pt x="600" y="642" on="0"/>
        <pt x="706" y="403" on="0"/>
        <pt x="810" y="320" on="1"/>
        <pt x="844" y="320" on="1"/>
        <pt x="860" y="311" on="0"/>
        <pt x="886" y="270" on="0"/>
        <pt x="888" y="258" on="1"/>
        <pt x="888" y="-16" on="1"/>
        <pt x="84" y="-16" on="1"/>
        <pt x="65" y="-12" on="0"/>
        <pt x="52" y="18" on="0"/>
        <pt x="52" y="48" on="1"/>
        <pt x="52" y="96" on="0"/>
        <pt x="56" y="280" on="0"/>
        <pt x="56" y="328" on="1"/>
        <pt x="56" y="359" on="0"/>
        <pt x="84" y="368" on="1"/>
        <pt x="320" y="368" on="1"/>
        <pt x="200" y="476" on="0"/>
        <pt x="84" y="703" on="0"/>
        <pt x="84" y="844" on="1"/>
        <pt x="84" y="999" on="0"/>
        <pt x="219" y="1266" on="0"/>
        <pt x="446" y="1446" on="0"/>
        <pt x="746" y="1548" on="0"/>
        <pt x="910" y="1548" on="1"/>
        <pt x="1034" y="1548" on="0"/>
        <pt x="1276" y="1493" on="0"/>
        <pt x="1493" y="1379" on="0"/>
        <pt x="1659" y="1222" on="0"/>
        <pt x="1756" y="1001" on="0"/>
        <pt x="1756" y="874" on="1"/>
        <pt x="1756" y="570" on="0"/>
        <pt x="1480" y="352" on="1"/>
        <pt x="1524" y="352" on="0"/>
        <pt x="1699" y="354" on="0"/>
        <pt x="1744" y="354" on="1"/>
        <pt x="1780" y="354" on="0"/>
        <pt x="1780" y="306" on="1"/>
        <pt x="1780" y="296" on="0"/>
        <pt x="1776" y="268" on="0"/>
        <pt x="1776" y="264" on="1"/>
        <pt x="1776" y="255" on="0"/>
        <pt x="1778" y="173" on="0"/>
        <pt x="1778" y="146" on="1"/>
        <pt x="1778" y="-12" on="0"/>
        <pt x="1766" y="-12" on="1"/>
        <pt x="1758" y="-12" on="0"/>
        <pt x="1752" y="-6" on="1"/>
        <pt x="1546" y="-28" on="0"/>
      </contour>
    </TTGlyph>
    <TTGlyph name="Oslash" xMin="24" yMin="-181" xMax="1599" yMax="1633">
      <contour>
        <pt x="288" y="-180" on="1"/>
        <pt x="288" y="-180" on="0"/>
        <pt x="288" y="-174" on="1"/>
        <pt x="277" y="-174" on="0"/>
        <pt x="225" y="-155" on="0"/>
        <pt x="209" y="-147" on="1"/>
        <pt x="342" y="63" on="1"/>
        <pt x="24" y="270" on="0"/>
        <pt x="24" y="752" on="1"/>
        <pt x="24" y="862" on="1"/>
        <pt x="34" y="1002" on="0"/>
        <pt x="136" y="1233" on="0"/>
        <pt x="293" y="1391" on="0"/>
        <pt x="499" y="1500" on="0"/>
        <pt x="724" y="1550" on="0"/>
        <pt x="844" y="1550" on="1"/>
        <pt x="1052" y="1550" on="0"/>
        <pt x="1240" y="1460" on="1"/>
        <pt x="1352" y="1633" on="1"/>
        <pt x="1361" y="1633" on="0"/>
        <pt x="1426" y="1597" on="0"/>
        <pt x="1426" y="1586" on="1"/>
        <pt x="1426" y="1564" on="0"/>
        <pt x="1358" y="1458" on="1"/>
        <pt x="1324" y="1406" on="1"/>
        <pt x="1465" y="1302" on="0"/>
        <pt x="1596" y="966" on="0"/>
        <pt x="1596" y="776" on="1"/>
        <pt x="1599" y="438" on="0"/>
        <pt x="1448" y="232" on="1"/>
        <pt x="1404" y="172" on="1"/>
        <pt x="1346" y="92" on="0"/>
        <pt x="1130" y="-15" on="0"/>
        <pt x="914" y="-56" on="0"/>
        <pt x="804" y="-56" on="1"/>
        <pt x="590" y="-56" on="0"/>
        <pt x="438" y="8" on="1"/>
        <pt x="382" y="-80" on="1"/>
        <pt x="351" y="-128" on="0"/>
        <pt x="306" y="-181" on="0"/>
      </contour>
      <contour>
        <pt x="820" y="1148" on="1"/>
        <pt x="779" y="1148" on="0"/>
        <pt x="714" y="1110" on="0"/>
        <pt x="673" y="1056" on="0"/>
        <pt x="643" y="965" on="0"/>
        <pt x="629" y="892" on="0"/>
        <pt x="621" y="781" on="0"/>
        <pt x="620" y="720" on="0"/>
        <pt x="620" y="672" on="1"/>
        <pt x="620" y="597" on="0"/>
        <pt x="632" y="516" on="1"/>
        <pt x="972" y="1044" on="1"/>
        <pt x="923" y="1148" on="0"/>
      </contour>
      <contour>
        <pt x="684" y="392" on="1"/>
        <pt x="724" y="332" on="0"/>
        <pt x="794" y="332" on="1"/>
        <pt x="838" y="332" on="0"/>
        <pt x="906" y="361" on="0"/>
        <pt x="952" y="406" on="0"/>
        <pt x="984" y="482" on="0"/>
        <pt x="1001" y="552" on="0"/>
        <pt x="1010" y="656" on="0"/>
        <pt x="1012" y="731" on="0"/>
        <pt x="1012" y="788" on="1"/>
        <pt x="1012" y="846" on="1"/>
        <pt x="1012" y="866" on="0"/>
        <pt x="1008" y="906" on="1"/>
      </contour>
    </TTGlyph>
    <TTGlyph name="Otilde" xMin="24" yMin="-56" xMax="1599" yMax="2022">
      <component glyphName="tilde" x="476" y="274" flags="0x4"/>
      <component glyphName="O" x="0" y="0" flags="0x4"/>
    </TTGlyph>
    <TTGlyph name="P" xMin="104" yMin="-24" xMax="1520" yMax="1492">
      <contour>
        <pt x="104" y="136" on="1"/>
        <pt x="104" y="1468" on="1"/>
        <pt x="104" y="1475" on="0"/>
        <pt x="117" y="1485" on="0"/>
        <pt x="145" y="1489" on="0"/>
        <pt x="166" y="1491" on="0"/>
        <pt x="205" y="1492" on="0"/>
        <pt x="212" y="1492" on="1"/>
        <pt x="1024" y="1492" on="1"/>
        <pt x="1124" y="1492" on="0"/>
        <pt x="1302" y="1429" on="0"/>
        <pt x="1440" y="1309" on="0"/>
        <pt x="1520" y="1119" on="0"/>
        <pt x="1520" y="1000" on="1"/>
        <pt x="1520" y="912" on="0"/>
        <pt x="1479" y="766" on="0"/>
        <pt x="1412" y="663" on="0"/>
        <pt x="1315" y="581" on="0"/>
        <pt x="1214" y="531" on="0"/>
        <pt x="1092" y="496" on="0"/>
        <pt x="989" y="480" on="0"/>
        <pt x="932" y="476" on="1"/>
        <pt x="740" y="476" on="1"/>
        <pt x="732" y="319" on="0"/>
        <pt x="732" y="124" on="1"/>
        <pt x="732" y="12" on="1"/>
        <pt x="729" y="-24" on="0"/>
        <pt x="698" y="-24" on="1"/>
        <pt x="130" y="-24" on="1"/>
        <pt x="104" y="45" on="0"/>
      </contour>
      <contour>
        <pt x="668" y="836" on="1"/>
        <pt x="700" y="792" on="1"/>
        <pt x="741" y="792" on="0"/>
        <pt x="816" y="804" on="0"/>
        <pt x="888" y="834" on="0"/>
        <pt x="940" y="881" on="0"/>
        <pt x="972" y="954" on="0"/>
        <pt x="972" y="1000" on="1"/>
        <pt x="972" y="1035" on="0"/>
        <pt x="953" y="1090" on="0"/>
        <pt x="926" y="1125" on="0"/>
        <pt x="879" y="1151" on="0"/>
        <pt x="838" y="1164" on="0"/>
        <pt x="775" y="1171" on="0"/>
        <pt x="734" y="1172" on="0"/>
        <pt x="702" y="1172" on="1"/>
        <pt x="668" y="1156" on="0"/>
      </contour>
    </TTGlyph>
    <TTGlyph name="Q" xMin="40" yMin="-68" xMax="1648" yMax="1550">
      <contour>
        <pt x="40" y="748" on="1"/>
        <pt x="40" y="918" on="0"/>
        <pt x="132" y="1192" on="0"/>
        <pt x="287" y="1374" on="0"/>
        <pt x="499" y="1497" on="0"/>
        <pt x="729" y="1550" on="0"/>
        <pt x="856" y="1550" on="1"/>
        <pt x="1030" y="1550" on="0"/>
        <pt x="1315" y="1432" on="0"/>
        <pt x="1502" y="1227" on="0"/>
        <pt x="1604" y="949" on="0"/>
        <pt x="1604" y="788" on="1"/>
        <pt x="1604" y="681" on="0"/>
        <pt x="1542" y="471" on="0"/>
        <pt x="1486" y="396" on="1"/>
        <pt x="1499" y="396" on="0"/>
        <pt x="1551" y="398" on="0"/>
        <pt x="1564" y="398" on="1"/>
        <pt x="1648" y="398" on="0"/>
        <pt x="1648" y="336" on="1"/>
        <pt x="1648" y="-4" on="1"/>
        <pt x="1647" y="-20" on="0"/>
        <pt x="1628" y="-38" on="0"/>
        <pt x="1608" y="-44" on="1"/>
        <pt x="1529" y="-30" on="0"/>
        <pt x="1332" y="-30" on="1"/>
        <pt x="1229" y="-30" on="0"/>
        <pt x="878" y="-68" on="0"/>
        <pt x="792" y="-68" on="1"/>
        <pt x="388" y="-68" on="0"/>
        <pt x="196" y="244" on="1"/>
        <pt x="116" y="324" on="0"/>
        <pt x="40" y="608" on="0"/>
      </contour>
      <contour>
        <pt x="620" y="728" on="1"/>
        <pt x="620" y="686" on="0"/>
        <pt x="621" y="632" on="0"/>
        <pt x="628" y="538" on="0"/>
        <pt x="642" y="474" on="0"/>
        <pt x="669" y="398" on="0"/>
        <pt x="708" y="352" on="0"/>
        <pt x="768" y="320" on="0"/>
        <pt x="806" y="320" on="1"/>
        <pt x="806" y="344" on="1"/>
        <pt x="806" y="348" on="0"/>
        <pt x="816" y="348" on="1"/>
        <pt x="821" y="348" on="0"/>
        <pt x="845" y="344" on="0"/>
        <pt x="850" y="344" on="1"/>
        <pt x="891" y="344" on="0"/>
        <pt x="952" y="389" on="0"/>
        <pt x="986" y="469" on="0"/>
        <pt x="1008" y="554" on="0"/>
        <pt x="1014" y="661" on="0"/>
        <pt x="1015" y="730" on="0"/>
        <pt x="1014" y="770" on="1"/>
        <pt x="1012" y="810" on="1"/>
        <pt x="1012" y="855" on="0"/>
        <pt x="1008" y="926" on="0"/>
        <pt x="996" y="1015" on="0"/>
        <pt x="969" y="1080" on="0"/>
        <pt x="930" y="1138" on="0"/>
        <pt x="865" y="1168" on="0"/>
        <pt x="824" y="1168" on="1"/>
        <pt x="782" y="1168" on="0"/>
        <pt x="714" y="1128" on="0"/>
        <pt x="671" y="1056" on="0"/>
        <pt x="641" y="971" on="0"/>
        <pt x="626" y="866" on="0"/>
        <pt x="620" y="777" on="0"/>
      </contour>
    </TTGlyph>
    <TTGlyph name="R" xMin="96" yMin="-34" xMax="1560" yMax="1504">
      <contour>
        <pt x="1552" y="-4" on="1"/>
        <pt x="1530" y="-26" on="0"/>
        <pt x="1389" y="-34" on="0"/>
        <pt x="1183" y="-22" on="0"/>
        <pt x="1176" y="-22" on="1"/>
        <pt x="1108" y="-22" on="0"/>
        <pt x="1078" y="-20" on="1"/>
        <pt x="978" y="-20" on="1"/>
        <pt x="956" y="-13" on="0"/>
        <pt x="926" y="104" on="0"/>
        <pt x="897" y="323" on="0"/>
        <pt x="896" y="330" on="1"/>
        <pt x="892" y="429" on="0"/>
        <pt x="836" y="492" on="0"/>
        <pt x="762" y="492" on="1"/>
        <pt x="718" y="492" on="1"/>
        <pt x="718" y="4" on="1"/>
        <pt x="716" y="-8" on="0"/>
        <pt x="678" y="-24" on="0"/>
        <pt x="607" y="-29" on="0"/>
        <pt x="552" y="-30" on="0"/>
        <pt x="462" y="-28" on="0"/>
        <pt x="452" y="-28" on="1"/>
        <pt x="308" y="-28" on="1"/>
        <pt x="186" y="-28" on="0"/>
        <pt x="124" y="-30" on="1"/>
        <pt x="110" y="-24" on="0"/>
        <pt x="96" y="-16" on="1"/>
        <pt x="96" y="1476" on="1"/>
        <pt x="96" y="1504" on="0"/>
        <pt x="176" y="1504" on="1"/>
        <pt x="1048" y="1504" on="1"/>
        <pt x="1275" y="1498" on="0"/>
        <pt x="1512" y="1294" on="0"/>
        <pt x="1512" y="1108" on="1"/>
        <pt x="1512" y="866" on="0"/>
        <pt x="1268" y="754" on="1"/>
        <pt x="1313" y="740" on="0"/>
        <pt x="1385" y="690" on="0"/>
        <pt x="1433" y="633" on="0"/>
        <pt x="1469" y="553" on="0"/>
        <pt x="1489" y="483" on="0"/>
        <pt x="1504" y="387" on="0"/>
        <pt x="1510" y="317" on="0"/>
        <pt x="1519" y="220" on="0"/>
        <pt x="1522" y="192" on="1"/>
        <pt x="1522" y="104" on="1"/>
        <pt x="1525" y="88" on="0"/>
        <pt x="1556" y="30" on="0"/>
        <pt x="1560" y="16" on="1"/>
        <pt x="1560" y="-4" on="0"/>
      </contour>
      <contour>
        <pt x="712" y="1080" on="1"/>
        <pt x="712" y="1020" on="0"/>
        <pt x="714" y="962" on="0"/>
        <pt x="734" y="868" on="0"/>
        <pt x="754" y="848" on="1"/>
        <pt x="796" y="848" on="0"/>
        <pt x="871" y="866" on="0"/>
        <pt x="941" y="906" on="0"/>
        <pt x="982" y="985" on="0"/>
        <pt x="982" y="1040" on="1"/>
        <pt x="982" y="1071" on="0"/>
        <pt x="960" y="1118" on="0"/>
        <pt x="918" y="1146" on="0"/>
        <pt x="877" y="1163" on="0"/>
        <pt x="818" y="1170" on="0"/>
        <pt x="784" y="1172" on="0"/>
        <pt x="760" y="1172" on="1"/>
        <pt x="736" y="1172" on="1"/>
        <pt x="721" y="1165" on="0"/>
        <pt x="712" y="1123" on="0"/>
      </contour>
    </TTGlyph>
    <TTGlyph name="Racute" xMin="96" yMin="-34" xMax="1560" yMax="2067">
      <component glyphName="acute" x="438" y="298" flags="0x4"/>
      <component glyphName="R" x="0" y="0" flags="0x4"/>
    </TTGlyph>
    <TTGlyph name="Rcaron" xMin="96" yMin="-34" xMax="1560" yMax="2064">
      <component glyphName="caron" x="471" y="312" flags="0x4"/>
      <component glyphName="R" x="0" y="0" flags="0x4"/>
    </TTGlyph>
    <TTGlyph name="S" xMin="40" yMin="-60" xMax="1464" yMax="1556">
      <contour>
        <pt x="728" y="-60" on="1"/>
        <pt x="610" y="-55" on="0"/>
        <pt x="422" y="-24" on="0"/>
        <pt x="247" y="45" on="0"/>
        <pt x="128" y="150" on="0"/>
        <pt x="49" y="314" on="0"/>
        <pt x="40" y="422" on="1"/>
        <pt x="40" y="441" on="0"/>
        <pt x="60" y="444" on="1"/>
        <pt x="66" y="442" on="0"/>
        <pt x="80" y="442" on="1"/>
        <pt x="163" y="442" on="0"/>
        <pt x="501" y="450" on="0"/>
        <pt x="584" y="450" on="1"/>
        <pt x="605" y="450" on="0"/>
        <pt x="629" y="423" on="0"/>
        <pt x="644" y="384" on="0"/>
        <pt x="665" y="345" on="0"/>
        <pt x="716" y="318" on="0"/>
        <pt x="756" y="318" on="1"/>
        <pt x="805" y="318" on="0"/>
        <pt x="880" y="373" on="0"/>
        <pt x="880" y="420" on="1"/>
        <pt x="880" y="451" on="0"/>
        <pt x="816" y="503" on="0"/>
        <pt x="711" y="536" on="0"/>
        <pt x="616" y="559" on="0"/>
        <pt x="516" y="576" on="0"/>
        <pt x="508" y="578" on="1"/>
        <pt x="265" y="644" on="0"/>
        <pt x="52" y="840" on="0"/>
        <pt x="52" y="1010" on="1"/>
        <pt x="52" y="1130" on="0"/>
        <pt x="140" y="1321" on="0"/>
        <pt x="282" y="1442" on="0"/>
        <pt x="476" y="1523" on="0"/>
        <pt x="674" y="1556" on="0"/>
        <pt x="780" y="1556" on="1"/>
        <pt x="1061" y="1556" on="0"/>
        <pt x="1228" y="1452" on="1"/>
        <pt x="1289" y="1391" on="0"/>
        <pt x="1346" y="1328" on="0"/>
        <pt x="1399" y="1244" on="0"/>
        <pt x="1420" y="1163" on="0"/>
        <pt x="1424" y="1104" on="1"/>
        <pt x="1388" y="1068" on="1"/>
        <pt x="1183" y="1060" on="0"/>
        <pt x="928" y="1060" on="1"/>
        <pt x="896" y="1060" on="0"/>
        <pt x="857" y="1074" on="0"/>
        <pt x="844" y="1096" on="0"/>
        <pt x="831" y="1120" on="0"/>
        <pt x="820" y="1142" on="0"/>
        <pt x="785" y="1156" on="0"/>
        <pt x="756" y="1156" on="1"/>
        <pt x="748" y="1156" on="0"/>
        <pt x="713" y="1150" on="0"/>
        <pt x="666" y="1137" on="0"/>
        <pt x="632" y="1110" on="0"/>
        <pt x="632" y="1092" on="1"/>
        <pt x="632" y="1070" on="0"/>
        <pt x="677" y="1034" on="0"/>
        <pt x="727" y="1018" on="0"/>
        <pt x="801" y="999" on="0"/>
        <pt x="810" y="996" on="1"/>
        <pt x="1028" y="941" on="0"/>
        <pt x="1070" y="928" on="1"/>
        <pt x="1289" y="859" on="0"/>
        <pt x="1380" y="747" on="1"/>
        <pt x="1464" y="643" on="0"/>
        <pt x="1464" y="486" on="1"/>
        <pt x="1464" y="391" on="0"/>
        <pt x="1415" y="235" on="0"/>
        <pt x="1335" y="127" on="0"/>
        <pt x="1215" y="43" on="0"/>
        <pt x="1092" y="-7" on="0"/>
        <pt x="936" y="-41" on="0"/>
        <pt x="805" y="-56" on="0"/>
      </contour>
    </TTGlyph>
    <TTGlyph name="Sacute" xMin="40" yMin="-60" xMax="1464" yMax="2073">
      <component glyphName="acute" x="364" y="304" flags="0x4"/>
      <component glyphName="S" x="0" y="0" flags="0x4"/>
    </TTGlyph>
    <TTGlyph name="Scaron" xMin="42" yMin="-56" xMax="1464" yMax="2222">
      <contour>
        <pt x="704" y="-56" on="1"/>
        <pt x="564" y="-56" on="0"/>
        <pt x="338" y="-3" on="0"/>
        <pt x="159" y="108" on="0"/>
        <pt x="53" y="295" on="0"/>
        <pt x="42" y="422" on="1"/>
        <pt x="42" y="444" on="0"/>
        <pt x="60" y="444" on="1"/>
        <pt x="66" y="442" on="0"/>
        <pt x="80" y="442" on="1"/>
        <pt x="162" y="442" on="0"/>
        <pt x="497" y="450" on="0"/>
        <pt x="584" y="450" on="1"/>
        <pt x="606" y="450" on="0"/>
        <pt x="630" y="423" on="0"/>
        <pt x="645" y="384" on="0"/>
        <pt x="665" y="345" on="0"/>
        <pt x="716" y="318" on="0"/>
        <pt x="756" y="318" on="1"/>
        <pt x="804" y="318" on="0"/>
        <pt x="880" y="372" on="0"/>
        <pt x="880" y="420" on="1"/>
        <pt x="880" y="491" on="0"/>
        <pt x="728" y="524" on="1"/>
        <pt x="654" y="524" on="1"/>
        <pt x="331" y="591" on="0"/>
        <pt x="54" y="818" on="0"/>
        <pt x="54" y="1014" on="1"/>
        <pt x="54" y="1099" on="0"/>
        <pt x="99" y="1246" on="0"/>
        <pt x="179" y="1355" on="0"/>
        <pt x="290" y="1442" on="0"/>
        <pt x="417" y="1500" on="0"/>
        <pt x="562" y="1539" on="0"/>
        <pt x="706" y="1556" on="0"/>
        <pt x="780" y="1556" on="1"/>
        <pt x="1020" y="1556" on="0"/>
        <pt x="1232" y="1450" on="1"/>
        <pt x="1291" y="1408" on="0"/>
        <pt x="1367" y="1325" on="0"/>
        <pt x="1405" y="1234" on="0"/>
        <pt x="1420" y="1161" on="0"/>
        <pt x="1424" y="1104" on="1"/>
        <pt x="1388" y="1068" on="1"/>
        <pt x="1164" y="1056" on="0"/>
        <pt x="1040" y="1056" on="1"/>
        <pt x="1015" y="1056" on="0"/>
        <pt x="915" y="1062" on="0"/>
        <pt x="890" y="1062" on="1"/>
        <pt x="868" y="1062" on="0"/>
        <pt x="847" y="1081" on="0"/>
        <pt x="840" y="1109" on="0"/>
        <pt x="828" y="1137" on="0"/>
        <pt x="790" y="1156" on="0"/>
        <pt x="756" y="1156" on="1"/>
        <pt x="726" y="1156" on="0"/>
        <pt x="630" y="1121" on="0"/>
        <pt x="630" y="1088" on="1"/>
        <pt x="630" y="1068" on="0"/>
        <pt x="670" y="1036" on="0"/>
        <pt x="747" y="1012" on="0"/>
        <pt x="796" y="1000" on="0"/>
        <pt x="836" y="992" on="1"/>
        <pt x="872" y="992" on="1"/>
        <pt x="938" y="976" on="0"/>
        <pt x="1028" y="952" on="0"/>
        <pt x="1162" y="905" on="0"/>
        <pt x="1255" y="855" on="0"/>
        <pt x="1359" y="776" on="0"/>
        <pt x="1422" y="686" on="0"/>
        <pt x="1464" y="559" on="0"/>
        <pt x="1464" y="486" on="1"/>
        <pt x="1464" y="387" on="0"/>
        <pt x="1410" y="225" on="0"/>
        <pt x="1322" y="115" on="0"/>
        <pt x="1195" y="31" on="0"/>
        <pt x="1064" y="-17" on="0"/>
        <pt x="907" y="-46" on="0"/>
        <pt x="776" y="-56" on="0"/>
      </contour>
      <contour>
        <pt x="264" y="2188" on="1"/>
        <pt x="264" y="2222" on="0"/>
        <pt x="356" y="2222" on="1"/>
        <pt x="372" y="2222" on="0"/>
        <pt x="425" y="2220" on="0"/>
        <pt x="432" y="2220" on="1"/>
        <pt x="520" y="2220" on="1"/>
        <pt x="598" y="2220" on="0"/>
        <pt x="682" y="2190" on="0"/>
        <pt x="704" y="2140" on="1"/>
        <pt x="744" y="2072" on="1"/>
        <pt x="759" y="2093" on="0"/>
        <pt x="817" y="2191" on="0"/>
        <pt x="832" y="2212" on="1"/>
        <pt x="1202" y="2212" on="1"/>
        <pt x="1217" y="2209" on="0"/>
        <pt x="1220" y="2190" on="1"/>
        <pt x="1220" y="2175" on="0"/>
        <pt x="1194" y="2130" on="1"/>
        <pt x="1148" y="2068" on="1"/>
        <pt x="1132" y="2044" on="0"/>
        <pt x="1075" y="1944" on="0"/>
        <pt x="1037" y="1884" on="0"/>
        <pt x="971" y="1826" on="0"/>
        <pt x="934" y="1820" on="1"/>
        <pt x="884" y="1811" on="0"/>
        <pt x="727" y="1807" on="0"/>
        <pt x="593" y="1810" on="0"/>
        <pt x="520" y="1808" on="1"/>
        <pt x="462" y="1851" on="0"/>
        <pt x="396" y="1972" on="1"/>
        <pt x="360" y="2028" on="1"/>
        <pt x="357" y="2031" on="0"/>
        <pt x="352" y="2038" on="0"/>
        <pt x="346" y="2047" on="0"/>
        <pt x="344" y="2050" on="1"/>
        <pt x="341" y="2057" on="0"/>
        <pt x="264" y="2168" on="0"/>
      </contour>
    </TTGlyph>
    <TTGlyph name="Scedilla" xMin="40" yMin="-596" xMax="1464" yMax="1556">
      <component glyphName="cedilla" x="448" y="-80" flags="0x4"/>
      <component glyphName="S" x="0" y="0" flags="0x4"/>
    </TTGlyph>
    <TTGlyph name="Scircumflex" xMin="40" yMin="-60" xMax="1464" yMax="2068">
      <component glyphName="circumflex" x="391" y="314" flags="0x4"/>
      <component glyphName="S" x="0" y="0" flags="0x4"/>
    </TTGlyph>
    <TTGlyph name="Scommaaccent" xMin="40" yMin="-876" xMax="1464" yMax="1556">
      <component glyphName="uni0326" x="330" y="0" flags="0x4"/>
      <component glyphName="S" x="0" y="0" flags="0x4"/>
    </TTGlyph>
    <TTGlyph name="T" xMin="-16" yMin="-28" xMax="1332" yMax="1504">
      <contour>
        <pt x="-16" y="1198" on="1"/>
        <pt x="-16" y="1216" on="0"/>
        <pt x="-12" y="1287" on="0"/>
        <pt x="-12" y="1300" on="1"/>
        <pt x="-12" y="1305" on="0"/>
        <pt x="-16" y="1367" on="0"/>
        <pt x="-16" y="1390" on="1"/>
        <pt x="-16" y="1496" on="0"/>
        <pt x="4" y="1496" on="1"/>
        <pt x="12" y="1496" on="0"/>
        <pt x="18" y="1494" on="1"/>
        <pt x="227" y="1494" on="0"/>
        <pt x="1048" y="1504" on="0"/>
        <pt x="1252" y="1504" on="1"/>
        <pt x="1303" y="1504" on="0"/>
        <pt x="1330" y="1486" on="0"/>
        <pt x="1330" y="1460" on="1"/>
        <pt x="1330" y="1432" on="1"/>
        <pt x="1330" y="1380" on="0"/>
        <pt x="1332" y="1177" on="0"/>
        <pt x="1332" y="1124" on="1"/>
        <pt x="1332" y="1072" on="0"/>
        <pt x="1304" y="1072" on="1"/>
        <pt x="1248" y="1072" on="0"/>
        <pt x="1026" y="1076" on="0"/>
        <pt x="970" y="1076" on="1"/>
        <pt x="970" y="4" on="1"/>
        <pt x="963" y="-26" on="0"/>
        <pt x="936" y="-28" on="1"/>
        <pt x="901" y="-28" on="0"/>
        <pt x="767" y="-26" on="0"/>
        <pt x="732" y="-26" on="1"/>
        <pt x="730" y="-26" on="0"/>
        <pt x="728" y="-28" on="1"/>
        <pt x="684" y="-28" on="0"/>
        <pt x="525" y="-26" on="0"/>
        <pt x="486" y="-26" on="1"/>
        <pt x="426" y="-26" on="1"/>
        <pt x="406" y="-28" on="0"/>
        <pt x="368" y="-28" on="1"/>
        <pt x="328" y="20" on="1"/>
        <pt x="328" y="172" on="0"/>
        <pt x="348" y="772" on="0"/>
        <pt x="348" y="924" on="1"/>
        <pt x="348" y="931" on="0"/>
        <pt x="347" y="963" on="0"/>
        <pt x="347" y="983" on="0"/>
        <pt x="344" y="1013" on="0"/>
        <pt x="337" y="1032" on="0"/>
        <pt x="327" y="1051" on="0"/>
        <pt x="310" y="1060" on="0"/>
        <pt x="298" y="1060" on="1"/>
        <pt x="12" y="1060" on="1"/>
        <pt x="-16" y="1068" on="0"/>
      </contour>
    </TTGlyph>
    <TTGlyph name="Tcaron" xMin="-16" yMin="-28" xMax="1332" yMax="2064">
      <component glyphName="caron" x="303" y="312" flags="0x4"/>
      <component glyphName="T" x="0" y="0" flags="0x4"/>
    </TTGlyph>
    <TTGlyph name="Tcommaaccent" xMin="-16" yMin="-564" xMax="1332" yMax="1504">
      <component glyphName="cedilla" x="354" y="-48" flags="0x4"/>
      <component glyphName="T" x="0" y="0" flags="0x4"/>
    </TTGlyph>
    <TTGlyph name="Thorn" xMin="104" yMin="-24" xMax="1520" yMax="1620">
      <contour>
        <pt x="104" y="136" on="1"/>
        <pt x="104" y="312" on="1"/>
        <pt x="104" y="416" on="0"/>
        <pt x="108" y="829" on="0"/>
        <pt x="108" y="934" on="1"/>
        <pt x="108" y="1450" on="1"/>
        <pt x="108" y="1557" on="0"/>
        <pt x="132" y="1620" on="1"/>
        <pt x="700" y="1620" on="1"/>
        <pt x="716" y="1619" on="0"/>
        <pt x="733" y="1596" on="0"/>
        <pt x="736" y="1558" on="0"/>
        <pt x="735" y="1521" on="0"/>
        <pt x="731" y="1476" on="0"/>
        <pt x="732" y="1464" on="1"/>
        <pt x="732" y="1380" on="1"/>
        <pt x="869" y="1380" on="0"/>
        <pt x="976" y="1372" on="1"/>
        <pt x="1024" y="1372" on="1"/>
        <pt x="1124" y="1372" on="0"/>
        <pt x="1302" y="1306" on="0"/>
        <pt x="1440" y="1183" on="0"/>
        <pt x="1520" y="988" on="0"/>
        <pt x="1520" y="868" on="1"/>
        <pt x="1520" y="780" on="0"/>
        <pt x="1479" y="633" on="0"/>
        <pt x="1413" y="531" on="0"/>
        <pt x="1313" y="451" on="0"/>
        <pt x="1215" y="403" on="0"/>
        <pt x="1089" y="368" on="0"/>
        <pt x="991" y="352" on="0"/>
        <pt x="932" y="346" on="1"/>
        <pt x="740" y="346" on="1"/>
        <pt x="740" y="12" on="1"/>
        <pt x="738" y="-5" on="0"/>
        <pt x="716" y="-24" on="0"/>
        <pt x="698" y="-24" on="1"/>
        <pt x="130" y="-24" on="1"/>
        <pt x="104" y="45" on="0"/>
      </contour>
      <contour>
        <pt x="706" y="1040" on="1"/>
        <pt x="706" y="708" on="1"/>
        <pt x="740" y="664" on="1"/>
        <pt x="785" y="664" on="0"/>
        <pt x="861" y="683" on="0"/>
        <pt x="932" y="726" on="0"/>
        <pt x="972" y="812" on="0"/>
        <pt x="972" y="872" on="1"/>
        <pt x="972" y="907" on="0"/>
        <pt x="953" y="962" on="0"/>
        <pt x="928" y="997" on="0"/>
        <pt x="878" y="1022" on="0"/>
        <pt x="842" y="1033" on="0"/>
        <pt x="775" y="1039" on="0"/>
        <pt x="742" y="1040" on="0"/>
      </contour>
    </TTGlyph>
    <TTGlyph name="U" xMin="92" yMin="-60" xMax="1544" yMax="1516">
      <contour>
        <pt x="92" y="498" on="1"/>
        <pt x="96" y="990" on="0"/>
        <pt x="96" y="1232" on="1"/>
        <pt x="96" y="1244" on="1"/>
        <pt x="96" y="1251" on="0"/>
        <pt x="92" y="1336" on="0"/>
        <pt x="92" y="1366" on="1"/>
        <pt x="92" y="1486" on="0"/>
        <pt x="112" y="1502" on="1"/>
        <pt x="117" y="1502" on="0"/>
        <pt x="137" y="1500" on="0"/>
        <pt x="142" y="1500" on="1"/>
        <pt x="310" y="1508" on="0"/>
        <pt x="532" y="1508" on="1"/>
        <pt x="668" y="1508" on="1"/>
        <pt x="676" y="1507" on="0"/>
        <pt x="703" y="1496" on="0"/>
        <pt x="708" y="1496" on="1"/>
        <pt x="709" y="1447" on="0"/>
        <pt x="716" y="1207" on="0"/>
        <pt x="719" y="1031" on="0"/>
        <pt x="718" y="946" on="1"/>
        <pt x="718" y="556" on="1"/>
        <pt x="718" y="519" on="0"/>
        <pt x="722" y="473" on="0"/>
        <pt x="737" y="411" on="0"/>
        <pt x="776" y="380" on="0"/>
        <pt x="806" y="380" on="1"/>
        <pt x="848" y="380" on="0"/>
        <pt x="900" y="451" on="0"/>
        <pt x="900" y="498" on="1"/>
        <pt x="900" y="864" on="1"/>
        <pt x="899" y="931" on="0"/>
        <pt x="904" y="1219" on="0"/>
        <pt x="902" y="1300" on="1"/>
        <pt x="902" y="1372" on="1"/>
        <pt x="902" y="1383" on="0"/>
        <pt x="898" y="1428" on="0"/>
        <pt x="898" y="1440" on="1"/>
        <pt x="898" y="1488" on="1"/>
        <pt x="901" y="1511" on="0"/>
        <pt x="924" y="1516" on="1"/>
        <pt x="1116" y="1516" on="0"/>
        <pt x="1500" y="1512" on="1"/>
        <pt x="1500" y="1496" on="1"/>
        <pt x="1544" y="1496" on="1"/>
        <pt x="1536" y="1283" on="0"/>
        <pt x="1536" y="1000" on="1"/>
        <pt x="1536" y="776" on="1"/>
        <pt x="1536" y="731" on="0"/>
        <pt x="1532" y="545" on="0"/>
        <pt x="1532" y="500" on="1"/>
        <pt x="1532" y="370" on="0"/>
        <pt x="1450" y="170" on="0"/>
        <pt x="1316" y="48" on="0"/>
        <pt x="1126" y="-30" on="0"/>
        <pt x="932" y="-60" on="0"/>
        <pt x="820" y="-60" on="1"/>
        <pt x="712" y="-60" on="0"/>
        <pt x="523" y="-33" on="0"/>
        <pt x="329" y="44" on="0"/>
        <pt x="189" y="164" on="0"/>
        <pt x="97" y="366" on="0"/>
      </contour>
    </TTGlyph>
    <TTGlyph name="Uacute" xMin="92" yMin="-60" xMax="1544" yMax="2033">
      <component glyphName="acute" x="432" y="264" flags="0x4"/>
      <component glyphName="U" x="0" y="0" flags="0x4"/>
    </TTGlyph>
    <TTGlyph name="Ubreve" xMin="92" yMin="-60" xMax="1544" yMax="2070">
      <component glyphName="breve" x="479" y="318" flags="0x4"/>
      <component glyphName="U" x="0" y="0" flags="0x4"/>
    </TTGlyph>
    <TTGlyph name="Ucircumflex" xMin="92" yMin="-60" xMax="1544" yMax="2030">
      <component glyphName="circumflex" x="461" y="276" flags="0x4"/>
      <component glyphName="U" x="0" y="0" flags="0x4"/>
    </TTGlyph>
    <TTGlyph name="Udieresis" xMin="92" yMin="-60" xMax="1544" yMax="2248">
      <component glyphName="dieresis" x="488" y="464" flags="0x4"/>
      <component glyphName="U" x="0" y="0" flags="0x4"/>
    </TTGlyph>
    <TTGlyph name="Ugrave" xMin="92" yMin="-60" xMax="1544" yMax="2040">
      <component glyphName="grave" x="538" y="252" flags="0x4"/>
      <component glyphName="U" x="0" y="0" flags="0x4"/>
    </TTGlyph>
    <TTGlyph name="Uhungarumlaut" xMin="92" yMin="-60" xMax="1544" yMax="2067">
      <component glyphName="hungarumlaut" x="428" y="300" flags="0x4"/>
      <component glyphName="U" x="0" y="0" flags="0x4"/>
    </TTGlyph>
    <TTGlyph name="Uring" xMin="92" yMin="-60" xMax="1544" yMax="2236">
      <component glyphName="ring" x="523" y="296" flags="0x4"/>
      <component glyphName="U" x="0" y="0" flags="0x4"/>
    </TTGlyph>
    <TTGlyph name="V" xMin="-35" yMin="-36" xMax="1585" yMax="1510">
      <contour>
        <pt x="-35" y="1475" on="1"/>
        <pt x="-35" y="1504" on="0"/>
        <pt x="-1" y="1504" on="1"/>
        <pt x="96" y="1504" on="0"/>
        <pt x="469" y="1508" on="0"/>
        <pt x="561" y="1508" on="1"/>
        <pt x="589" y="1508" on="0"/>
        <pt x="609" y="1480" on="1"/>
        <pt x="781" y="484" on="1"/>
        <pt x="797" y="580" on="0"/>
        <pt x="879" y="929" on="0"/>
        <pt x="891" y="986" on="1"/>
        <pt x="991" y="1486" on="1"/>
        <pt x="999" y="1510" on="0"/>
        <pt x="1401" y="1510" on="1"/>
        <pt x="1561" y="1510" on="1"/>
        <pt x="1580" y="1503" on="0"/>
        <pt x="1585" y="1476" on="1"/>
        <pt x="1361" y="666" on="1"/>
        <pt x="1354" y="639" on="0"/>
        <pt x="1315" y="454" on="0"/>
        <pt x="1276" y="285" on="0"/>
        <pt x="1226" y="101" on="0"/>
        <pt x="1169" y="-19" on="0"/>
        <pt x="1143" y="-28" on="1"/>
        <pt x="1107" y="-28" on="0"/>
        <pt x="965" y="-22" on="0"/>
        <pt x="929" y="-22" on="1"/>
        <pt x="857" y="-22" on="1"/>
        <pt x="789" y="-28" on="0"/>
        <pt x="628" y="-32" on="0"/>
        <pt x="446" y="-34" on="0"/>
        <pt x="391" y="-36" on="1"/>
      </contour>
    </TTGlyph>
    <TTGlyph name="W" xMin="-44" yMin="-36" xMax="2161" yMax="1517">
      <contour>
        <pt x="1069" y="780" on="1"/>
        <pt x="1065" y="753" on="0"/>
        <pt x="1042" y="553" on="0"/>
        <pt x="1014" y="333" on="0"/>
        <pt x="980" y="112" on="0"/>
        <pt x="936" y="-32" on="0"/>
        <pt x="914" y="-32" on="1"/>
        <pt x="871" y="-32" on="0"/>
        <pt x="703" y="-28" on="0"/>
        <pt x="660" y="-28" on="1"/>
        <pt x="467" y="-28" on="0"/>
        <pt x="304" y="-36" on="1"/>
        <pt x="290" y="-29" on="0"/>
        <pt x="269" y="1" on="0"/>
        <pt x="256" y="43" on="0"/>
        <pt x="249" y="76" on="0"/>
        <pt x="242" y="127" on="0"/>
        <pt x="240" y="136" on="1"/>
        <pt x="67" y="961" on="0"/>
        <pt x="26" y="1140" on="1"/>
        <pt x="-44" y="1476" on="1"/>
        <pt x="-44" y="1504" on="0"/>
        <pt x="-16" y="1514" on="1"/>
        <pt x="8" y="1512" on="0"/>
        <pt x="60" y="1512" on="1"/>
        <pt x="140" y="1512" on="1"/>
        <pt x="164" y="1512" on="0"/>
        <pt x="254" y="1516" on="0"/>
        <pt x="274" y="1516" on="1"/>
        <pt x="293" y="1517" on="0"/>
        <pt x="367" y="1514" on="0"/>
        <pt x="378" y="1514" on="1"/>
        <pt x="436" y="1514" on="1"/>
        <pt x="446" y="1512" on="0"/>
        <pt x="466" y="1512" on="1"/>
        <pt x="496" y="1512" on="1"/>
        <pt x="514" y="1507" on="0"/>
        <pt x="550" y="1379" on="0"/>
        <pt x="582" y="1155" on="0"/>
        <pt x="602" y="988" on="0"/>
        <pt x="627" y="751" on="0"/>
        <pt x="627" y="749" on="1"/>
        <pt x="754" y="1510" on="1"/>
        <pt x="802" y="1506" on="0"/>
        <pt x="830" y="1506" on="1"/>
        <pt x="892" y="1506" on="1"/>
        <pt x="973" y="1506" on="0"/>
        <pt x="1280" y="1508" on="0"/>
        <pt x="1356" y="1508" on="1"/>
        <pt x="1377" y="1508" on="0"/>
        <pt x="1382" y="1492" on="1"/>
        <pt x="1507" y="665" on="1"/>
        <pt x="1526" y="893" on="0"/>
        <pt x="1554" y="1082" on="1"/>
        <pt x="1614" y="1488" on="1"/>
        <pt x="1621" y="1512" on="0"/>
        <pt x="1684" y="1512" on="1"/>
        <pt x="1732" y="1512" on="1"/>
        <pt x="1744" y="1513" on="0"/>
        <pt x="1795" y="1510" on="0"/>
        <pt x="1806" y="1510" on="1"/>
        <pt x="1894" y="1510" on="1"/>
        <pt x="1931" y="1510" on="0"/>
        <pt x="2024" y="1508" on="0"/>
        <pt x="2026" y="1508" on="1"/>
        <pt x="2144" y="1508" on="1"/>
        <pt x="2153" y="1508" on="0"/>
        <pt x="2159" y="1481" on="0"/>
        <pt x="2161" y="1450" on="1"/>
        <pt x="1839" y="-22" on="1"/>
        <pt x="1819" y="-24" on="0"/>
        <pt x="1763" y="-24" on="0"/>
        <pt x="1717" y="-23" on="0"/>
        <pt x="1657" y="-22" on="0"/>
        <pt x="1638" y="-22" on="1"/>
        <pt x="1597" y="-22" on="0"/>
        <pt x="1430" y="-20" on="0"/>
        <pt x="1388" y="-20" on="1"/>
        <pt x="1383" y="-20" on="0"/>
        <pt x="1193" y="-26" on="1"/>
      </contour>
    </TTGlyph>
    <TTGlyph name="X" xMin="-36" yMin="-36" xMax="1632" yMax="1512">
      <contour>
        <pt x="-36" y="0" on="1"/>
        <pt x="-36" y="28" on="0"/>
        <pt x="0" y="84" on="1"/>
        <pt x="85" y="214" on="0"/>
        <pt x="401" y="710" on="0"/>
        <pt x="428" y="752" on="1"/>
        <pt x="146" y="1237" on="0"/>
        <pt x="0" y="1476" on="1"/>
        <pt x="0" y="1486" on="1"/>
        <pt x="0" y="1497" on="0"/>
        <pt x="12" y="1506" on="1"/>
        <pt x="76" y="1506" on="0"/>
        <pt x="328" y="1500" on="0"/>
        <pt x="392" y="1500" on="1"/>
        <pt x="409" y="1501" on="0"/>
        <pt x="470" y="1498" on="0"/>
        <pt x="480" y="1498" on="1"/>
        <pt x="550" y="1498" on="1"/>
        <pt x="572" y="1500" on="0"/>
        <pt x="620" y="1500" on="1"/>
        <pt x="633" y="1497" on="0"/>
        <pt x="687" y="1405" on="0"/>
        <pt x="714" y="1344" on="1"/>
        <pt x="815" y="1106" on="1"/>
        <pt x="818" y="1112" on="0"/>
        <pt x="922" y="1336" on="1"/>
        <pt x="960" y="1416" on="1"/>
        <pt x="998" y="1500" on="0"/>
        <pt x="1012" y="1500" on="1"/>
        <pt x="1013" y="1500" on="0"/>
        <pt x="1016" y="1499" on="0"/>
        <pt x="1022" y="1497" on="0"/>
        <pt x="1024" y="1496" on="1"/>
        <pt x="1076" y="1498" on="0"/>
        <pt x="1324" y="1507" on="0"/>
        <pt x="1506" y="1512" on="0"/>
        <pt x="1592" y="1512" on="1"/>
        <pt x="1620" y="1506" on="0"/>
        <pt x="1620" y="1468" on="1"/>
        <pt x="1620" y="1456" on="1"/>
        <pt x="1267" y="898" on="0"/>
        <pt x="1170" y="740" on="1"/>
        <pt x="1370" y="433" on="1"/>
        <pt x="1420" y="355" on="0"/>
        <pt x="1606" y="65" on="0"/>
        <pt x="1632" y="24" on="1"/>
        <pt x="1632" y="4" on="1"/>
        <pt x="1632" y="-32" on="0"/>
        <pt x="1570" y="-32" on="1"/>
        <pt x="1489" y="-32" on="0"/>
        <pt x="1175" y="-36" on="0"/>
        <pt x="1100" y="-36" on="1"/>
        <pt x="1052" y="-36" on="1"/>
        <pt x="999" y="-36" on="0"/>
        <pt x="972" y="-16" on="1"/>
        <pt x="789" y="371" on="1"/>
        <pt x="781" y="354" on="0"/>
        <pt x="754" y="287" on="0"/>
        <pt x="727" y="224" on="0"/>
        <pt x="693" y="147" on="0"/>
        <pt x="658" y="81" on="0"/>
        <pt x="621" y="21" on="0"/>
        <pt x="581" y="-22" on="0"/>
        <pt x="562" y="-30" on="1"/>
        <pt x="338" y="-26" on="0"/>
        <pt x="234" y="-26" on="1"/>
        <pt x="191" y="-26" on="0"/>
        <pt x="31" y="-28" on="0"/>
        <pt x="-12" y="-28" on="1"/>
        <pt x="-36" y="-19" on="0"/>
      </contour>
    </TTGlyph>
    <TTGlyph name="Y" xMin="-54" yMin="-36" xMax="1569" yMax="1508">
      <contour>
        <pt x="1569" y="1462" on="1"/>
        <pt x="1506" y="1336" on="0"/>
        <pt x="1161" y="683" on="0"/>
        <pt x="1073" y="500" on="1"/>
        <pt x="1073" y="0" on="1"/>
        <pt x="1068" y="-17" on="0"/>
        <pt x="1052" y="-32" on="0"/>
        <pt x="1033" y="-32" on="1"/>
        <pt x="939" y="-32" on="0"/>
        <pt x="568" y="-36" on="0"/>
        <pt x="469" y="-36" on="1"/>
        <pt x="433" y="0" on="0"/>
        <pt x="433" y="48" on="1"/>
        <pt x="437" y="70" on="0"/>
        <pt x="439" y="126" on="0"/>
        <pt x="437" y="212" on="0"/>
        <pt x="437" y="224" on="1"/>
        <pt x="437" y="296" on="1"/>
        <pt x="437" y="535" on="0"/>
        <pt x="337" y="726" on="1"/>
        <pt x="322" y="757" on="0"/>
        <pt x="289" y="825" on="0"/>
        <pt x="259" y="889" on="0"/>
        <pt x="227" y="955" on="0"/>
        <pt x="196" y="1021" on="0"/>
        <pt x="166" y="1085" on="0"/>
        <pt x="133" y="1153" on="0"/>
        <pt x="117" y="1184" on="1"/>
        <pt x="-54" y="1471" on="1"/>
        <pt x="-54" y="1484" on="0"/>
        <pt x="-12" y="1506" on="0"/>
        <pt x="9" y="1506" on="1"/>
        <pt x="261" y="1506" on="1"/>
        <pt x="313" y="1506" on="0"/>
        <pt x="522" y="1504" on="0"/>
        <pt x="573" y="1504" on="1"/>
        <pt x="587" y="1502" on="0"/>
        <pt x="621" y="1448" on="0"/>
        <pt x="658" y="1356" on="0"/>
        <pt x="694" y="1253" on="0"/>
        <pt x="730" y="1129" on="0"/>
        <pt x="757" y="1035" on="0"/>
        <pt x="784" y="937" on="0"/>
        <pt x="788" y="922" on="1"/>
        <pt x="971" y="1508" on="1"/>
        <pt x="1535" y="1508" on="1"/>
        <pt x="1549" y="1506" on="0"/>
        <pt x="1563" y="1487" on="0"/>
      </contour>
    </TTGlyph>
    <TTGlyph name="Yacute" xMin="-54" yMin="-36" xMax="1569" yMax="2005">
      <component glyphName="acute" x="420" y="236" flags="0x4"/>
      <component glyphName="Y" x="0" y="0" flags="0x4"/>
    </TTGlyph>
    <TTGlyph name="Ydieresis" xMin="-54" yMin="-36" xMax="1569" yMax="2008">
      <component glyphName="dieresis" x="440" y="224" flags="0x4"/>
      <component glyphName="Y" x="0" y="0" flags="0x4"/>
    </TTGlyph>
    <TTGlyph name="Z" xMin="14" yMin="-36" xMax="1372" yMax="1504">
      <contour>
        <pt x="14" y="16" on="1"/>
        <pt x="14" y="48" on="1"/>
        <pt x="14" y="134" on="0"/>
        <pt x="20" y="368" on="0"/>
        <pt x="24" y="368" on="1"/>
        <pt x="25" y="367" on="0"/>
        <pt x="81" y="439" on="0"/>
        <pt x="234" y="629" on="0"/>
        <pt x="316" y="730" on="1"/>
        <pt x="608" y="1086" on="1"/>
        <pt x="517" y="1086" on="0"/>
        <pt x="163" y="1080" on="0"/>
        <pt x="72" y="1080" on="1"/>
        <pt x="57" y="1084" on="0"/>
        <pt x="48" y="1107" on="0"/>
        <pt x="48" y="1128" on="1"/>
        <pt x="48" y="1248" on="1"/>
        <pt x="48" y="1258" on="0"/>
        <pt x="40" y="1382" on="0"/>
        <pt x="40" y="1416" on="1"/>
        <pt x="40" y="1496" on="0"/>
        <pt x="60" y="1496" on="1"/>
        <pt x="400" y="1496" on="0"/>
        <pt x="1052" y="1504" on="1"/>
        <pt x="1264" y="1504" on="1"/>
        <pt x="1322" y="1504" on="0"/>
        <pt x="1348" y="1484" on="0"/>
        <pt x="1348" y="1428" on="1"/>
        <pt x="1348" y="1414" on="0"/>
        <pt x="1344" y="1371" on="0"/>
        <pt x="1344" y="1368" on="1"/>
        <pt x="1344" y="1362" on="1"/>
        <pt x="1344" y="1275" on="0"/>
        <pt x="1323" y="1138" on="0"/>
        <pt x="1296" y="1049" on="0"/>
        <pt x="1233" y="953" on="0"/>
        <pt x="1185" y="898" on="0"/>
        <pt x="1083" y="787" on="0"/>
        <pt x="1050" y="748" on="1"/>
        <pt x="760" y="404" on="1"/>
        <pt x="1336" y="404" on="1"/>
        <pt x="1347" y="404" on="0"/>
        <pt x="1361" y="373" on="0"/>
        <pt x="1367" y="307" on="0"/>
        <pt x="1368" y="260" on="0"/>
        <pt x="1368" y="216" on="1"/>
        <pt x="1368" y="124" on="1"/>
        <pt x="1368" y="115" on="0"/>
        <pt x="1372" y="62" on="0"/>
        <pt x="1372" y="48" on="1"/>
        <pt x="1372" y="2" on="0"/>
        <pt x="1340" y="-24" on="0"/>
        <pt x="1296" y="-24" on="1"/>
        <pt x="1272" y="-24" on="1"/>
        <pt x="1076" y="-24" on="0"/>
        <pt x="299" y="-36" on="0"/>
        <pt x="104" y="-36" on="1"/>
        <pt x="70" y="-36" on="0"/>
        <pt x="40" y="-18" on="0"/>
      </contour>
    </TTGlyph>
    <TTGlyph name="Zacute" xMin="14" yMin="-36" xMax="1372" yMax="2067">
      <component glyphName="acute" x="305" y="298" flags="0x4"/>
      <component glyphName="Z" x="0" y="0" flags="0x4"/>
    </TTGlyph>
    <TTGlyph name="Zcaron" xMin="14" yMin="-36" xMax="1372" yMax="1996">
      <component glyphName="caron" x="341" y="244" flags="0x4"/>
      <component glyphName="Z" x="0" y="0" flags="0x4"/>
    </TTGlyph>
    <TTGlyph name="Zdotaccent" xMin="14" yMin="-36" xMax="1372" yMax="2052">
      <component glyphName="dotaccent" x="367" y="560" flags="0x4"/>
      <component glyphName="Z" x="0" y="0" flags="0x4"/>
    </TTGlyph>
    <TTGlyph name="a" xMin="-32" yMin="38" xMax="1508" yMax="1388">
      <contour>
        <pt x="552" y="248" on="1"/>
        <pt x="545" y="225" on="0"/>
        <pt x="532" y="150" on="0"/>
        <pt x="521" y="107" on="0"/>
        <pt x="495" y="60" on="0"/>
        <pt x="442" y="38" on="0"/>
        <pt x="400" y="38" on="1"/>
        <pt x="-32" y="38" on="1"/>
        <pt x="-32" y="72" on="1"/>
        <pt x="21" y="231" on="0"/>
        <pt x="224" y="889" on="0"/>
        <pt x="280" y="1058" on="1"/>
        <pt x="280" y="1056" on="1"/>
        <pt x="314" y="1153" on="0"/>
        <pt x="380" y="1360" on="1"/>
        <pt x="381" y="1362" on="0"/>
        <pt x="383" y="1365" on="1"/>
        <pt x="392" y="1380" on="0"/>
        <pt x="400" y="1388" on="1"/>
        <pt x="940" y="1384" on="1"/>
        <pt x="1078" y="1384" on="0"/>
        <pt x="1092" y="1360" on="1"/>
        <pt x="1092" y="1334" on="1"/>
        <pt x="1094" y="1325" on="0"/>
        <pt x="1114" y="1288" on="1"/>
        <pt x="1211" y="991" on="0"/>
        <pt x="1256" y="856" on="1"/>
        <pt x="1256" y="844" on="1"/>
        <pt x="1260" y="815" on="0"/>
        <pt x="1288" y="741" on="0"/>
        <pt x="1327" y="656" on="0"/>
        <pt x="1335" y="632" on="1"/>
        <pt x="1375" y="488" on="1"/>
        <pt x="1410" y="372" on="0"/>
        <pt x="1478" y="178" on="1"/>
        <pt x="1478" y="180" on="1"/>
        <pt x="1478" y="160" on="1"/>
        <pt x="1481" y="146" on="0"/>
        <pt x="1505" y="98" on="0"/>
        <pt x="1508" y="88" on="1"/>
        <pt x="1508" y="60" on="0"/>
        <pt x="1485" y="44" on="0"/>
        <pt x="1452" y="44" on="1"/>
        <pt x="988" y="44" on="1"/>
        <pt x="971" y="46" on="0"/>
        <pt x="961" y="48" on="0"/>
        <pt x="940" y="54" on="0"/>
        <pt x="931" y="64" on="0"/>
        <pt x="930" y="72" on="1"/>
        <pt x="892" y="224" on="1"/>
        <pt x="888" y="243" on="0"/>
        <pt x="880" y="248" on="0"/>
        <pt x="860" y="248" on="1"/>
      </contour>
      <contour>
        <pt x="600" y="604" on="1"/>
        <pt x="600" y="600" on="1"/>
      </contour>
      <contour>
        <pt x="820" y="724" on="1"/>
        <pt x="814" y="752" on="0"/>
        <pt x="791" y="877" on="0"/>
        <pt x="769" y="970" on="0"/>
        <pt x="756" y="1010" on="1"/>
        <pt x="756" y="1058" on="1"/>
        <pt x="748" y="1079" on="0"/>
        <pt x="728" y="1088" on="1"/>
        <pt x="728" y="1086" on="1"/>
        <pt x="704" y="1081" on="0"/>
        <pt x="680" y="952" on="1"/>
        <pt x="680" y="904" on="1"/>
        <pt x="678" y="897" on="0"/>
        <pt x="664" y="885" on="0"/>
        <pt x="664" y="884" on="1"/>
        <pt x="631" y="738" on="0"/>
        <pt x="610" y="648" on="1"/>
        <pt x="610" y="638" on="0"/>
        <pt x="600" y="588" on="0"/>
        <pt x="600" y="584" on="1"/>
        <pt x="848" y="584" on="1"/>
        <pt x="848" y="610" on="0"/>
        <pt x="830" y="678" on="1"/>
        <pt x="830" y="700" on="1"/>
        <pt x="829" y="703" on="0"/>
        <pt x="820" y="720" on="0"/>
      </contour>
    </TTGlyph>
    <TTGlyph name="aacute" xMin="-32" yMin="38" xMax="1508" yMax="1893">
      <component glyphName="acute" x="444" y="124" flags="0x4"/>
      <component glyphName="a" x="0" y="0" flags="0x4"/>
    </TTGlyph>
    <TTGlyph name="abreve" xMin="-32" yMin="38" xMax="1508" yMax="1940">
      <component glyphName="breve" x="391" y="188" flags="0x4"/>
      <component glyphName="a" x="0" y="0" flags="0x4"/>
    </TTGlyph>
    <TTGlyph name="acircumflex" xMin="-32" yMin="38" xMax="1508" yMax="1878">
      <component glyphName="circumflex" x="371" y="124" flags="0x4"/>
      <component glyphName="a" x="0" y="0" flags="0x4"/>
    </TTGlyph>
    <TTGlyph name="acute" xMin="28" yMin="1358" xMax="755" yMax="1769">
      <contour>
        <pt x="28" y="1402" on="1"/>
        <pt x="244" y="1769" on="1"/>
        <pt x="436" y="1764" on="1"/>
        <pt x="444" y="1764" on="0"/>
        <pt x="491" y="1762" on="0"/>
        <pt x="546" y="1760" on="0"/>
        <pt x="613" y="1758" on="0"/>
        <pt x="674" y="1753" on="0"/>
        <pt x="724" y="1746" on="0"/>
        <pt x="755" y="1736" on="0"/>
        <pt x="755" y="1730" on="1"/>
        <pt x="484" y="1426" on="1"/>
        <pt x="467" y="1407" on="0"/>
        <pt x="436" y="1383" on="0"/>
        <pt x="413" y="1369" on="0"/>
        <pt x="373" y="1362" on="0"/>
        <pt x="350" y="1361" on="0"/>
        <pt x="287" y="1359" on="0"/>
        <pt x="268" y="1358" on="1"/>
        <pt x="52" y="1358" on="1"/>
      </contour>
    </TTGlyph>
    <TTGlyph name="adieresis" xMin="-32" yMin="38" xMax="1508" yMax="1886">
      <component glyphName="dieresis" x="374" y="102" flags="0x4"/>
      <component glyphName="a" x="0" y="0" flags="0x4"/>
    </TTGlyph>
    <TTGlyph name="ae" xMin="-39" yMin="38" xMax="2035" yMax="1388">
      <contour>
        <pt x="1809" y="548" on="1"/>
        <pt x="1809" y="548" on="0"/>
        <pt x="1809" y="550" on="1"/>
        <pt x="1772" y="550" on="0"/>
        <pt x="1593" y="540" on="0"/>
        <pt x="1539" y="540" on="1"/>
        <pt x="1385" y="540" on="1"/>
        <pt x="1414" y="426" on="1"/>
        <pt x="1463" y="426" on="0"/>
        <pt x="1673" y="436" on="0"/>
        <pt x="1717" y="436" on="1"/>
        <pt x="1847" y="436" on="1"/>
        <pt x="1869" y="436" on="0"/>
        <pt x="1888" y="435" on="0"/>
        <pt x="1920" y="423" on="0"/>
        <pt x="1927" y="412" on="1"/>
        <pt x="2035" y="48" on="1"/>
        <pt x="1027" y="48" on="1"/>
        <pt x="1023" y="48" on="0"/>
        <pt x="1004" y="48" on="0"/>
        <pt x="994" y="48" on="0"/>
        <pt x="977" y="48" on="0"/>
        <pt x="967" y="49" on="0"/>
        <pt x="954" y="52" on="0"/>
        <pt x="945" y="55" on="0"/>
        <pt x="937" y="60" on="0"/>
        <pt x="932" y="67" on="0"/>
        <pt x="931" y="72" on="1"/>
        <pt x="893" y="224" on="1"/>
        <pt x="889" y="243" on="0"/>
        <pt x="881" y="248" on="0"/>
        <pt x="861" y="248" on="1"/>
        <pt x="553" y="248" on="1"/>
        <pt x="546" y="225" on="0"/>
        <pt x="533" y="150" on="0"/>
        <pt x="522" y="107" on="0"/>
        <pt x="496" y="60" on="0"/>
        <pt x="443" y="38" on="0"/>
        <pt x="401" y="38" on="1"/>
        <pt x="-39" y="40" on="1"/>
        <pt x="48" y="408" on="1"/>
        <pt x="400" y="1388" on="1"/>
        <pt x="1583" y="1379" on="1"/>
        <pt x="1614" y="1376" on="0"/>
        <pt x="1617" y="1358" on="1"/>
        <pt x="1723" y="1019" on="1"/>
        <pt x="1723" y="1008" on="0"/>
        <pt x="1701" y="992" on="1"/>
        <pt x="1237" y="992" on="1"/>
        <pt x="1237" y="983" on="0"/>
        <pt x="1249" y="964" on="0"/>
        <pt x="1249" y="960" on="1"/>
        <pt x="1249" y="890" on="1"/>
        <pt x="1253" y="890" on="0"/>
        <pt x="1282" y="888" on="0"/>
        <pt x="1285" y="888" on="1"/>
        <pt x="1311" y="888" on="1"/>
        <pt x="1369" y="888" on="0"/>
        <pt x="1607" y="896" on="0"/>
        <pt x="1669" y="896" on="1"/>
        <pt x="1687" y="896" on="0"/>
        <pt x="1711" y="887" on="0"/>
        <pt x="1723" y="868" on="0"/>
        <pt x="1729" y="854" on="0"/>
        <pt x="1735" y="826" on="0"/>
        <pt x="1737" y="820" on="1"/>
        <pt x="1737" y="782" on="1"/>
        <pt x="1747" y="768" on="1"/>
        <pt x="1757" y="754" on="0"/>
        <pt x="1761" y="744" on="1"/>
        <pt x="1761" y="696" on="1"/>
        <pt x="1767" y="673" on="0"/>
        <pt x="1809" y="606" on="0"/>
        <pt x="1813" y="594" on="1"/>
        <pt x="1813" y="568" on="1"/>
        <pt x="1813" y="564" on="0"/>
        <pt x="1814" y="557" on="0"/>
        <pt x="1815" y="553" on="0"/>
        <pt x="1815" y="549" on="0"/>
        <pt x="1812" y="548" on="0"/>
      </contour>
      <contour>
        <pt x="821" y="724" on="1"/>
        <pt x="815" y="752" on="0"/>
        <pt x="792" y="877" on="0"/>
        <pt x="770" y="970" on="0"/>
        <pt x="757" y="1010" on="1"/>
        <pt x="757" y="1058" on="1"/>
        <pt x="749" y="1079" on="0"/>
        <pt x="729" y="1088" on="1"/>
        <pt x="729" y="1086" on="1"/>
        <pt x="705" y="1081" on="0"/>
        <pt x="681" y="952" on="1"/>
        <pt x="681" y="892" on="1"/>
        <pt x="680" y="891" on="0"/>
        <pt x="672" y="888" on="0"/>
        <pt x="665" y="885" on="0"/>
        <pt x="665" y="884" on="1"/>
        <pt x="632" y="738" on="0"/>
        <pt x="611" y="648" on="1"/>
        <pt x="611" y="638" on="0"/>
        <pt x="601" y="588" on="0"/>
        <pt x="601" y="584" on="1"/>
        <pt x="849" y="584" on="1"/>
        <pt x="849" y="599" on="0"/>
        <pt x="833" y="676" on="1"/>
        <pt x="833" y="700" on="1"/>
        <pt x="832" y="703" on="0"/>
        <pt x="821" y="720" on="0"/>
      </contour>
    </TTGlyph>
    <TTGlyph name="agrave" xMin="-32" yMin="38" xMax="1508" yMax="1878">
      <component glyphName="grave" x="412" y="90" flags="0x4"/>
      <component glyphName="a" x="0" y="0" flags="0x4"/>
    </TTGlyph>
    <TTGlyph name="ampersand" xMin="16" yMin="-68" xMax="1848" yMax="1532">
      <contour>
        <pt x="1476" y="-32" on="1"/>
        <pt x="1359" y="-32" on="0"/>
        <pt x="1235" y="-3" on="0"/>
        <pt x="1172" y="40" on="1"/>
        <pt x="1132" y="40" on="1"/>
        <pt x="918" y="-57" on="0"/>
        <pt x="784" y="-68" on="1"/>
        <pt x="696" y="-68" on="1"/>
        <pt x="499" y="-68" on="0"/>
        <pt x="188" y="48" on="0"/>
        <pt x="16" y="250" on="0"/>
        <pt x="16" y="376" on="1"/>
        <pt x="16" y="670" on="0"/>
        <pt x="376" y="804" on="1"/>
        <pt x="284" y="862" on="0"/>
        <pt x="164" y="1049" on="0"/>
        <pt x="164" y="1148" on="1"/>
        <pt x="164" y="1245" on="0"/>
        <pt x="252" y="1395" on="0"/>
        <pt x="412" y="1486" on="0"/>
        <pt x="621" y="1532" on="0"/>
        <pt x="748" y="1532" on="1"/>
        <pt x="866" y="1532" on="0"/>
        <pt x="1076" y="1494" on="0"/>
        <pt x="1262" y="1413" on="0"/>
        <pt x="1372" y="1264" on="0"/>
        <pt x="1372" y="1164" on="1"/>
        <pt x="1372" y="1049" on="0"/>
        <pt x="1226" y="858" on="0"/>
        <pt x="1088" y="764" on="1"/>
        <pt x="1140" y="718" on="0"/>
        <pt x="1240" y="624" on="1"/>
        <pt x="1254" y="644" on="0"/>
        <pt x="1270" y="712" on="0"/>
        <pt x="1279" y="762" on="0"/>
        <pt x="1322" y="800" on="0"/>
        <pt x="1362" y="800" on="1"/>
        <pt x="1480" y="800" on="1"/>
        <pt x="1504" y="800" on="0"/>
        <pt x="1608" y="798" on="0"/>
        <pt x="1636" y="798" on="1"/>
        <pt x="1682" y="798" on="1"/>
        <pt x="1696" y="800" on="0"/>
        <pt x="1726" y="800" on="1"/>
        <pt x="1743" y="797" on="0"/>
        <pt x="1757" y="782" on="0"/>
        <pt x="1760" y="764" on="1"/>
        <pt x="1760" y="724" on="1"/>
        <pt x="1749" y="613" on="0"/>
        <pt x="1651" y="397" on="0"/>
        <pt x="1568" y="312" on="1"/>
        <pt x="1684" y="196" on="1"/>
        <pt x="1693" y="185" on="0"/>
        <pt x="1785" y="101" on="0"/>
        <pt x="1848" y="25" on="0"/>
        <pt x="1848" y="0" on="1"/>
        <pt x="1848" y="-29" on="0"/>
        <pt x="1810" y="-32" on="1"/>
      </contour>
      <contour>
        <pt x="520" y="400" on="1"/>
        <pt x="520" y="359" on="0"/>
        <pt x="562" y="292" on="0"/>
        <pt x="628" y="253" on="0"/>
        <pt x="703" y="232" on="0"/>
        <pt x="740" y="232" on="1"/>
        <pt x="842" y="232" on="0"/>
        <pt x="960" y="296" on="1"/>
        <pt x="920" y="340" on="0"/>
        <pt x="759" y="488" on="0"/>
        <pt x="740" y="506" on="1"/>
        <pt x="686" y="556" on="1"/>
        <pt x="650" y="588" on="0"/>
        <pt x="644" y="588" on="1"/>
        <pt x="597" y="566" on="0"/>
        <pt x="520" y="455" on="0"/>
      </contour>
      <contour>
        <pt x="610" y="1144" on="1"/>
        <pt x="618" y="1091" on="0"/>
        <pt x="719" y="991" on="0"/>
        <pt x="776" y="970" on="1"/>
        <pt x="779" y="970" on="0"/>
        <pt x="785" y="972" on="0"/>
        <pt x="788" y="972" on="1"/>
        <pt x="836" y="1010" on="1"/>
        <pt x="875" y="1040" on="0"/>
        <pt x="928" y="1118" on="0"/>
        <pt x="928" y="1156" on="1"/>
        <pt x="928" y="1198" on="0"/>
        <pt x="869" y="1255" on="0"/>
        <pt x="797" y="1276" on="0"/>
        <pt x="760" y="1276" on="1"/>
        <pt x="701" y="1276" on="0"/>
        <pt x="610" y="1204" on="0"/>
      </contour>
    </TTGlyph>
    <TTGlyph name="aogonek" xMin="-32" yMin="-466" xMax="1508" yMax="1388">
      <component glyphName="a" x="0" y="0" flags="0x204"/>
      <component glyphName="ogonek" x="699" y="22" flags="0x4"/>
    </TTGlyph>
    <TTGlyph name="approxequal" xMin="39" yMin="170" xMax="1286" yMax="1072">
      <contour>
        <pt x="39" y="348" on="1"/>
        <pt x="77" y="400" on="0"/>
        <pt x="168" y="491" on="0"/>
        <pt x="276" y="567" on="0"/>
        <pt x="399" y="612" on="0"/>
        <pt x="460" y="612" on="1"/>
        <pt x="513" y="612" on="0"/>
        <pt x="637" y="566" on="0"/>
        <pt x="731" y="510" on="0"/>
        <pt x="840" y="464" on="0"/>
        <pt x="880" y="464" on="1"/>
        <pt x="927" y="464" on="0"/>
        <pt x="1017" y="541" on="0"/>
        <pt x="1076" y="614" on="1"/>
        <pt x="1128" y="614" on="1"/>
        <pt x="1286" y="441" on="1"/>
        <pt x="1286" y="435" on="0"/>
        <pt x="1277" y="422" on="0"/>
        <pt x="1272" y="420" on="1"/>
        <pt x="1199" y="310" on="0"/>
        <pt x="1013" y="170" on="0"/>
        <pt x="906" y="170" on="1"/>
        <pt x="791" y="172" on="0"/>
        <pt x="658" y="248" on="1"/>
        <pt x="586" y="288" on="1"/>
        <pt x="515" y="328" on="0"/>
        <pt x="440" y="328" on="1"/>
        <pt x="363" y="332" on="0"/>
        <pt x="296" y="262" on="1"/>
        <pt x="262" y="226" on="1"/>
        <pt x="261" y="225" on="0"/>
        <pt x="260" y="224" on="1"/>
        <pt x="225" y="185" on="0"/>
        <pt x="215" y="185" on="1"/>
      </contour>
      <contour>
        <pt x="42" y="801" on="1"/>
        <pt x="121" y="930" on="0"/>
        <pt x="332" y="1072" on="0"/>
        <pt x="460" y="1072" on="1"/>
        <pt x="573" y="1072" on="0"/>
        <pt x="656" y="1024" on="1"/>
        <pt x="736" y="978" on="1"/>
        <pt x="739" y="976" on="0"/>
        <pt x="766" y="961" on="0"/>
        <pt x="774" y="956" on="0"/>
        <pt x="797" y="943" on="0"/>
        <pt x="807" y="939" on="0"/>
        <pt x="826" y="930" on="0"/>
        <pt x="838" y="926" on="0"/>
        <pt x="855" y="922" on="0"/>
        <pt x="869" y="920" on="0"/>
        <pt x="876" y="920" on="1"/>
        <pt x="967" y="920" on="0"/>
        <pt x="1076" y="1070" on="1"/>
        <pt x="1128" y="1070" on="1"/>
        <pt x="1285" y="898" on="1"/>
        <pt x="1285" y="895" on="0"/>
        <pt x="1274" y="876" on="0"/>
        <pt x="1272" y="872" on="1"/>
        <pt x="1216" y="798" on="0"/>
        <pt x="1115" y="698" on="0"/>
        <pt x="971" y="624" on="0"/>
        <pt x="894" y="624" on="1"/>
        <pt x="874" y="624" on="0"/>
        <pt x="864" y="626" on="1"/>
        <pt x="832" y="626" on="1"/>
        <pt x="786" y="633" on="0"/>
        <pt x="674" y="688" on="0"/>
        <pt x="589" y="745" on="0"/>
        <pt x="486" y="790" on="0"/>
        <pt x="444" y="790" on="1"/>
        <pt x="409" y="790" on="0"/>
        <pt x="325" y="753" on="0"/>
        <pt x="296" y="718" on="1"/>
        <pt x="219" y="638" on="1"/>
      </contour>
    </TTGlyph>
    <TTGlyph name="aring" xMin="-32" yMin="38" xMax="1508" yMax="2048">
      <component glyphName="ring" x="440" y="108" flags="0x4"/>
      <component glyphName="a" x="0" y="0" flags="0x4"/>
    </TTGlyph>
    <TTGlyph name="asciicircum" xMin="138" yMin="728" xMax="1146" yMax="1520">
      <contour>
        <pt x="138" y="759" on="1"/>
        <pt x="503" y="1519" on="1"/>
        <pt x="766" y="1520" on="1"/>
        <pt x="1146" y="776" on="1"/>
        <pt x="1146" y="747" on="0"/>
        <pt x="1068" y="728" on="0"/>
        <pt x="980" y="728" on="1"/>
        <pt x="860" y="728" on="1"/>
        <pt x="853" y="728" on="0"/>
        <pt x="840" y="737" on="0"/>
        <pt x="827" y="752" on="0"/>
        <pt x="824" y="754" on="1"/>
        <pt x="636" y="1144" on="1"/>
        <pt x="441" y="736" on="1"/>
        <pt x="396" y="736" on="0"/>
        <pt x="207" y="740" on="0"/>
        <pt x="164" y="740" on="1"/>
        <pt x="153" y="741" on="0"/>
        <pt x="138" y="754" on="0"/>
      </contour>
    </TTGlyph>
    <TTGlyph name="asciitilde" xMin="142" yMin="304" xMax="1144" yMax="770">
      <contour>
        <pt x="424" y="762" on="1"/>
        <pt x="475" y="762" on="0"/>
        <pt x="582" y="715" on="0"/>
        <pt x="663" y="659" on="0"/>
        <pt x="793" y="612" on="0"/>
        <pt x="864" y="612" on="1"/>
        <pt x="905" y="612" on="0"/>
        <pt x="966" y="654" on="0"/>
        <pt x="996" y="694" on="1"/>
        <pt x="1028" y="736" on="1"/>
        <pt x="1028" y="770" on="1"/>
        <pt x="1028" y="748" on="1"/>
        <pt x="1036" y="752" on="0"/>
        <pt x="1050" y="752" on="1"/>
        <pt x="1067" y="752" on="0"/>
        <pt x="1144" y="540" on="0"/>
        <pt x="1144" y="498" on="1"/>
        <pt x="1144" y="490" on="1"/>
        <pt x="1140" y="486" on="0"/>
        <pt x="1140" y="480" on="1"/>
        <pt x="1075" y="392" on="0"/>
        <pt x="952" y="304" on="0"/>
        <pt x="868" y="304" on="1"/>
        <pt x="814" y="304" on="0"/>
        <pt x="766" y="320" on="1"/>
        <pt x="650" y="370" on="1"/>
        <pt x="645" y="372" on="0"/>
        <pt x="608" y="391" on="0"/>
        <pt x="596" y="397" on="0"/>
        <pt x="563" y="412" on="0"/>
        <pt x="545" y="418" on="0"/>
        <pt x="514" y="428" on="0"/>
        <pt x="490" y="432" on="0"/>
        <pt x="459" y="436" on="0"/>
        <pt x="444" y="436" on="1"/>
        <pt x="389" y="436" on="0"/>
        <pt x="317" y="373" on="0"/>
        <pt x="282" y="312" on="1"/>
        <pt x="248" y="312" on="1"/>
        <pt x="240" y="313" on="0"/>
        <pt x="216" y="323" on="0"/>
        <pt x="212" y="324" on="1"/>
        <pt x="172" y="438" on="1"/>
        <pt x="142" y="518" on="0"/>
        <pt x="144" y="560" on="1"/>
        <pt x="200" y="661" on="0"/>
        <pt x="334" y="762" on="0"/>
      </contour>
    </TTGlyph>
    <TTGlyph name="asterisk" xMin="76" yMin="737" xMax="856" yMax="1520">
      <contour>
        <pt x="372" y="740" on="1"/>
        <pt x="353" y="740" on="0"/>
        <pt x="178" y="839" on="0"/>
        <pt x="178" y="852" on="1"/>
        <pt x="178" y="862" on="0"/>
        <pt x="188" y="882" on="1"/>
        <pt x="234" y="970" on="1"/>
        <pt x="256" y="1008" on="1"/>
        <pt x="245" y="1008" on="0"/>
        <pt x="191" y="1006" on="0"/>
        <pt x="180" y="1006" on="1"/>
        <pt x="146" y="1006" on="1"/>
        <pt x="96" y="1013" on="0"/>
        <pt x="76" y="1057" on="0"/>
        <pt x="76" y="1140" on="1"/>
        <pt x="76" y="1228" on="0"/>
        <pt x="108" y="1248" on="1"/>
        <pt x="172" y="1248" on="0"/>
        <pt x="268" y="1244" on="1"/>
        <pt x="236" y="1296" on="1"/>
        <pt x="236" y="1294" on="1"/>
        <pt x="202" y="1354" on="1"/>
        <pt x="184" y="1394" on="0"/>
        <pt x="182" y="1408" on="1"/>
        <pt x="182" y="1419" on="0"/>
        <pt x="213" y="1441" on="0"/>
        <pt x="228" y="1444" on="1"/>
        <pt x="280" y="1478" on="1"/>
        <pt x="344" y="1518" on="0"/>
        <pt x="368" y="1518" on="1"/>
        <pt x="383" y="1515" on="0"/>
        <pt x="420" y="1448" on="1"/>
        <pt x="420" y="1410" on="1"/>
        <pt x="420" y="1412" on="1"/>
        <pt x="472" y="1348" on="1"/>
        <pt x="472" y="1376" on="1"/>
        <pt x="475" y="1380" on="0"/>
        <pt x="495" y="1400" on="0"/>
        <pt x="496" y="1404" on="1"/>
        <pt x="496" y="1426" on="1"/>
        <pt x="505" y="1445" on="0"/>
        <pt x="558" y="1514" on="0"/>
        <pt x="568" y="1520" on="1"/>
        <pt x="628" y="1492" on="1"/>
        <pt x="748" y="1434" on="0"/>
        <pt x="748" y="1412" on="1"/>
        <pt x="748" y="1393" on="0"/>
        <pt x="722" y="1352" on="1"/>
        <pt x="694" y="1308" on="1"/>
        <pt x="677" y="1281" on="0"/>
        <pt x="658" y="1240" on="1"/>
        <pt x="684" y="1240" on="1"/>
        <pt x="716" y="1248" on="0"/>
        <pt x="738" y="1248" on="1"/>
        <pt x="788" y="1248" on="1"/>
        <pt x="794" y="1248" on="0"/>
        <pt x="819" y="1250" on="0"/>
        <pt x="829" y="1249" on="0"/>
        <pt x="845" y="1241" on="0"/>
        <pt x="851" y="1223" on="0"/>
        <pt x="856" y="1188" on="0"/>
        <pt x="856" y="1162" on="1"/>
        <pt x="856" y="1137" on="0"/>
        <pt x="850" y="1104" on="1"/>
        <pt x="850" y="1052" on="1"/>
        <pt x="850" y="1036" on="0"/>
        <pt x="744" y="1029" on="1"/>
        <pt x="740" y="1029" on="0"/>
        <pt x="736" y="1029" on="0"/>
        <pt x="729" y="1028" on="0"/>
        <pt x="726" y="1028" on="1"/>
        <pt x="668" y="1028" on="1"/>
        <pt x="702" y="970" on="1"/>
        <pt x="711" y="958" on="0"/>
        <pt x="714" y="944" on="1"/>
        <pt x="714" y="912" on="1"/>
        <pt x="759" y="867" on="0"/>
        <pt x="759" y="854" on="1"/>
        <pt x="568" y="737" on="1"/>
        <pt x="474" y="894" on="1"/>
        <pt x="432" y="814" on="1"/>
        <pt x="429" y="808" on="0"/>
        <pt x="419" y="790" on="0"/>
        <pt x="414" y="780" on="0"/>
        <pt x="407" y="767" on="0"/>
        <pt x="402" y="760" on="0"/>
        <pt x="395" y="751" on="0"/>
        <pt x="390" y="746" on="0"/>
        <pt x="383" y="742" on="0"/>
        <pt x="376" y="740" on="0"/>
      </contour>
    </TTGlyph>
    <TTGlyph name="at" xMin="72" yMin="-12" xMax="1592" yMax="1502">
      <contour>
        <pt x="72" y="724" on="1"/>
        <pt x="72" y="866" on="0"/>
        <pt x="159" y="1116" on="0"/>
        <pt x="309" y="1301" on="0"/>
        <pt x="508" y="1435" on="0"/>
        <pt x="737" y="1502" on="0"/>
        <pt x="856" y="1502" on="1"/>
        <pt x="998" y="1502" on="0"/>
        <pt x="1262" y="1419" on="0"/>
        <pt x="1468" y="1270" on="0"/>
        <pt x="1592" y="1041" on="0"/>
        <pt x="1592" y="904" on="1"/>
        <pt x="1592" y="755" on="0"/>
        <pt x="1485" y="482" on="0"/>
        <pt x="1309" y="316" on="0"/>
        <pt x="1214" y="316" on="1"/>
        <pt x="1091" y="316" on="0"/>
        <pt x="1028" y="480" on="1"/>
        <pt x="969" y="408" on="0"/>
        <pt x="837" y="336" on="0"/>
        <pt x="732" y="336" on="1"/>
        <pt x="609" y="336" on="0"/>
        <pt x="424" y="515" on="0"/>
        <pt x="424" y="640" on="1"/>
        <pt x="424" y="676" on="1"/>
        <pt x="424" y="780" on="0"/>
        <pt x="519" y="970" on="0"/>
        <pt x="710" y="1096" on="0"/>
        <pt x="832" y="1096" on="1"/>
        <pt x="964" y="1096" on="0"/>
        <pt x="1044" y="1016" on="1"/>
        <pt x="1092" y="944" on="1"/>
        <pt x="1106" y="990" on="0"/>
        <pt x="1130" y="1086" on="1"/>
        <pt x="1252" y="1086" on="1"/>
        <pt x="1160" y="579" on="1"/>
        <pt x="1160" y="468" on="0"/>
        <pt x="1248" y="468" on="1"/>
        <pt x="1342" y="508" on="0"/>
        <pt x="1424" y="702" on="0"/>
        <pt x="1424" y="816" on="1"/>
        <pt x="1424" y="931" on="0"/>
        <pt x="1364" y="1113" on="0"/>
        <pt x="1262" y="1231" on="0"/>
        <pt x="1119" y="1308" on="0"/>
        <pt x="963" y="1340" on="0"/>
        <pt x="874" y="1340" on="1"/>
        <pt x="752" y="1340" on="0"/>
        <pt x="534" y="1258" on="0"/>
        <pt x="363" y="1104" on="0"/>
        <pt x="262" y="859" on="0"/>
        <pt x="262" y="708" on="1"/>
        <pt x="262" y="610" on="0"/>
        <pt x="327" y="433" on="0"/>
        <pt x="443" y="300" on="0"/>
        <pt x="596" y="202" on="0"/>
        <pt x="777" y="152" on="0"/>
        <pt x="872" y="152" on="1"/>
        <pt x="994" y="152" on="0"/>
        <pt x="1108" y="186" on="1"/>
        <pt x="1156" y="40" on="1"/>
        <pt x="1020" y="-12" on="0"/>
        <pt x="812" y="-12" on="1"/>
        <pt x="667" y="-12" on="0"/>
        <pt x="397" y="101" on="0"/>
        <pt x="194" y="295" on="0"/>
        <pt x="72" y="570" on="0"/>
      </contour>
      <contour>
        <pt x="632" y="692" on="1"/>
        <pt x="632" y="606" on="0"/>
        <pt x="707" y="508" on="0"/>
        <pt x="764" y="508" on="1"/>
        <pt x="876" y="508" on="0"/>
        <pt x="1014" y="651" on="0"/>
        <pt x="1014" y="748" on="1"/>
        <pt x="1014" y="825" on="0"/>
        <pt x="921" y="912" on="0"/>
        <pt x="858" y="912" on="1"/>
        <pt x="761" y="912" on="0"/>
        <pt x="645" y="787" on="0"/>
      </contour>
    </TTGlyph>
    <TTGlyph name="atilde" xMin="-32" yMin="38" xMax="1508" yMax="1864">
      <component glyphName="tilde" x="404" y="116" flags="0x4"/>
      <component glyphName="a" x="0" y="0" flags="0x4"/>
    </TTGlyph>
    <TTGlyph name="b" xMin="88" yMin="44" xMax="1360" yMax="1388">
      <contour>
        <pt x="1142" y="748" on="1"/>
        <pt x="1193" y="748" on="0"/>
        <pt x="1279" y="684" on="0"/>
        <pt x="1331" y="587" on="0"/>
        <pt x="1360" y="482" on="0"/>
        <pt x="1360" y="436" on="1"/>
        <pt x="1356" y="314" on="0"/>
        <pt x="1225" y="133" on="0"/>
        <pt x="1116" y="94" on="1"/>
        <pt x="1032" y="44" on="1"/>
        <pt x="88" y="44" on="1"/>
        <pt x="88" y="1388" on="1"/>
        <pt x="848" y="1388" on="1"/>
        <pt x="1074" y="1388" on="0"/>
        <pt x="1206" y="1292" on="1"/>
        <pt x="1264" y="1254" on="0"/>
        <pt x="1324" y="1110" on="0"/>
        <pt x="1324" y="1030" on="1"/>
        <pt x="1324" y="928" on="0"/>
        <pt x="1235" y="804" on="0"/>
      </contour>
      <contour>
        <pt x="624" y="620" on="1"/>
        <pt x="584" y="371" on="1"/>
        <pt x="584" y="367" on="0"/>
        <pt x="612" y="356" on="0"/>
        <pt x="622" y="354" on="1"/>
        <pt x="700" y="354" on="1"/>
        <pt x="765" y="359" on="0"/>
        <pt x="844" y="414" on="0"/>
        <pt x="844" y="478" on="1"/>
        <pt x="844" y="501" on="0"/>
        <pt x="834" y="539" on="0"/>
        <pt x="819" y="567" on="0"/>
        <pt x="793" y="589" on="0"/>
        <pt x="770" y="603" on="0"/>
        <pt x="732" y="612" on="0"/>
        <pt x="707" y="617" on="0"/>
        <pt x="666" y="620" on="0"/>
        <pt x="644" y="620" on="0"/>
      </contour>
      <contour>
        <pt x="604" y="1060" on="1"/>
        <pt x="612" y="1015" on="0"/>
        <pt x="612" y="956" on="1"/>
        <pt x="612" y="936" on="1"/>
        <pt x="612" y="933" on="0"/>
        <pt x="610" y="919" on="0"/>
        <pt x="610" y="916" on="1"/>
        <pt x="610" y="912" on="0"/>
        <pt x="612" y="885" on="0"/>
        <pt x="612" y="876" on="1"/>
        <pt x="612" y="844" on="1"/>
        <pt x="612" y="833" on="0"/>
        <pt x="620" y="830" on="1"/>
        <pt x="646" y="830" on="0"/>
        <pt x="676" y="832" on="0"/>
        <pt x="733" y="838" on="0"/>
        <pt x="769" y="856" on="0"/>
        <pt x="807" y="885" on="0"/>
        <pt x="826" y="935" on="0"/>
        <pt x="826" y="968" on="1"/>
        <pt x="826" y="1013" on="0"/>
        <pt x="766" y="1069" on="0"/>
        <pt x="690" y="1086" on="0"/>
        <pt x="642" y="1086" on="1"/>
        <pt x="638" y="1084" on="0"/>
        <pt x="620" y="1084" on="1"/>
        <pt x="620" y="1086" on="1"/>
        <pt x="604" y="1080" on="0"/>
      </contour>
    </TTGlyph>
    <TTGlyph name="backslash" xMin="-35" yMin="-76" xMax="857" yMax="1548">
      <contour>
        <pt x="-35" y="1524" on="1"/>
        <pt x="-35" y="1539" on="0"/>
        <pt x="-17" y="1548" on="1"/>
        <pt x="85" y="1542" on="0"/>
        <pt x="189" y="1542" on="1"/>
        <pt x="198" y="1542" on="0"/>
        <pt x="221" y="1543" on="0"/>
        <pt x="240" y="1544" on="0"/>
        <pt x="263" y="1545" on="0"/>
        <pt x="272" y="1545" on="1"/>
        <pt x="857" y="-33" on="1"/>
        <pt x="857" y="-48" on="0"/>
        <pt x="834" y="-68" on="0"/>
        <pt x="817" y="-70" on="1"/>
        <pt x="777" y="-70" on="1"/>
        <pt x="764" y="-70" on="0"/>
        <pt x="708" y="-72" on="0"/>
        <pt x="695" y="-72" on="1"/>
        <pt x="679" y="-72" on="0"/>
        <pt x="605" y="-70" on="0"/>
        <pt x="585" y="-70" on="1"/>
        <pt x="523" y="-70" on="0"/>
        <pt x="497" y="-76" on="1"/>
      </contour>
    </TTGlyph>
    <TTGlyph name="bar" xMin="70" yMin="-80" xMax="412" yMax="1550">
      <contour>
        <pt x="70" y="-40" on="1"/>
        <pt x="70" y="205" on="0"/>
        <pt x="88" y="1234" on="0"/>
        <pt x="88" y="1480" on="1"/>
        <pt x="88" y="1508" on="1"/>
        <pt x="88" y="1527" on="0"/>
        <pt x="105" y="1547" on="0"/>
        <pt x="130" y="1549" on="0"/>
        <pt x="159" y="1550" on="0"/>
        <pt x="172" y="1550" on="1"/>
        <pt x="310" y="1550" on="1"/>
        <pt x="323" y="1550" on="0"/>
        <pt x="353" y="1550" on="0"/>
        <pt x="379" y="1549" on="0"/>
        <pt x="396" y="1533" on="0"/>
        <pt x="396" y="1516" on="1"/>
        <pt x="396" y="1134" on="1"/>
        <pt x="404" y="570" on="0"/>
        <pt x="412" y="288" on="1"/>
        <pt x="412" y="-40" on="1"/>
        <pt x="401" y="-80" on="0"/>
        <pt x="308" y="-80" on="1"/>
        <pt x="248" y="-80" on="1"/>
        <pt x="136" y="-80" on="0"/>
        <pt x="102" y="-74" on="1"/>
      </contour>
    </TTGlyph>
    <TTGlyph name="braceleft" xMin="42" yMin="-312" xMax="924" yMax="1512">
      <contour>
        <pt x="704" y="-312" on="1"/>
        <pt x="628" y="-312" on="0"/>
        <pt x="506" y="-300" on="0"/>
        <pt x="379" y="-263" on="0"/>
        <pt x="295" y="-202" on="0"/>
        <pt x="243" y="-96" on="0"/>
        <pt x="244" y="-24" on="1"/>
        <pt x="241" y="36" on="0"/>
        <pt x="239" y="158" on="0"/>
        <pt x="239" y="229" on="0"/>
        <pt x="238" y="300" on="0"/>
        <pt x="232" y="336" on="0"/>
        <pt x="222" y="371" on="0"/>
        <pt x="199" y="386" on="0"/>
        <pt x="169" y="397" on="0"/>
        <pt x="144" y="400" on="1"/>
        <pt x="132" y="402" on="0"/>
        <pt x="100" y="406" on="0"/>
        <pt x="79" y="409" on="0"/>
        <pt x="58" y="414" on="0"/>
        <pt x="48" y="424" on="0"/>
        <pt x="48" y="432" on="1"/>
        <pt x="48" y="478" on="0"/>
        <pt x="42" y="656" on="0"/>
        <pt x="42" y="706" on="1"/>
        <pt x="42" y="774" on="0"/>
        <pt x="68" y="786" on="1"/>
        <pt x="100" y="786" on="0"/>
        <pt x="148" y="792" on="0"/>
        <pt x="202" y="808" on="0"/>
        <pt x="233" y="846" on="0"/>
        <pt x="236" y="874" on="1"/>
        <pt x="236" y="1162" on="1"/>
        <pt x="236" y="1229" on="0"/>
        <pt x="264" y="1336" on="0"/>
        <pt x="308" y="1407" on="0"/>
        <pt x="380" y="1460" on="0"/>
        <pt x="448" y="1488" on="0"/>
        <pt x="546" y="1506" on="0"/>
        <pt x="620" y="1511" on="0"/>
        <pt x="672" y="1512" on="1"/>
        <pt x="888" y="1512" on="1"/>
        <pt x="924" y="1478" on="1"/>
        <pt x="924" y="1422" on="0"/>
        <pt x="922" y="1206" on="0"/>
        <pt x="922" y="1150" on="1"/>
        <pt x="916" y="1118" on="0"/>
        <pt x="884" y="1118" on="1"/>
        <pt x="873" y="1118" on="0"/>
        <pt x="829" y="1120" on="0"/>
        <pt x="820" y="1120" on="1"/>
        <pt x="774" y="1120" on="0"/>
        <pt x="729" y="1081" on="0"/>
        <pt x="728" y="1024" on="1"/>
        <pt x="728" y="788" on="1"/>
        <pt x="728" y="661" on="0"/>
        <pt x="564" y="592" on="1"/>
        <pt x="598" y="592" on="1"/>
        <pt x="672" y="558" on="0"/>
        <pt x="722" y="430" on="0"/>
        <pt x="722" y="304" on="1"/>
        <pt x="722" y="268" on="1"/>
        <pt x="722" y="255" on="0"/>
        <pt x="720" y="209" on="0"/>
        <pt x="720" y="196" on="1"/>
        <pt x="720" y="155" on="0"/>
        <pt x="727" y="112" on="0"/>
        <pt x="753" y="75" on="0"/>
        <pt x="806" y="62" on="0"/>
        <pt x="852" y="62" on="1"/>
        <pt x="904" y="62" on="0"/>
        <pt x="912" y="40" on="1"/>
        <pt x="912" y="-104" on="1"/>
        <pt x="912" y="-303" on="0"/>
        <pt x="884" y="-312" on="1"/>
      </contour>
    </TTGlyph>
    <TTGlyph name="braceright" xMin="86" yMin="-320" xMax="966" yMax="1496">
      <contour>
        <pt x="86" y="-276" on="1"/>
        <pt x="87" y="-241" on="0"/>
        <pt x="90" y="-115" on="0"/>
        <pt x="92" y="-11" on="0"/>
        <pt x="92" y="36" on="1"/>
        <pt x="92" y="65" on="0"/>
        <pt x="122" y="68" on="1"/>
        <pt x="178" y="68" on="1"/>
        <pt x="229" y="68" on="0"/>
        <pt x="284" y="111" on="0"/>
        <pt x="284" y="172" on="1"/>
        <pt x="284" y="181" on="0"/>
        <pt x="282" y="279" on="0"/>
        <pt x="282" y="312" on="1"/>
        <pt x="287" y="451" on="0"/>
        <pt x="355" y="568" on="0"/>
        <pt x="452" y="596" on="1"/>
        <pt x="356" y="624" on="0"/>
        <pt x="290" y="730" on="0"/>
        <pt x="290" y="852" on="1"/>
        <pt x="289" y="870" on="0"/>
        <pt x="292" y="934" on="0"/>
        <pt x="292" y="944" on="1"/>
        <pt x="292" y="1020" on="1"/>
        <pt x="292" y="1081" on="0"/>
        <pt x="235" y="1124" on="0"/>
        <pt x="150" y="1124" on="1"/>
        <pt x="123" y="1124" on="0"/>
        <pt x="100" y="1133" on="0"/>
        <pt x="100" y="1148" on="1"/>
        <pt x="100" y="1177" on="0"/>
        <pt x="102" y="1299" on="0"/>
        <pt x="102" y="1328" on="1"/>
        <pt x="102" y="1348" on="0"/>
        <pt x="100" y="1362" on="1"/>
        <pt x="100" y="1404" on="1"/>
        <pt x="100" y="1480" on="0"/>
        <pt x="120" y="1496" on="1"/>
        <pt x="160" y="1492" on="0"/>
        <pt x="182" y="1492" on="1"/>
        <pt x="186" y="1492" on="0"/>
        <pt x="203" y="1494" on="0"/>
        <pt x="208" y="1494" on="1"/>
        <pt x="212" y="1494" on="0"/>
        <pt x="248" y="1492" on="0"/>
        <pt x="252" y="1492" on="1"/>
        <pt x="252" y="1494" on="0"/>
        <pt x="264" y="1494" on="1"/>
        <pt x="336" y="1494" on="1"/>
        <pt x="340" y="1494" on="0"/>
        <pt x="347" y="1494" on="1"/>
        <pt x="402" y="1494" on="0"/>
        <pt x="461" y="1492" on="0"/>
        <pt x="567" y="1478" on="0"/>
        <pt x="627" y="1450" on="0"/>
        <pt x="705" y="1393" on="0"/>
        <pt x="746" y="1312" on="0"/>
        <pt x="776" y="1185" on="0"/>
        <pt x="776" y="1104" on="1"/>
        <pt x="776" y="1060" on="1"/>
        <pt x="776" y="1022" on="0"/>
        <pt x="770" y="901" on="0"/>
        <pt x="770" y="880" on="1"/>
        <pt x="770" y="848" on="0"/>
        <pt x="797" y="807" on="0"/>
        <pt x="849" y="789" on="0"/>
        <pt x="893" y="784" on="0"/>
        <pt x="924" y="784" on="1"/>
        <pt x="966" y="773" on="0"/>
        <pt x="966" y="750" on="1"/>
        <pt x="966" y="726" on="0"/>
        <pt x="964" y="624" on="0"/>
        <pt x="964" y="568" on="0"/>
        <pt x="966" y="458" on="0"/>
        <pt x="966" y="430" on="1"/>
        <pt x="964" y="413" on="0"/>
        <pt x="923" y="400" on="0"/>
        <pt x="868" y="398" on="0"/>
        <pt x="814" y="391" on="0"/>
        <pt x="776" y="355" on="0"/>
        <pt x="776" y="322" on="1"/>
        <pt x="776" y="286" on="0"/>
        <pt x="778" y="268" on="1"/>
        <pt x="778" y="204" on="1"/>
        <pt x="778" y="186" on="0"/>
        <pt x="784" y="106" on="0"/>
        <pt x="784" y="84" on="1"/>
        <pt x="784" y="-13" on="0"/>
        <pt x="746" y="-159" on="0"/>
        <pt x="685" y="-247" on="0"/>
        <pt x="593" y="-301" on="0"/>
        <pt x="497" y="-320" on="0"/>
        <pt x="438" y="-320" on="1"/>
        <pt x="120" y="-320" on="1"/>
      </contour>
    </TTGlyph>
    <TTGlyph name="bracketleft" xMin="158" yMin="-326" xMax="984" yMax="1510">
      <contour>
        <pt x="160" y="-62" on="1"/>
        <pt x="160" y="-36" on="1"/>
        <pt x="160" y="-19" on="0"/>
        <pt x="160" y="244" on="0"/>
        <pt x="160" y="297" on="0"/>
        <pt x="160" y="535" on="0"/>
        <pt x="161" y="614" on="0"/>
        <pt x="163" y="826" on="0"/>
        <pt x="165" y="931" on="0"/>
        <pt x="168" y="1118" on="0"/>
        <pt x="173" y="1248" on="0"/>
        <pt x="178" y="1410" on="0"/>
        <pt x="182" y="1484" on="1"/>
        <pt x="182" y="1510" on="0"/>
        <pt x="234" y="1510" on="1"/>
        <pt x="854" y="1510" on="1"/>
        <pt x="932" y="1510" on="0"/>
        <pt x="980" y="1451" on="0"/>
        <pt x="980" y="1368" on="1"/>
        <pt x="980" y="1148" on="0"/>
        <pt x="958" y="1148" on="1"/>
        <pt x="946" y="1148" on="0"/>
        <pt x="882" y="1146" on="0"/>
        <pt x="866" y="1146" on="1"/>
        <pt x="775" y="1146" on="0"/>
        <pt x="652" y="1156" on="1"/>
        <pt x="652" y="64" on="1"/>
        <pt x="696" y="64" on="0"/>
        <pt x="867" y="68" on="0"/>
        <pt x="912" y="68" on="1"/>
        <pt x="950" y="68" on="1"/>
        <pt x="984" y="63" on="0"/>
        <pt x="984" y="-88" on="1"/>
        <pt x="984" y="-166" on="1"/>
        <pt x="984" y="-188" on="0"/>
        <pt x="982" y="-198" on="1"/>
        <pt x="982" y="-204" on="0"/>
        <pt x="984" y="-240" on="0"/>
        <pt x="984" y="-250" on="1"/>
        <pt x="984" y="-269" on="0"/>
        <pt x="980" y="-291" on="0"/>
        <pt x="962" y="-314" on="0"/>
        <pt x="944" y="-318" on="1"/>
        <pt x="821" y="-318" on="0"/>
        <pt x="327" y="-326" on="0"/>
        <pt x="204" y="-326" on="1"/>
        <pt x="160" y="-276" on="1"/>
        <pt x="160" y="-248" on="0"/>
        <pt x="158" y="-232" on="1"/>
        <pt x="158" y="-162" on="1"/>
        <pt x="158" y="-146" on="0"/>
        <pt x="160" y="-79" on="0"/>
      </contour>
    </TTGlyph>
    <TTGlyph name="bracketright" xMin="50" yMin="-320" xMax="874" yMax="1528">
      <contour>
        <pt x="852" y="-262" on="1"/>
        <pt x="852" y="-278" on="0"/>
        <pt x="838" y="-300" on="0"/>
        <pt x="811" y="-312" on="0"/>
        <pt x="782" y="-319" on="0"/>
        <pt x="740" y="-320" on="0"/>
        <pt x="707" y="-320" on="0"/>
        <pt x="661" y="-318" on="0"/>
        <pt x="648" y="-318" on="1"/>
        <pt x="624" y="-318" on="1"/>
        <pt x="579" y="-317" on="0"/>
        <pt x="400" y="-317" on="0"/>
        <pt x="356" y="-316" on="1"/>
        <pt x="92" y="-316" on="1"/>
        <pt x="80" y="-313" on="0"/>
        <pt x="64" y="-273" on="0"/>
        <pt x="58" y="-189" on="0"/>
        <pt x="57" y="-137" on="0"/>
        <pt x="58" y="-24" on="0"/>
        <pt x="58" y="-16" on="1"/>
        <pt x="58" y="34" on="0"/>
        <pt x="77" y="60" on="0"/>
        <pt x="104" y="60" on="1"/>
        <pt x="388" y="60" on="1"/>
        <pt x="388" y="154" on="1"/>
        <pt x="388" y="468" on="0"/>
        <pt x="376" y="1128" on="1"/>
        <pt x="252" y="1128" on="1"/>
        <pt x="224" y="1128" on="0"/>
        <pt x="112" y="1124" on="0"/>
        <pt x="84" y="1124" on="1"/>
        <pt x="68" y="1140" on="0"/>
        <pt x="50" y="1164" on="1"/>
        <pt x="50" y="1212" on="1"/>
        <pt x="50" y="1247" on="0"/>
        <pt x="52" y="1377" on="0"/>
        <pt x="52" y="1412" on="1"/>
        <pt x="52" y="1419" on="0"/>
        <pt x="50" y="1447" on="0"/>
        <pt x="50" y="1454" on="1"/>
        <pt x="50" y="1509" on="0"/>
        <pt x="76" y="1528" on="1"/>
        <pt x="102" y="1528" on="1"/>
        <pt x="142" y="1528" on="0"/>
        <pt x="304" y="1524" on="0"/>
        <pt x="344" y="1524" on="1"/>
        <pt x="389" y="1524" on="0"/>
        <pt x="571" y="1528" on="0"/>
        <pt x="616" y="1528" on="1"/>
        <pt x="656" y="1528" on="0"/>
        <pt x="816" y="1516" on="0"/>
        <pt x="856" y="1516" on="1"/>
        <pt x="860" y="1516" on="0"/>
        <pt x="872" y="1520" on="1"/>
        <pt x="872" y="1490" on="0"/>
        <pt x="874" y="1476" on="1"/>
        <pt x="874" y="1428" on="1"/>
        <pt x="874" y="1396" on="0"/>
        <pt x="872" y="1276" on="0"/>
        <pt x="872" y="1244" on="1"/>
        <pt x="872" y="1214" on="1"/>
        <pt x="873" y="973" on="0"/>
        <pt x="852" y="39" on="0"/>
        <pt x="852" y="-186" on="1"/>
      </contour>
    </TTGlyph>
    <TTGlyph name="breve" xMin="-100" yMin="1334" xMax="778" yMax="1752">
      <contour>
        <pt x="194" y="1752" on="1"/>
        <pt x="226" y="1752" on="0"/>
        <pt x="263" y="1725" on="0"/>
        <pt x="276" y="1686" on="0"/>
        <pt x="288" y="1647" on="0"/>
        <pt x="319" y="1620" on="0"/>
        <pt x="377" y="1620" on="0"/>
        <pt x="411" y="1652" on="0"/>
        <pt x="421" y="1691" on="0"/>
        <pt x="439" y="1733" on="0"/>
        <pt x="452" y="1740" on="1"/>
        <pt x="485" y="1738" on="0"/>
        <pt x="605" y="1737" on="0"/>
        <pt x="624" y="1736" on="1"/>
        <pt x="738" y="1736" on="1"/>
        <pt x="778" y="1736" on="0"/>
        <pt x="778" y="1704" on="1"/>
        <pt x="757" y="1580" on="0"/>
        <pt x="625" y="1409" on="0"/>
        <pt x="448" y="1334" on="0"/>
        <pt x="340" y="1334" on="1"/>
        <pt x="157" y="1334" on="0"/>
        <pt x="-59" y="1531" on="0"/>
        <pt x="-100" y="1708" on="1"/>
        <pt x="-100" y="1730" on="1"/>
        <pt x="-98" y="1732" on="0"/>
        <pt x="-71" y="1748" on="0"/>
        <pt x="-68" y="1752" on="1"/>
      </contour>
    </TTGlyph>
    <TTGlyph name="brokenbar" xMin="80" yMin="-360" xMax="396" yMax="1550">
      <contour>
        <pt x="80" y="-320" on="1"/>
        <pt x="80" y="-161" on="0"/>
        <pt x="85" y="186" on="0"/>
        <pt x="90" y="420" on="0"/>
        <pt x="90" y="442" on="1"/>
        <pt x="90" y="448" on="0"/>
        <pt x="88" y="466" on="0"/>
        <pt x="88" y="468" on="1"/>
        <pt x="88" y="496" on="0"/>
        <pt x="104" y="512" on="1"/>
        <pt x="396" y="512" on="1"/>
        <pt x="396" y="-320" on="1"/>
        <pt x="385" y="-360" on="0"/>
        <pt x="302" y="-360" on="1"/>
        <pt x="112" y="-360" on="1"/>
      </contour>
      <contour>
        <pt x="80" y="778" on="1"/>
        <pt x="80" y="924" on="0"/>
        <pt x="85" y="1244" on="0"/>
        <pt x="90" y="1461" on="0"/>
        <pt x="90" y="1480" on="1"/>
        <pt x="90" y="1485" on="0"/>
        <pt x="88" y="1503" on="0"/>
        <pt x="88" y="1508" on="1"/>
        <pt x="88" y="1527" on="0"/>
        <pt x="104" y="1547" on="0"/>
        <pt x="129" y="1549" on="0"/>
        <pt x="158" y="1550" on="0"/>
        <pt x="172" y="1550" on="1"/>
        <pt x="312" y="1550" on="1"/>
        <pt x="325" y="1550" on="0"/>
        <pt x="354" y="1550" on="0"/>
        <pt x="379" y="1549" on="0"/>
        <pt x="396" y="1533" on="0"/>
        <pt x="396" y="1516" on="1"/>
        <pt x="396" y="780" on="1"/>
        <pt x="386" y="740" on="0"/>
        <pt x="302" y="740" on="1"/>
        <pt x="112" y="740" on="1"/>
      </contour>
    </TTGlyph>
    <TTGlyph name="bullet" xMin="156" yMin="332" xMax="978" yMax="1136">
      <contour>
        <pt x="156" y="730" on="1"/>
        <pt x="156" y="734" on="1"/>
        <pt x="165" y="811" on="0"/>
        <pt x="221" y="949" on="0"/>
        <pt x="318" y="1067" on="0"/>
        <pt x="471" y="1136" on="0"/>
        <pt x="566" y="1136" on="1"/>
        <pt x="673" y="1136" on="0"/>
        <pt x="861" y="1033" on="0"/>
        <pt x="978" y="847" on="0"/>
        <pt x="978" y="621" on="0"/>
        <pt x="865" y="435" on="0"/>
        <pt x="681" y="332" on="0"/>
        <pt x="574" y="332" on="1"/>
        <pt x="481" y="332" on="0"/>
        <pt x="326" y="402" on="0"/>
        <pt x="225" y="518" on="0"/>
        <pt x="165" y="656" on="0"/>
      </contour>
    </TTGlyph>
    <TTGlyph name="c" xMin="36" yMin="8" xMax="1356" yMax="1414">
      <contour>
        <pt x="728" y="8" on="1"/>
        <pt x="561" y="8" on="0"/>
        <pt x="295" y="121" on="0"/>
        <pt x="125" y="321" on="0"/>
        <pt x="36" y="588" on="0"/>
        <pt x="36" y="746" on="1"/>
        <pt x="36" y="760" on="1"/>
        <pt x="37" y="767" on="0"/>
        <pt x="42" y="822" on="0"/>
        <pt x="43" y="839" on="0"/>
        <pt x="49" y="887" on="0"/>
        <pt x="53" y="909" on="0"/>
        <pt x="60" y="951" on="0"/>
        <pt x="69" y="978" on="0"/>
        <pt x="81" y="1016" on="0"/>
        <pt x="95" y="1050" on="0"/>
        <pt x="104" y="1068" on="1"/>
        <pt x="104" y="1066" on="1"/>
        <pt x="150" y="1162" on="0"/>
        <pt x="290" y="1302" on="0"/>
        <pt x="458" y="1379" on="0"/>
        <pt x="634" y="1414" on="0"/>
        <pt x="732" y="1414" on="1"/>
        <pt x="856" y="1414" on="0"/>
        <pt x="1056" y="1365" on="0"/>
        <pt x="1188" y="1283" on="0"/>
        <pt x="1282" y="1166" on="0"/>
        <pt x="1330" y="1042" on="0"/>
        <pt x="1340" y="970" on="1"/>
        <pt x="1340" y="884" on="1"/>
        <pt x="1337" y="870" on="0"/>
        <pt x="1313" y="855" on="0"/>
        <pt x="1285" y="852" on="0"/>
        <pt x="1260" y="852" on="1"/>
        <pt x="832" y="852" on="1"/>
        <pt x="832" y="938" on="1"/>
        <pt x="827" y="972" on="0"/>
        <pt x="779" y="1028" on="0"/>
        <pt x="744" y="1028" on="1"/>
        <pt x="713" y="1028" on="0"/>
        <pt x="666" y="1002" on="0"/>
        <pt x="639" y="959" on="0"/>
        <pt x="622" y="902" on="0"/>
        <pt x="617" y="839" on="0"/>
        <pt x="614" y="774" on="0"/>
        <pt x="616" y="745" on="1"/>
        <pt x="616" y="725" on="0"/>
        <pt x="616" y="716" on="1"/>
        <pt x="616" y="604" on="1"/>
        <pt x="616" y="579" on="0"/>
        <pt x="621" y="532" on="0"/>
        <pt x="640" y="458" on="0"/>
        <pt x="688" y="412" on="0"/>
        <pt x="724" y="412" on="1"/>
        <pt x="762" y="412" on="0"/>
        <pt x="799" y="476" on="0"/>
        <pt x="824" y="566" on="0"/>
        <pt x="840" y="582" on="1"/>
        <pt x="880" y="582" on="0"/>
        <pt x="1040" y="580" on="0"/>
        <pt x="1080" y="580" on="1"/>
        <pt x="1108" y="580" on="0"/>
        <pt x="1218" y="582" on="0"/>
        <pt x="1246" y="582" on="1"/>
        <pt x="1320" y="582" on="1"/>
        <pt x="1353" y="582" on="0"/>
        <pt x="1356" y="542" on="1"/>
        <pt x="1356" y="504" on="1"/>
        <pt x="1334" y="305" on="0"/>
        <pt x="1084" y="61" on="0"/>
        <pt x="896" y="28" on="1"/>
        <pt x="896" y="22" on="1"/>
        <pt x="829" y="8" on="0"/>
      </contour>
    </TTGlyph>
    <TTGlyph name="cacute" xMin="36" yMin="8" xMax="1356" yMax="1909">
      <component glyphName="c" x="0" y="0" flags="0x204"/>
      <component glyphName="acute" x="400" y="140" flags="0x4"/>
    </TTGlyph>
    <TTGlyph name="caron" xMin="-138" yMin="1344" xMax="845" yMax="1752">
      <contour>
        <pt x="-138" y="1718" on="1"/>
        <pt x="-138" y="1738" on="0"/>
        <pt x="-107" y="1752" on="1"/>
        <pt x="-52" y="1752" on="0"/>
        <pt x="155" y="1744" on="0"/>
        <pt x="213" y="1744" on="1"/>
        <pt x="255" y="1744" on="0"/>
        <pt x="295" y="1720" on="0"/>
        <pt x="323" y="1670" on="1"/>
        <pt x="361" y="1604" on="1"/>
        <pt x="377" y="1625" on="0"/>
        <pt x="437" y="1723" on="0"/>
        <pt x="453" y="1744" on="1"/>
        <pt x="496" y="1744" on="0"/>
        <pt x="659" y="1742" on="0"/>
        <pt x="699" y="1742" on="1"/>
        <pt x="827" y="1742" on="1"/>
        <pt x="845" y="1742" on="0"/>
        <pt x="845" y="1720" on="1"/>
        <pt x="845" y="1713" on="0"/>
        <pt x="839" y="1697" on="0"/>
        <pt x="826" y="1674" on="0"/>
        <pt x="817" y="1660" on="0"/>
        <pt x="796" y="1630" on="0"/>
        <pt x="793" y="1626" on="1"/>
        <pt x="714" y="1512" on="0"/>
        <pt x="681" y="1460" on="1"/>
        <pt x="675" y="1451" on="0"/>
        <pt x="649" y="1408" on="0"/>
        <pt x="637" y="1392" on="0"/>
        <pt x="609" y="1364" on="0"/>
        <pt x="580" y="1353" on="0"/>
        <pt x="532" y="1344" on="0"/>
        <pt x="501" y="1344" on="1"/>
        <pt x="101" y="1344" on="1"/>
      </contour>
    </TTGlyph>
    <TTGlyph name="ccaron" xMin="36" yMin="8" xMax="1356" yMax="1934">
      <component glyphName="caron" x="341" y="182" flags="0x4"/>
      <component glyphName="c" x="0" y="0" flags="0x4"/>
    </TTGlyph>
    <TTGlyph name="ccedilla" xMin="36" yMin="-516" xMax="1356" yMax="1414">
      <component glyphName="cedilla" x="392" y="0" flags="0x4"/>
      <component glyphName="c" x="0" y="0" flags="0x4"/>
    </TTGlyph>
    <TTGlyph name="ccircumflex" xMin="36" yMin="8" xMax="1356" yMax="1932">
      <component glyphName="circumflex" x="335" y="178" flags="0x4"/>
      <component glyphName="c" x="0" y="0" flags="0x4"/>
    </TTGlyph>
    <TTGlyph name="cdotaccent" xMin="36" yMin="8" xMax="1356" yMax="1922">
      <component glyphName="dotaccent" x="370" y="430" flags="0x4"/>
      <component glyphName="c" x="0" y="0" flags="0x4"/>
    </TTGlyph>
    <TTGlyph name="cedilla" xMin="-10" yMin="-516" xMax="616" yMax="38">
      <contour>
        <pt x="-10" y="-432" on="1"/>
        <pt x="-10" y="-416" on="0"/>
        <pt x="6" y="-380" on="1"/>
        <pt x="6" y="-352" on="1"/>
        <pt x="17" y="-331" on="0"/>
        <pt x="29" y="-309" on="0"/>
        <pt x="57" y="-281" on="0"/>
        <pt x="72" y="-280" on="1"/>
        <pt x="136" y="-304" on="1"/>
        <pt x="192" y="-327" on="0"/>
        <pt x="240" y="-324" on="1"/>
        <pt x="324" y="-324" on="0"/>
        <pt x="324" y="-284" on="1"/>
        <pt x="321" y="-260" on="0"/>
        <pt x="280" y="-260" on="1"/>
        <pt x="268" y="-260" on="0"/>
        <pt x="260" y="-264" on="1"/>
        <pt x="228" y="-264" on="1"/>
        <pt x="228" y="-276" on="1"/>
        <pt x="201" y="-276" on="0"/>
        <pt x="188" y="-268" on="1"/>
        <pt x="144" y="-236" on="1"/>
        <pt x="130" y="-229" on="0"/>
        <pt x="100" y="-199" on="0"/>
        <pt x="95" y="-181" on="1"/>
        <pt x="221" y="38" on="1"/>
        <pt x="400" y="38" on="1"/>
        <pt x="432" y="35" on="0"/>
        <pt x="432" y="4" on="1"/>
        <pt x="432" y="-5" on="0"/>
        <pt x="415" y="-35" on="0"/>
        <pt x="391" y="-69" on="0"/>
        <pt x="388" y="-76" on="1"/>
        <pt x="496" y="-76" on="0"/>
        <pt x="616" y="-183" on="0"/>
        <pt x="616" y="-270" on="1"/>
        <pt x="616" y="-347" on="0"/>
        <pt x="522" y="-461" on="0"/>
        <pt x="374" y="-516" on="0"/>
        <pt x="286" y="-516" on="1"/>
        <pt x="190" y="-516" on="0"/>
        <pt x="-10" y="-466" on="0"/>
      </contour>
    </TTGlyph>
    <TTGlyph name="cent" xMin="132" yMin="-276" xMax="1360" yMax="1316">
      <contour>
        <pt x="1360" y="380" on="1"/>
        <pt x="1353" y="284" on="0"/>
        <pt x="1288" y="139" on="0"/>
        <pt x="1173" y="41" on="0"/>
        <pt x="1043" y="-22" on="0"/>
        <pt x="952" y="-48" on="1"/>
        <pt x="956" y="-160" on="0"/>
        <pt x="956" y="-220" on="1"/>
        <pt x="956" y="-249" on="0"/>
        <pt x="939" y="-276" on="0"/>
        <pt x="916" y="-276" on="1"/>
        <pt x="846" y="-276" on="1"/>
        <pt x="810" y="-276" on="0"/>
        <pt x="666" y="-272" on="0"/>
        <pt x="630" y="-272" on="1"/>
        <pt x="592" y="-230" on="1"/>
        <pt x="592" y="-54" on="1"/>
        <pt x="526" y="-54" on="1"/>
        <pt x="330" y="-1" on="0"/>
        <pt x="132" y="308" on="0"/>
        <pt x="132" y="536" on="1"/>
        <pt x="132" y="944" on="0"/>
        <pt x="600" y="1082" on="1"/>
        <pt x="600" y="1119" on="0"/>
        <pt x="598" y="1254" on="0"/>
        <pt x="598" y="1286" on="1"/>
        <pt x="601" y="1313" on="0"/>
        <pt x="620" y="1316" on="1"/>
        <pt x="932" y="1316" on="1"/>
        <pt x="930" y="1280" on="0"/>
        <pt x="930" y="1192" on="1"/>
        <pt x="930" y="1160" on="1"/>
        <pt x="930" y="1108" on="0"/>
        <pt x="928" y="1082" on="1"/>
        <pt x="1104" y="1074" on="0"/>
        <pt x="1321" y="865" on="0"/>
        <pt x="1344" y="662" on="1"/>
        <pt x="1344" y="640" on="0"/>
        <pt x="1216" y="640" on="1"/>
        <pt x="1197" y="640" on="0"/>
        <pt x="1135" y="642" on="0"/>
        <pt x="1128" y="642" on="1"/>
        <pt x="1093" y="642" on="0"/>
        <pt x="956" y="640" on="0"/>
        <pt x="884" y="640" on="0"/>
        <pt x="856" y="653" on="0"/>
        <pt x="856" y="674" on="1"/>
        <pt x="856" y="800" on="0"/>
        <pt x="782" y="800" on="1"/>
        <pt x="746" y="800" on="0"/>
        <pt x="696" y="748" on="0"/>
        <pt x="673" y="663" on="0"/>
        <pt x="664" y="588" on="0"/>
        <pt x="664" y="548" on="1"/>
        <pt x="664" y="504" on="1"/>
        <pt x="664" y="466" on="0"/>
        <pt x="666" y="448" on="1"/>
        <pt x="666" y="392" on="1"/>
        <pt x="666" y="368" on="0"/>
        <pt x="673" y="325" on="0"/>
        <pt x="692" y="279" on="0"/>
        <pt x="732" y="252" on="0"/>
        <pt x="760" y="252" on="1"/>
        <pt x="803" y="252" on="0"/>
        <pt x="856" y="297" on="0"/>
        <pt x="871" y="349" on="0"/>
        <pt x="881" y="407" on="0"/>
        <pt x="884" y="412" on="1"/>
        <pt x="1034" y="410" on="0"/>
        <pt x="1330" y="410" on="1"/>
        <pt x="1351" y="407" on="0"/>
      </contour>
    </TTGlyph>
    <TTGlyph name="circumflex" xMin="-138" yMin="1344" xMax="860" yMax="1754">
      <contour>
        <pt x="-138" y="1389" on="1"/>
        <pt x="45" y="1644" on="1"/>
        <pt x="56" y="1657" on="0"/>
        <pt x="82" y="1698" on="0"/>
        <pt x="97" y="1714" on="0"/>
        <pt x="133" y="1734" on="0"/>
        <pt x="192" y="1742" on="0"/>
        <pt x="241" y="1744" on="1"/>
        <pt x="596" y="1754" on="1"/>
        <pt x="860" y="1385" on="1"/>
        <pt x="860" y="1376" on="0"/>
        <pt x="846" y="1361" on="0"/>
        <pt x="821" y="1352" on="0"/>
        <pt x="805" y="1352" on="1"/>
        <pt x="737" y="1352" on="1"/>
        <pt x="577" y="1352" on="0"/>
        <pt x="449" y="1344" on="1"/>
        <pt x="426" y="1356" on="0"/>
        <pt x="394" y="1396" on="0"/>
        <pt x="361" y="1463" on="0"/>
        <pt x="355" y="1472" on="1"/>
        <pt x="351" y="1468" on="0"/>
        <pt x="315" y="1405" on="0"/>
        <pt x="273" y="1352" on="0"/>
        <pt x="257" y="1352" on="1"/>
        <pt x="-57" y="1352" on="1"/>
        <pt x="-89" y="1352" on="0"/>
        <pt x="-138" y="1371" on="0"/>
      </contour>
    </TTGlyph>
    <TTGlyph name="colon" xMin="106" yMin="-32" xMax="648" yMax="1076">
      <contour>
        <pt x="106" y="52" on="1"/>
        <pt x="106" y="214" on="0"/>
        <pt x="116" y="414" on="1"/>
        <pt x="116" y="444" on="0"/>
        <pt x="328" y="444" on="1"/>
        <pt x="412" y="444" on="1"/>
        <pt x="426" y="442" on="0"/>
        <pt x="448" y="442" on="1"/>
        <pt x="528" y="442" on="1"/>
        <pt x="636" y="442" on="0"/>
        <pt x="648" y="414" on="1"/>
        <pt x="648" y="4" on="1"/>
        <pt x="635" y="-32" on="0"/>
        <pt x="316" y="-32" on="1"/>
        <pt x="138" y="-32" on="1"/>
        <pt x="108" y="10" on="1"/>
        <pt x="108" y="18" on="0"/>
        <pt x="106" y="44" on="0"/>
      </contour>
      <contour>
        <pt x="110" y="680" on="1"/>
        <pt x="110" y="708" on="1"/>
        <pt x="110" y="720" on="0"/>
        <pt x="112" y="779" on="0"/>
        <pt x="112" y="796" on="1"/>
        <pt x="112" y="852" on="1"/>
        <pt x="112" y="1076" on="0"/>
        <pt x="144" y="1076" on="1"/>
        <pt x="528" y="1076" on="1"/>
        <pt x="648" y="1076" on="0"/>
        <pt x="648" y="1046" on="1"/>
        <pt x="648" y="668" on="1"/>
        <pt x="648" y="666" on="0"/>
        <pt x="648" y="663" on="1"/>
        <pt x="648" y="647" on="0"/>
        <pt x="647" y="631" on="0"/>
        <pt x="635" y="616" on="0"/>
        <pt x="624" y="616" on="1"/>
        <pt x="144" y="616" on="1"/>
        <pt x="112" y="648" on="1"/>
        <pt x="112" y="670" on="0"/>
      </contour>
    </TTGlyph>
    <TTGlyph name="comma" xMin="-7" yMin="-240" xMax="670" yMax="444">
      <contour>
        <pt x="-7" y="-206" on="1"/>
        <pt x="73" y="164" on="1"/>
        <pt x="97" y="276" on="0"/>
        <pt x="151" y="444" on="0"/>
        <pt x="165" y="444" on="1"/>
        <pt x="521" y="444" on="1"/>
        <pt x="542" y="444" on="0"/>
        <pt x="575" y="443" on="0"/>
        <pt x="611" y="441" on="0"/>
        <pt x="638" y="437" on="0"/>
        <pt x="659" y="432" on="0"/>
        <pt x="670" y="423" on="0"/>
        <pt x="670" y="417" on="1"/>
        <pt x="477" y="-216" on="1"/>
        <pt x="466" y="-240" on="0"/>
        <pt x="255" y="-240" on="1"/>
        <pt x="25" y="-240" on="1"/>
      </contour>
    </TTGlyph>
    <TTGlyph name="copyright" xMin="8" yMin="-64" xMax="1628" yMax="1538">
      <contour>
        <pt x="8" y="734" on="1"/>
        <pt x="8" y="883" on="0"/>
        <pt x="93" y="1141" on="0"/>
        <pt x="244" y="1332" on="0"/>
        <pt x="446" y="1469" on="0"/>
        <pt x="684" y="1538" on="0"/>
        <pt x="812" y="1538" on="1"/>
        <pt x="973" y="1538" on="0"/>
        <pt x="1270" y="1416" on="0"/>
        <pt x="1494" y="1204" on="0"/>
        <pt x="1628" y="898" on="0"/>
        <pt x="1628" y="724" on="1"/>
        <pt x="1628" y="571" on="0"/>
        <pt x="1496" y="281" on="0"/>
        <pt x="1278" y="66" on="0"/>
        <pt x="983" y="-64" on="0"/>
        <pt x="828" y="-64" on="1"/>
        <pt x="599" y="-64" on="0"/>
        <pt x="388" y="60" on="1"/>
        <pt x="304" y="109" on="0"/>
        <pt x="174" y="240" on="0"/>
        <pt x="95" y="372" on="0"/>
        <pt x="40" y="529" on="0"/>
        <pt x="15" y="660" on="0"/>
      </contour>
      <contour>
        <pt x="828" y="1304" on="1"/>
        <pt x="710" y="1304" on="0"/>
        <pt x="504" y="1212" on="0"/>
        <pt x="360" y="1056" on="0"/>
        <pt x="267" y="857" on="0"/>
        <pt x="250" y="746" on="1"/>
        <pt x="250" y="597" on="0"/>
        <pt x="400" y="334" on="0"/>
        <pt x="657" y="176" on="0"/>
        <pt x="806" y="176" on="1"/>
        <pt x="919" y="176" on="0"/>
        <pt x="1128" y="267" on="0"/>
        <pt x="1283" y="423" on="0"/>
        <pt x="1376" y="644" on="0"/>
        <pt x="1376" y="768" on="1"/>
        <pt x="1376" y="915" on="0"/>
        <pt x="1224" y="1161" on="0"/>
        <pt x="973" y="1301" on="0"/>
      </contour>
      <contour>
        <pt x="822" y="536" on="1"/>
        <pt x="852" y="536" on="0"/>
        <pt x="891" y="555" on="0"/>
        <pt x="908" y="583" on="0"/>
        <pt x="929" y="617" on="0"/>
        <pt x="951" y="645" on="0"/>
        <pt x="1001" y="664" on="0"/>
        <pt x="1038" y="664" on="1"/>
        <pt x="1154" y="664" on="1"/>
        <pt x="1175" y="664" on="0"/>
        <pt x="1202" y="660" on="0"/>
        <pt x="1224" y="641" on="0"/>
        <pt x="1224" y="624" on="1"/>
        <pt x="1200" y="469" on="0"/>
        <pt x="995" y="282" on="0"/>
        <pt x="852" y="282" on="1"/>
        <pt x="757" y="282" on="0"/>
        <pt x="600" y="336" on="0"/>
        <pt x="496" y="426" on="0"/>
        <pt x="424" y="547" on="0"/>
        <pt x="392" y="678" on="0"/>
        <pt x="392" y="748" on="1"/>
        <pt x="392" y="848" on="0"/>
        <pt x="470" y="1019" on="0"/>
        <pt x="598" y="1131" on="0"/>
        <pt x="759" y="1194" on="0"/>
        <pt x="844" y="1194" on="1"/>
        <pt x="998" y="1194" on="0"/>
        <pt x="1182" y="1019" on="0"/>
        <pt x="1216" y="872" on="1"/>
        <pt x="1216" y="840" on="0"/>
        <pt x="1148" y="840" on="1"/>
        <pt x="978" y="840" on="1"/>
        <pt x="956" y="849" on="0"/>
        <pt x="927" y="892" on="0"/>
        <pt x="914" y="929" on="0"/>
        <pt x="871" y="958" on="0"/>
        <pt x="834" y="958" on="1"/>
        <pt x="788" y="958" on="0"/>
        <pt x="722" y="916" on="0"/>
        <pt x="687" y="848" on="0"/>
        <pt x="672" y="776" on="0"/>
        <pt x="672" y="738" on="1"/>
        <pt x="672" y="654" on="0"/>
        <pt x="747" y="536" on="0"/>
      </contour>
    </TTGlyph>
    <TTGlyph name="currency" xMin="198" yMin="24" xMax="1368" yMax="1256">
      <contour>
        <pt x="344" y="252" on="1"/>
        <pt x="296" y="319" on="0"/>
        <pt x="236" y="516" on="0"/>
        <pt x="236" y="618" on="1"/>
        <pt x="236" y="678" on="0"/>
        <pt x="253" y="803" on="0"/>
        <pt x="314" y="965" on="0"/>
        <pt x="364" y="1018" on="1"/>
        <pt x="363" y="1019" on="1"/>
        <pt x="362" y="1020" on="1"/>
        <pt x="362" y="1021" on="1"/>
        <pt x="361" y="1021" on="1"/>
        <pt x="360" y="1022" on="1"/>
        <pt x="360" y="1023" on="1"/>
        <pt x="359" y="1023" on="1"/>
        <pt x="358" y="1024" on="1"/>
        <pt x="357" y="1025" on="1"/>
        <pt x="357" y="1026" on="1"/>
        <pt x="356" y="1027" on="1"/>
        <pt x="355" y="1027" on="1"/>
        <pt x="354" y="1028" on="1"/>
        <pt x="353" y="1029" on="1"/>
        <pt x="353" y="1030" on="1"/>
        <pt x="352" y="1031" on="1"/>
        <pt x="351" y="1032" on="1"/>
        <pt x="350" y="1033" on="1"/>
        <pt x="349" y="1034" on="1"/>
        <pt x="348" y="1034" on="1"/>
        <pt x="347" y="1035" on="1"/>
        <pt x="346" y="1036" on="1"/>
        <pt x="345" y="1037" on="1"/>
        <pt x="344" y="1038" on="1"/>
        <pt x="343" y="1039" on="1"/>
        <pt x="343" y="1040" on="1"/>
        <pt x="342" y="1041" on="1"/>
        <pt x="341" y="1042" on="1"/>
        <pt x="340" y="1043" on="1"/>
        <pt x="338" y="1045" on="1"/>
        <pt x="337" y="1046" on="1"/>
        <pt x="336" y="1047" on="1"/>
        <pt x="335" y="1048" on="1"/>
        <pt x="334" y="1049" on="1"/>
        <pt x="333" y="1050" on="1"/>
        <pt x="332" y="1051" on="1"/>
        <pt x="331" y="1052" on="1"/>
        <pt x="330" y="1053" on="1"/>
        <pt x="329" y="1055" on="1"/>
        <pt x="328" y="1056" on="1"/>
        <pt x="326" y="1057" on="1"/>
        <pt x="325" y="1058" on="1"/>
        <pt x="324" y="1059" on="1"/>
        <pt x="323" y="1061" on="1"/>
        <pt x="322" y="1062" on="1"/>
        <pt x="321" y="1063" on="1"/>
        <pt x="319" y="1064" on="1"/>
        <pt x="318" y="1066" on="1"/>
        <pt x="317" y="1067" on="1"/>
        <pt x="316" y="1068" on="1"/>
        <pt x="314" y="1070" on="1"/>
        <pt x="313" y="1071" on="1"/>
        <pt x="312" y="1072" on="1"/>
        <pt x="311" y="1073" on="1"/>
        <pt x="309" y="1075" on="1"/>
        <pt x="308" y="1076" on="1"/>
        <pt x="307" y="1077" on="1"/>
        <pt x="305" y="1079" on="1"/>
        <pt x="304" y="1080" on="1"/>
        <pt x="303" y="1082" on="1"/>
        <pt x="302" y="1083" on="1"/>
        <pt x="300" y="1084" on="1"/>
        <pt x="299" y="1086" on="1"/>
        <pt x="297" y="1087" on="1"/>
        <pt x="296" y="1089" on="1"/>
        <pt x="295" y="1090" on="1"/>
        <pt x="293" y="1091" on="1"/>
        <pt x="292" y="1093" on="1"/>
        <pt x="291" y="1094" on="1"/>
        <pt x="289" y="1096" on="1"/>
        <pt x="288" y="1097" on="1"/>
        <pt x="286" y="1099" on="1"/>
        <pt x="285" y="1100" on="1"/>
        <pt x="283" y="1102" on="1"/>
        <pt x="282" y="1103" on="1"/>
        <pt x="281" y="1105" on="1"/>
        <pt x="279" y="1106" on="1"/>
        <pt x="278" y="1108" on="1"/>
        <pt x="276" y="1109" on="1"/>
        <pt x="275" y="1111" on="1"/>
        <pt x="273" y="1112" on="1"/>
        <pt x="272" y="1114" on="1"/>
        <pt x="270" y="1116" on="1"/>
        <pt x="269" y="1117" on="1"/>
        <pt x="267" y="1119" on="1"/>
        <pt x="266" y="1120" on="1"/>
        <pt x="264" y="1122" on="1"/>
        <pt x="263" y="1124" on="1"/>
        <pt x="261" y="1125" on="1"/>
        <pt x="259" y="1127" on="1"/>
        <pt x="258" y="1128" on="1"/>
        <pt x="256" y="1130" on="1"/>
        <pt x="255" y="1132" on="1"/>
        <pt x="253" y="1133" on="1"/>
        <pt x="252" y="1135" on="1"/>
        <pt x="250" y="1137" on="1"/>
        <pt x="248" y="1138" on="1"/>
        <pt x="247" y="1140" on="1"/>
        <pt x="245" y="1142" on="1"/>
        <pt x="244" y="1143" on="1"/>
        <pt x="242" y="1145" on="1"/>
        <pt x="240" y="1147" on="1"/>
        <pt x="239" y="1148" on="1"/>
        <pt x="237" y="1150" on="1"/>
        <pt x="235" y="1152" on="1"/>
        <pt x="234" y="1154" on="1"/>
        <pt x="232" y="1155" on="1"/>
        <pt x="230" y="1157" on="1"/>
        <pt x="229" y="1159" on="1"/>
        <pt x="227" y="1161" on="1"/>
        <pt x="225" y="1162" on="1"/>
        <pt x="224" y="1164" on="1"/>
        <pt x="222" y="1166" on="1"/>
        <pt x="220" y="1168" on="1"/>
        <pt x="218" y="1169" on="1"/>
        <pt x="217" y="1171" on="1"/>
        <pt x="215" y="1173" on="1"/>
        <pt x="213" y="1175" on="1"/>
        <pt x="212" y="1177" on="1"/>
        <pt x="210" y="1178" on="1"/>
        <pt x="208" y="1180" on="1"/>
        <pt x="206" y="1182" on="1"/>
        <pt x="205" y="1184" on="1"/>
        <pt x="203" y="1186" on="1"/>
        <pt x="201" y="1187" on="1"/>
        <pt x="200" y="1189" on="1"/>
        <pt x="198" y="1191" on="1"/>
        <pt x="198" y="1203" on="0"/>
        <pt x="276" y="1256" on="0"/>
        <pt x="282" y="1256" on="1"/>
        <pt x="442" y="1084" on="1"/>
        <pt x="578" y="1176" on="0"/>
        <pt x="746" y="1176" on="1"/>
        <pt x="982" y="1176" on="0"/>
        <pt x="1102" y="1056" on="1"/>
        <pt x="1289" y="1255" on="1"/>
        <pt x="1300" y="1255" on="0"/>
        <pt x="1346" y="1220" on="0"/>
        <pt x="1356" y="1210" on="1"/>
        <pt x="1356" y="1212" on="1"/>
        <pt x="1362" y="1206" on="0"/>
        <pt x="1362" y="1200" on="1"/>
        <pt x="1362" y="1182" on="0"/>
        <pt x="1306" y="1122" on="1"/>
        <pt x="1190" y="1000" on="0"/>
        <pt x="1176" y="984" on="1"/>
        <pt x="1280" y="853" on="0"/>
        <pt x="1280" y="584" on="1"/>
        <pt x="1280" y="410" on="0"/>
        <pt x="1198" y="284" on="1"/>
        <pt x="1272" y="206" on="1"/>
        <pt x="1332" y="142" on="0"/>
        <pt x="1368" y="74" on="1"/>
        <pt x="1368" y="58" on="1"/>
        <pt x="1364" y="55" on="0"/>
        <pt x="1347" y="51" on="0"/>
        <pt x="1326" y="49" on="0"/>
        <pt x="1324" y="48" on="1"/>
        <pt x="1324" y="40" on="1"/>
        <pt x="1322" y="39" on="0"/>
        <pt x="1314" y="36" on="0"/>
        <pt x="1305" y="31" on="0"/>
        <pt x="1295" y="27" on="0"/>
        <pt x="1287" y="24" on="0"/>
        <pt x="1285" y="24" on="1"/>
        <pt x="1126" y="194" on="1"/>
        <pt x="1057" y="125" on="0"/>
        <pt x="899" y="67" on="0"/>
        <pt x="798" y="58" on="1"/>
        <pt x="752" y="58" on="1"/>
        <pt x="724" y="65" on="0"/>
        <pt x="574" y="88" on="0"/>
        <pt x="473" y="126" on="0"/>
        <pt x="420" y="168" on="1"/>
        <pt x="356" y="100" on="1"/>
        <pt x="294" y="34" on="0"/>
        <pt x="268" y="34" on="1"/>
        <pt x="262" y="34" on="0"/>
        <pt x="256" y="40" on="1"/>
        <pt x="224" y="40" on="1"/>
        <pt x="224" y="74" on="1"/>
        <pt x="229" y="84" on="0"/>
        <pt x="253" y="136" on="0"/>
        <pt x="264" y="157" on="0"/>
        <pt x="287" y="192" on="0"/>
        <pt x="300" y="206" on="1"/>
      </contour>
      <contour>
        <pt x="494" y="630" on="1"/>
        <pt x="494" y="487" on="0"/>
        <pt x="614" y="328" on="0"/>
        <pt x="720" y="328" on="1"/>
        <pt x="752" y="328" on="1"/>
        <pt x="776" y="328" on="0"/>
        <pt x="812" y="331" on="0"/>
        <pt x="868" y="343" on="0"/>
        <pt x="909" y="364" on="0"/>
        <pt x="955" y="406" on="0"/>
        <pt x="985" y="464" on="0"/>
        <pt x="1004" y="553" on="0"/>
        <pt x="1004" y="608" on="1"/>
        <pt x="1004" y="668" on="0"/>
        <pt x="987" y="762" on="0"/>
        <pt x="962" y="825" on="0"/>
        <pt x="919" y="869" on="0"/>
        <pt x="881" y="892" on="0"/>
        <pt x="825" y="905" on="0"/>
        <pt x="785" y="908" on="0"/>
        <pt x="756" y="908" on="1"/>
        <pt x="720" y="908" on="1"/>
        <pt x="689" y="908" on="0"/>
        <pt x="633" y="896" on="0"/>
        <pt x="570" y="859" on="0"/>
        <pt x="524" y="800" on="0"/>
        <pt x="494" y="697" on="0"/>
      </contour>
    </TTGlyph>
    <TTGlyph name="d" xMin="102" yMin="44" xMax="1412" yMax="1388">
      <contour>
        <pt x="642" y="1388" on="1"/>
        <pt x="779" y="1388" on="0"/>
        <pt x="998" y="1352" on="0"/>
        <pt x="1199" y="1260" on="0"/>
        <pt x="1333" y="1112" on="0"/>
        <pt x="1412" y="876" on="0"/>
        <pt x="1412" y="720" on="1"/>
        <pt x="1412" y="606" on="0"/>
        <pt x="1358" y="409" on="0"/>
        <pt x="1264" y="267" on="0"/>
        <pt x="1143" y="156" on="0"/>
        <pt x="1001" y="86" on="0"/>
        <pt x="859" y="48" on="0"/>
        <pt x="788" y="44" on="1"/>
        <pt x="102" y="44" on="1"/>
        <pt x="102" y="1372" on="1"/>
        <pt x="105" y="1372" on="0"/>
        <pt x="121" y="1370" on="0"/>
        <pt x="124" y="1370" on="1"/>
        <pt x="167" y="1370" on="0"/>
        <pt x="342" y="1388" on="0"/>
        <pt x="386" y="1388" on="1"/>
      </contour>
      <contour>
        <pt x="654" y="356" on="1"/>
        <pt x="705" y="356" on="0"/>
        <pt x="783" y="389" on="0"/>
        <pt x="830" y="451" on="0"/>
        <pt x="861" y="519" on="0"/>
        <pt x="875" y="611" on="0"/>
        <pt x="880" y="680" on="0"/>
        <pt x="880" y="724" on="1"/>
        <pt x="880" y="796" on="1"/>
        <pt x="879" y="803" on="0"/>
        <pt x="869" y="925" on="0"/>
        <pt x="852" y="968" on="1"/>
        <pt x="836" y="999" on="0"/>
        <pt x="797" y="1044" on="0"/>
        <pt x="759" y="1069" on="0"/>
        <pt x="708" y="1082" on="0"/>
        <pt x="666" y="1086" on="0"/>
        <pt x="636" y="1086" on="1"/>
        <pt x="636" y="1064" on="1"/>
        <pt x="606" y="1064" on="1"/>
        <pt x="606" y="356" on="1"/>
      </contour>
    </TTGlyph>
    <TTGlyph name="dagger" xMin="188" yMin="-28" xMax="1316" yMax="1504">
      <contour>
        <pt x="188" y="1048" on="1"/>
        <pt x="188" y="1124" on="0"/>
        <pt x="204" y="1204" on="0"/>
        <pt x="228" y="1204" on="1"/>
        <pt x="272" y="1204" on="0"/>
        <pt x="446" y="1198" on="0"/>
        <pt x="486" y="1198" on="1"/>
        <pt x="518" y="1198" on="0"/>
        <pt x="526" y="1200" on="1"/>
        <pt x="526" y="1237" on="0"/>
        <pt x="530" y="1387" on="0"/>
        <pt x="530" y="1424" on="1"/>
        <pt x="530" y="1429" on="0"/>
        <pt x="528" y="1455" on="0"/>
        <pt x="528" y="1460" on="1"/>
        <pt x="528" y="1496" on="0"/>
        <pt x="548" y="1504" on="1"/>
        <pt x="926" y="1504" on="1"/>
        <pt x="955" y="1504" on="0"/>
        <pt x="986" y="1469" on="0"/>
        <pt x="986" y="1416" on="1"/>
        <pt x="986" y="1352" on="1"/>
        <pt x="986" y="1331" on="0"/>
        <pt x="984" y="1249" on="0"/>
        <pt x="984" y="1228" on="1"/>
        <pt x="984" y="1198" on="1"/>
        <pt x="1032" y="1198" on="0"/>
        <pt x="1220" y="1204" on="0"/>
        <pt x="1264" y="1204" on="1"/>
        <pt x="1274" y="1204" on="0"/>
        <pt x="1289" y="1202" on="0"/>
        <pt x="1299" y="1201" on="0"/>
        <pt x="1306" y="1194" on="0"/>
        <pt x="1310" y="1192" on="0"/>
        <pt x="1312" y="1182" on="0"/>
        <pt x="1312" y="1179" on="0"/>
        <pt x="1312" y="1166" on="0"/>
        <pt x="1312" y="1164" on="1"/>
        <pt x="1312" y="1110" on="0"/>
        <pt x="1316" y="903" on="0"/>
        <pt x="1316" y="852" on="1"/>
        <pt x="1311" y="824" on="0"/>
        <pt x="1248" y="824" on="1"/>
        <pt x="998" y="824" on="1"/>
        <pt x="998" y="692" on="0"/>
        <pt x="994" y="141" on="0"/>
        <pt x="994" y="4" on="1"/>
        <pt x="990" y="-28" on="0"/>
        <pt x="958" y="-28" on="1"/>
        <pt x="548" y="-28" on="1"/>
        <pt x="527" y="-7" on="0"/>
        <pt x="516" y="19" on="0"/>
        <pt x="516" y="56" on="1"/>
        <pt x="516" y="178" on="0"/>
        <pt x="522" y="666" on="0"/>
        <pt x="522" y="792" on="1"/>
        <pt x="522" y="820" on="1"/>
        <pt x="256" y="820" on="1"/>
        <pt x="235" y="820" on="0"/>
        <pt x="217" y="821" on="0"/>
        <pt x="194" y="838" on="0"/>
        <pt x="194" y="856" on="1"/>
        <pt x="194" y="875" on="0"/>
        <pt x="188" y="1010" on="0"/>
      </contour>
    </TTGlyph>
    <TTGlyph name="daggerdbl" xMin="187" yMin="-32" xMax="1324" yMax="1508">
      <contour>
        <pt x="190" y="338" on="1"/>
        <pt x="190" y="353" on="0"/>
        <pt x="187" y="432" on="0"/>
        <pt x="187" y="486" on="0"/>
        <pt x="192" y="549" on="0"/>
        <pt x="207" y="587" on="0"/>
        <pt x="220" y="592" on="1"/>
        <pt x="273" y="592" on="0"/>
        <pt x="483" y="588" on="0"/>
        <pt x="536" y="588" on="1"/>
        <pt x="536" y="906" on="1"/>
        <pt x="519" y="907" on="0"/>
        <pt x="464" y="904" on="0"/>
        <pt x="456" y="904" on="1"/>
        <pt x="380" y="904" on="1"/>
        <pt x="376" y="904" on="0"/>
        <pt x="376" y="908" on="1"/>
        <pt x="369" y="908" on="0"/>
        <pt x="325" y="906" on="0"/>
        <pt x="312" y="906" on="1"/>
        <pt x="204" y="906" on="0"/>
        <pt x="204" y="940" on="1"/>
        <pt x="204" y="1264" on="1"/>
        <pt x="544" y="1264" on="1"/>
        <pt x="544" y="1456" on="1"/>
        <pt x="544" y="1485" on="0"/>
        <pt x="560" y="1500" on="0"/>
        <pt x="590" y="1500" on="1"/>
        <pt x="654" y="1508" on="0"/>
        <pt x="720" y="1508" on="1"/>
        <pt x="758" y="1508" on="0"/>
        <pt x="894" y="1502" on="0"/>
        <pt x="928" y="1502" on="1"/>
        <pt x="958" y="1502" on="0"/>
        <pt x="978" y="1476" on="0"/>
        <pt x="976" y="1440" on="1"/>
        <pt x="976" y="1264" on="1"/>
        <pt x="1312" y="1264" on="1"/>
        <pt x="1316" y="1060" on="0"/>
        <pt x="1316" y="932" on="1"/>
        <pt x="1315" y="916" on="0"/>
        <pt x="1293" y="908" on="0"/>
        <pt x="1266" y="908" on="1"/>
        <pt x="974" y="908" on="1"/>
        <pt x="982" y="767" on="0"/>
        <pt x="982" y="594" on="1"/>
        <pt x="1066" y="590" on="0"/>
        <pt x="1112" y="590" on="1"/>
        <pt x="1140" y="590" on="0"/>
        <pt x="1249" y="592" on="0"/>
        <pt x="1276" y="592" on="1"/>
        <pt x="1298" y="592" on="0"/>
        <pt x="1320" y="573" on="0"/>
        <pt x="1320" y="544" on="1"/>
        <pt x="1320" y="448" on="1"/>
        <pt x="1320" y="431" on="0"/>
        <pt x="1322" y="374" on="0"/>
        <pt x="1322" y="362" on="1"/>
        <pt x="1322" y="348" on="1"/>
        <pt x="1322" y="332" on="0"/>
        <pt x="1324" y="324" on="1"/>
        <pt x="1324" y="296" on="1"/>
        <pt x="1324" y="231" on="0"/>
        <pt x="1292" y="224" on="1"/>
        <pt x="984" y="224" on="1"/>
        <pt x="984" y="136" on="1"/>
        <pt x="986" y="110" on="0"/>
        <pt x="986" y="52" on="1"/>
        <pt x="986" y="-8" on="0"/>
        <pt x="933" y="-32" on="0"/>
        <pt x="835" y="-32" on="1"/>
        <pt x="832" y="-32" on="0"/>
        <pt x="828" y="-32" on="0"/>
        <pt x="826" y="-32" on="1"/>
        <pt x="564" y="-32" on="1"/>
        <pt x="542" y="-1" on="0"/>
        <pt x="528" y="37" on="0"/>
        <pt x="528" y="66" on="1"/>
        <pt x="528" y="216" on="1"/>
        <pt x="477" y="216" on="0"/>
        <pt x="274" y="220" on="0"/>
        <pt x="222" y="220" on="1"/>
        <pt x="190" y="225" on="0"/>
      </contour>
    </TTGlyph>
    <TTGlyph name="dcaron" xMin="102" yMin="44" xMax="2242" yMax="1418">
      <component glyphName="comma" x="1572" y="974" flags="0x4"/>
      <component glyphName="d" x="0" y="0" flags="0x4"/>
    </TTGlyph>
    <TTGlyph name="degree" xMin="108" yMin="916" xMax="748" yMax="1548">
      <contour>
        <pt x="108" y="1244" on="1"/>
        <pt x="118" y="1306" on="0"/>
        <pt x="167" y="1411" on="0"/>
        <pt x="244" y="1498" on="0"/>
        <pt x="363" y="1548" on="0"/>
        <pt x="436" y="1548" on="1"/>
        <pt x="560" y="1548" on="0"/>
        <pt x="748" y="1370" on="0"/>
        <pt x="748" y="1236" on="1"/>
        <pt x="748" y="1224" on="1"/>
        <pt x="748" y="1108" on="0"/>
        <pt x="568" y="916" on="0"/>
        <pt x="450" y="916" on="1"/>
        <pt x="391" y="916" on="0"/>
        <pt x="274" y="956" on="0"/>
        <pt x="171" y="1032" on="0"/>
        <pt x="108" y="1162" on="0"/>
      </contour>
    </TTGlyph>
    <TTGlyph name="dieresis" xMin="-116" yMin="1382" xMax="820" yMax="1784">
      <contour>
        <pt x="-116" y="1432" on="1"/>
        <pt x="-116" y="1494" on="1"/>
        <pt x="-116" y="1597" on="0"/>
        <pt x="-97" y="1784" on="0"/>
        <pt x="-80" y="1784" on="1"/>
        <pt x="248" y="1784" on="1"/>
        <pt x="272" y="1776" on="0"/>
        <pt x="272" y="1736" on="1"/>
        <pt x="272" y="1416" on="1"/>
        <pt x="264" y="1388" on="0"/>
        <pt x="176" y="1388" on="1"/>
        <pt x="162" y="1388" on="0"/>
        <pt x="114" y="1390" on="0"/>
        <pt x="106" y="1390" on="1"/>
        <pt x="70" y="1390" on="0"/>
        <pt x="-62" y="1383" on="0"/>
        <pt x="-84" y="1382" on="1"/>
        <pt x="-100" y="1409" on="0"/>
      </contour>
      <contour>
        <pt x="432" y="1428" on="1"/>
        <pt x="432" y="1767" on="0"/>
        <pt x="464" y="1784" on="1"/>
        <pt x="536" y="1780" on="0"/>
        <pt x="570" y="1780" on="1"/>
        <pt x="596" y="1780" on="0"/>
        <pt x="700" y="1784" on="0"/>
        <pt x="734" y="1784" on="1"/>
        <pt x="812" y="1784" on="0"/>
        <pt x="816" y="1760" on="1"/>
        <pt x="820" y="1532" on="0"/>
        <pt x="820" y="1420" on="1"/>
        <pt x="815" y="1396" on="0"/>
        <pt x="800" y="1396" on="1"/>
        <pt x="796" y="1396" on="0"/>
        <pt x="796" y="1398" on="1"/>
        <pt x="736" y="1393" on="0"/>
        <pt x="514" y="1386" on="0"/>
        <pt x="464" y="1382" on="1"/>
        <pt x="432" y="1422" on="1"/>
      </contour>
    </TTGlyph>
    <TTGlyph name="divide" xMin="92" yMin="-24" xMax="1182" yMax="1080">
      <contour>
        <pt x="92" y="428" on="1"/>
        <pt x="92" y="677" on="0"/>
        <pt x="144" y="688" on="1"/>
        <pt x="204" y="688" on="1"/>
        <pt x="328" y="688" on="0"/>
        <pt x="833" y="676" on="0"/>
        <pt x="956" y="676" on="1"/>
        <pt x="1024" y="676" on="0"/>
        <pt x="1164" y="680" on="1"/>
        <pt x="1182" y="680" on="0"/>
        <pt x="1182" y="608" on="0"/>
        <pt x="1176" y="492" on="0"/>
        <pt x="1176" y="464" on="1"/>
        <pt x="1176" y="384" on="1"/>
        <pt x="118" y="384" on="1"/>
        <pt x="112" y="390" on="0"/>
        <pt x="98" y="403" on="0"/>
        <pt x="95" y="408" on="0"/>
        <pt x="92" y="418" on="0"/>
      </contour>
      <contour>
        <pt x="484" y="128" on="1"/>
        <pt x="484" y="201" on="0"/>
        <pt x="575" y="298" on="0"/>
        <pt x="642" y="298" on="1"/>
        <pt x="710" y="298" on="0"/>
        <pt x="808" y="206" on="0"/>
        <pt x="808" y="136" on="1"/>
        <pt x="808" y="67" on="0"/>
        <pt x="710" y="-24" on="0"/>
        <pt x="646" y="-24" on="1"/>
        <pt x="587" y="-24" on="0"/>
        <pt x="484" y="58" on="0"/>
      </contour>
      <contour>
        <pt x="648" y="1080" on="1"/>
        <pt x="713" y="1080" on="0"/>
        <pt x="812" y="997" on="0"/>
        <pt x="812" y="928" on="1"/>
        <pt x="812" y="893" on="0"/>
        <pt x="804" y="874" on="1"/>
        <pt x="776" y="828" on="1"/>
        <pt x="754" y="799" on="0"/>
        <pt x="681" y="764" on="0"/>
        <pt x="644" y="764" on="1"/>
        <pt x="580" y="764" on="0"/>
        <pt x="488" y="852" on="0"/>
        <pt x="488" y="922" on="1"/>
        <pt x="488" y="991" on="0"/>
        <pt x="586" y="1080" on="0"/>
      </contour>
    </TTGlyph>
    <TTGlyph name="dollar" xMin="22" yMin="-260" xMax="1464" yMax="1734">
      <contour>
        <pt x="22" y="452" on="1"/>
        <pt x="22" y="488" on="0"/>
        <pt x="90" y="488" on="1"/>
        <pt x="596" y="488" on="1"/>
        <pt x="616" y="488" on="0"/>
        <pt x="633" y="439" on="0"/>
        <pt x="640" y="381" on="0"/>
        <pt x="692" y="332" on="0"/>
        <pt x="742" y="332" on="1"/>
        <pt x="795" y="332" on="0"/>
        <pt x="868" y="383" on="0"/>
        <pt x="868" y="432" on="1"/>
        <pt x="868" y="450" on="0"/>
        <pt x="850" y="477" on="0"/>
        <pt x="804" y="496" on="0"/>
        <pt x="769" y="507" on="0"/>
        <pt x="688" y="525" on="0"/>
        <pt x="668" y="530" on="1"/>
        <pt x="576" y="554" on="1"/>
        <pt x="291" y="623" on="0"/>
        <pt x="56" y="834" on="0"/>
        <pt x="56" y="1022" on="1"/>
        <pt x="56" y="1099" on="0"/>
        <pt x="89" y="1229" on="0"/>
        <pt x="141" y="1324" on="0"/>
        <pt x="222" y="1402" on="0"/>
        <pt x="303" y="1453" on="0"/>
        <pt x="409" y="1495" on="0"/>
        <pt x="495" y="1519" on="0"/>
        <pt x="548" y="1530" on="1"/>
        <pt x="546" y="1548" on="0"/>
        <pt x="546" y="1590" on="1"/>
        <pt x="546" y="1664" on="1"/>
        <pt x="546" y="1666" on="0"/>
        <pt x="546" y="1670" on="1"/>
        <pt x="546" y="1689" on="0"/>
        <pt x="547" y="1709" on="0"/>
        <pt x="558" y="1730" on="0"/>
        <pt x="568" y="1732" on="1"/>
        <pt x="648" y="1732" on="1"/>
        <pt x="683" y="1732" on="0"/>
        <pt x="813" y="1734" on="0"/>
        <pt x="848" y="1734" on="1"/>
        <pt x="888" y="1734" on="0"/>
        <pt x="888" y="1634" on="1"/>
        <pt x="888" y="1614" on="0"/>
        <pt x="884" y="1540" on="0"/>
        <pt x="884" y="1528" on="1"/>
        <pt x="1000" y="1519" on="0"/>
        <pt x="1169" y="1465" on="0"/>
        <pt x="1302" y="1358" on="0"/>
        <pt x="1385" y="1187" on="0"/>
        <pt x="1404" y="1064" on="1"/>
        <pt x="1401" y="1048" on="0"/>
        <pt x="1388" y="1048" on="1"/>
        <pt x="1309" y="1048" on="0"/>
        <pt x="999" y="1038" on="0"/>
        <pt x="920" y="1038" on="1"/>
        <pt x="887" y="1038" on="0"/>
        <pt x="849" y="1064" on="0"/>
        <pt x="835" y="1101" on="0"/>
        <pt x="819" y="1138" on="0"/>
        <pt x="777" y="1164" on="0"/>
        <pt x="740" y="1164" on="1"/>
        <pt x="734" y="1163" on="0"/>
        <pt x="702" y="1157" on="0"/>
        <pt x="687" y="1154" on="0"/>
        <pt x="661" y="1147" on="0"/>
        <pt x="647" y="1138" on="0"/>
        <pt x="631" y="1125" on="0"/>
        <pt x="624" y="1107" on="0"/>
        <pt x="624" y="1096" on="1"/>
        <pt x="624" y="1067" on="0"/>
        <pt x="679" y="1029" on="0"/>
        <pt x="744" y="1013" on="0"/>
        <pt x="839" y="995" on="0"/>
        <pt x="860" y="988" on="1"/>
        <pt x="966" y="962" on="1"/>
        <pt x="1141" y="919" on="0"/>
        <pt x="1272" y="848" on="1"/>
        <pt x="1366" y="777" on="0"/>
        <pt x="1464" y="574" on="0"/>
        <pt x="1464" y="456" on="1"/>
        <pt x="1464" y="358" on="0"/>
        <pt x="1398" y="198" on="0"/>
        <pt x="1294" y="92" on="0"/>
        <pt x="1141" y="10" on="0"/>
        <pt x="997" y="-36" on="0"/>
        <pt x="908" y="-54" on="1"/>
        <pt x="908" y="-156" on="1"/>
        <pt x="908" y="-168" on="0"/>
        <pt x="912" y="-188" on="1"/>
        <pt x="912" y="-224" on="1"/>
        <pt x="909" y="-260" on="0"/>
        <pt x="868" y="-260" on="1"/>
        <pt x="720" y="-260" on="1"/>
        <pt x="620" y="-256" on="0"/>
        <pt x="572" y="-252" on="1"/>
        <pt x="563" y="-247" on="0"/>
        <pt x="540" y="-221" on="0"/>
        <pt x="534" y="-216" on="1"/>
        <pt x="536" y="-206" on="0"/>
        <pt x="536" y="-184" on="1"/>
        <pt x="536" y="-150" on="1"/>
        <pt x="536" y="-113" on="0"/>
        <pt x="529" y="-71" on="0"/>
        <pt x="505" y="-48" on="0"/>
        <pt x="488" y="-42" on="0"/>
        <pt x="436" y="-32" on="0"/>
        <pt x="420" y="-28" on="1"/>
        <pt x="220" y="26" on="0"/>
        <pt x="34" y="262" on="0"/>
      </contour>
    </TTGlyph>
    <TTGlyph name="dotaccent" xMin="138" yMin="1096" xMax="526" yMax="1492">
      <contour>
        <pt x="142" y="1140" on="1"/>
        <pt x="143" y="1197" on="0"/>
        <pt x="138" y="1399" on="0"/>
        <pt x="138" y="1440" on="1"/>
        <pt x="138" y="1492" on="0"/>
        <pt x="166" y="1492" on="1"/>
        <pt x="500" y="1492" on="1"/>
        <pt x="522" y="1485" on="0"/>
        <pt x="522" y="1442" on="1"/>
        <pt x="522" y="1438" on="0"/>
        <pt x="520" y="1412" on="0"/>
        <pt x="520" y="1404" on="1"/>
        <pt x="520" y="1318" on="1"/>
        <pt x="520" y="1297" on="0"/>
        <pt x="526" y="1213" on="0"/>
        <pt x="526" y="1192" on="1"/>
        <pt x="526" y="1160" on="1"/>
        <pt x="524" y="1150" on="0"/>
        <pt x="524" y="1126" on="1"/>
        <pt x="517" y="1096" on="0"/>
        <pt x="424" y="1096" on="1"/>
        <pt x="142" y="1096" on="1"/>
      </contour>
    </TTGlyph>
    <TTGlyph name="dotlessi" xMin="45" yMin="-24" xMax="599" yMax="1048">
      <contour>
        <pt x="46" y="84" on="1"/>
        <pt x="45" y="139" on="0"/>
        <pt x="50" y="396" on="1"/>
        <pt x="50" y="604" on="1"/>
        <pt x="50" y="674" on="0"/>
        <pt x="59" y="946" on="0"/>
        <pt x="60" y="998" on="1"/>
        <pt x="60" y="1024" on="1"/>
        <pt x="60" y="1048" on="0"/>
        <pt x="76" y="1048" on="1"/>
        <pt x="572" y="1048" on="1"/>
        <pt x="596" y="1048" on="0"/>
        <pt x="596" y="1020" on="1"/>
        <pt x="596" y="168" on="1"/>
        <pt x="596" y="150" on="0"/>
        <pt x="598" y="82" on="0"/>
        <pt x="599" y="42" on="0"/>
        <pt x="595" y="-3" on="0"/>
        <pt x="583" y="-24" on="0"/>
        <pt x="572" y="-24" on="1"/>
        <pt x="48" y="-24" on="1"/>
        <pt x="48" y="-9" on="0"/>
        <pt x="46" y="69" on="0"/>
      </contour>
    </TTGlyph>
    <TTGlyph name="e" xMin="84" yMin="48" xMax="1142" yMax="1384">
      <contour>
        <pt x="84" y="1292" on="1"/>
        <pt x="84" y="1352" on="0"/>
        <pt x="89" y="1362" on="1"/>
        <pt x="98" y="1376" on="0"/>
        <pt x="118" y="1376" on="1"/>
        <pt x="142" y="1376" on="1"/>
        <pt x="158" y="1376" on="0"/>
        <pt x="164" y="1374" on="1"/>
        <pt x="216" y="1374" on="1"/>
        <pt x="317" y="1374" on="0"/>
        <pt x="726" y="1384" on="0"/>
        <pt x="828" y="1384" on="1"/>
        <pt x="1094" y="1384" on="1"/>
        <pt x="1120" y="1381" on="0"/>
        <pt x="1120" y="1358" on="1"/>
        <pt x="1120" y="1024" on="1"/>
        <pt x="1119" y="1018" on="0"/>
        <pt x="1114" y="1009" on="0"/>
        <pt x="1111" y="1006" on="0"/>
        <pt x="1095" y="995" on="0"/>
        <pt x="1092" y="992" on="1"/>
        <pt x="628" y="992" on="1"/>
        <pt x="628" y="868" on="1"/>
        <pt x="672" y="868" on="1"/>
        <pt x="730" y="868" on="0"/>
        <pt x="968" y="876" on="0"/>
        <pt x="1032" y="876" on="1"/>
        <pt x="1060" y="876" on="0"/>
        <pt x="1080" y="854" on="0"/>
        <pt x="1080" y="834" on="1"/>
        <pt x="1080" y="829" on="0"/>
        <pt x="1076" y="805" on="0"/>
        <pt x="1076" y="800" on="1"/>
        <pt x="1076" y="762" on="1"/>
        <pt x="1076" y="758" on="0"/>
        <pt x="1078" y="733" on="0"/>
        <pt x="1078" y="724" on="1"/>
        <pt x="1078" y="696" on="1"/>
        <pt x="1078" y="674" on="0"/>
        <pt x="1082" y="630" on="0"/>
        <pt x="1082" y="614" on="1"/>
        <pt x="1082" y="588" on="1"/>
        <pt x="1077" y="576" on="0"/>
        <pt x="1071" y="568" on="0"/>
        <pt x="1064" y="568" on="1"/>
        <pt x="1064" y="570" on="1"/>
        <pt x="1027" y="570" on="0"/>
        <pt x="846" y="560" on="0"/>
        <pt x="792" y="560" on="1"/>
        <pt x="632" y="560" on="1"/>
        <pt x="632" y="432" on="1"/>
        <pt x="640" y="432" on="0"/>
        <pt x="672" y="430" on="0"/>
        <pt x="680" y="430" on="1"/>
        <pt x="725" y="430" on="0"/>
        <pt x="901" y="436" on="0"/>
        <pt x="940" y="436" on="1"/>
        <pt x="1068" y="436" on="1"/>
        <pt x="1120" y="436" on="0"/>
        <pt x="1134" y="424" on="1"/>
        <pt x="1139" y="418" on="0"/>
        <pt x="1142" y="412" on="1"/>
        <pt x="1142" y="92" on="1"/>
        <pt x="1142" y="71" on="0"/>
        <pt x="1126" y="49" on="0"/>
        <pt x="1104" y="48" on="1"/>
        <pt x="114" y="48" on="1"/>
        <pt x="84" y="74" on="1"/>
      </contour>
    </TTGlyph>
    <TTGlyph name="eacute" xMin="84" yMin="48" xMax="1142" yMax="1877">
      <component glyphName="acute" x="300" y="108" flags="0x4"/>
      <component glyphName="e" x="0" y="0" flags="0x4"/>
    </TTGlyph>
    <TTGlyph name="ecaron" xMin="84" yMin="48" xMax="1142" yMax="1934">
      <component glyphName="caron" x="257" y="182" flags="0x4"/>
      <component glyphName="e" x="0" y="0" flags="0x4"/>
    </TTGlyph>
    <TTGlyph name="ecircumflex" xMin="84" yMin="48" xMax="1142" yMax="1882">
      <component glyphName="circumflex" x="239" y="128" flags="0x4"/>
      <component glyphName="e" x="0" y="0" flags="0x4"/>
    </TTGlyph>
    <TTGlyph name="edieresis" xMin="84" yMin="48" xMax="1142" yMax="1874">
      <component glyphName="dieresis" x="264" y="90" flags="0x4"/>
      <component glyphName="e" x="0" y="0" flags="0x4"/>
    </TTGlyph>
    <TTGlyph name="egrave" xMin="84" yMin="48" xMax="1142" yMax="1890">
      <component glyphName="grave" x="320" y="102" flags="0x4"/>
      <component glyphName="e" x="0" y="0" flags="0x4"/>
    </TTGlyph>
    <TTGlyph name="eight" xMin="28" yMin="-56" xMax="1408" yMax="1548">
      <contour>
        <pt x="708" y="1548" on="1"/>
        <pt x="815" y="1548" on="0"/>
        <pt x="1006" y="1514" on="0"/>
        <pt x="1174" y="1438" on="0"/>
        <pt x="1296" y="1327" on="0"/>
        <pt x="1366" y="1165" on="0"/>
        <pt x="1366" y="1066" on="1"/>
        <pt x="1366" y="838" on="0"/>
        <pt x="1160" y="764" on="1"/>
        <pt x="1216" y="736" on="0"/>
        <pt x="1298" y="676" on="0"/>
        <pt x="1370" y="589" on="0"/>
        <pt x="1408" y="470" on="0"/>
        <pt x="1408" y="396" on="1"/>
        <pt x="1408" y="177" on="0"/>
        <pt x="1049" y="-56" on="0"/>
        <pt x="688" y="-56" on="1"/>
        <pt x="577" y="-56" on="0"/>
        <pt x="394" y="-28" on="0"/>
        <pt x="264" y="19" on="0"/>
        <pt x="163" y="90" on="0"/>
        <pt x="100" y="164" on="0"/>
        <pt x="56" y="260" on="0"/>
        <pt x="35" y="345" on="0"/>
        <pt x="28" y="396" on="1"/>
        <pt x="36" y="522" on="0"/>
        <pt x="144" y="698" on="0"/>
        <pt x="264" y="754" on="1"/>
        <pt x="74" y="840" on="0"/>
        <pt x="74" y="1068" on="1"/>
        <pt x="74" y="1172" on="0"/>
        <pt x="153" y="1340" on="0"/>
        <pt x="280" y="1446" on="0"/>
        <pt x="449" y="1518" on="0"/>
        <pt x="620" y="1548" on="0"/>
      </contour>
      <contour>
        <pt x="558" y="440" on="1"/>
        <pt x="566" y="364" on="0"/>
        <pt x="649" y="272" on="0"/>
        <pt x="720" y="272" on="1"/>
        <pt x="794" y="272" on="0"/>
        <pt x="876" y="362" on="0"/>
        <pt x="876" y="432" on="1"/>
        <pt x="876" y="620" on="0"/>
        <pt x="718" y="620" on="1"/>
        <pt x="648" y="620" on="0"/>
        <pt x="558" y="515" on="0"/>
      </contour>
      <contour>
        <pt x="584" y="1048" on="1"/>
        <pt x="584" y="888" on="0"/>
        <pt x="722" y="888" on="1"/>
        <pt x="789" y="888" on="0"/>
        <pt x="854" y="982" on="0"/>
        <pt x="854" y="1052" on="1"/>
        <pt x="854" y="1212" on="0"/>
        <pt x="714" y="1212" on="1"/>
        <pt x="651" y="1212" on="0"/>
        <pt x="584" y="1108" on="0"/>
      </contour>
    </TTGlyph>
</ttFont>
